<mxfile host="app.diagrams.net" modified="2024-04-08T03:18:23.692Z" agent="Mozilla/5.0 (Windows NT 10.0; Win64; x64) AppleWebKit/537.36 (KHTML, like Gecko) Chrome/123.0.0.0 Safari/537.36" etag="m7h1rcbfBHR94-bNCwfI" version="24.2.2" type="device">
  <diagram name="Página-1" id="XooIiE-4SHhTGJiuK8Y8">
    <mxGraphModel dx="1760" dy="1000" grid="1" gridSize="10" guides="1" tooltips="1" connect="1" arrows="1" fold="1" page="1" pageScale="1" pageWidth="1100" pageHeight="850" math="0" shadow="0">
      <root>
        <mxCell id="0" />
        <mxCell id="1" parent="0" />
        <mxCell id="r_zC4A2iQhUERC9B56iK-6" value="" style="group" vertex="1" connectable="0" parent="1">
          <mxGeometry x="430" y="355" width="240" height="155" as="geometry" />
        </mxCell>
        <mxCell id="r_zC4A2iQhUERC9B56iK-1" value="" style="verticalLabelPosition=bottom;verticalAlign=top;html=1;shape=offPageConnector;rounded=0;size=0.5;rotation=90;strokeColor=none;fillColor=#007FFF;" vertex="1" parent="r_zC4A2iQhUERC9B56iK-6">
          <mxGeometry width="120.00000000000003" height="140" as="geometry" />
        </mxCell>
        <mxCell id="r_zC4A2iQhUERC9B56iK-2" value="" style="verticalLabelPosition=bottom;verticalAlign=top;html=1;shape=offPageConnector;rounded=0;size=0.5;rotation=-90;strokeColor=none;fillColor=#007FFF;" vertex="1" parent="r_zC4A2iQhUERC9B56iK-6">
          <mxGeometry x="120.00000000000003" width="120.00000000000003" height="140" as="geometry" />
        </mxCell>
        <mxCell id="r_zC4A2iQhUERC9B56iK-4" value="&lt;font style=&quot;font-size: 17px;&quot; color=&quot;#fafafa&quot;&gt;Expedición de licencias de conducción por primera vez&lt;/font&gt;" style="shape=note;whiteSpace=wrap;html=1;backgroundOutline=1;darkOpacity=0.05;fillColor=none;fillStyle=solid;direction=west;gradientDirection=north;shadow=1;size=20;pointerEvents=1;strokeColor=none;fontSize=9;fontFamily=Verdana;" vertex="1" parent="r_zC4A2iQhUERC9B56iK-6">
          <mxGeometry x="45" y="-15" width="150" height="170" as="geometry" />
        </mxCell>
        <mxCell id="r_zC4A2iQhUERC9B56iK-10" value="" style="endArrow=classic;html=1;rounded=0;exitX=0.5;exitY=1;exitDx=0;exitDy=0;" edge="1" parent="1" source="r_zC4A2iQhUERC9B56iK-8">
          <mxGeometry width="50" height="50" relative="1" as="geometry">
            <mxPoint x="500" y="290" as="sourcePoint" />
            <mxPoint x="450" y="390" as="targetPoint" />
          </mxGeometry>
        </mxCell>
        <mxCell id="r_zC4A2iQhUERC9B56iK-12" value="" style="shape=image;verticalLabelPosition=bottom;labelBackgroundColor=default;verticalAlign=top;aspect=fixed;imageAspect=0;image=data:image/png,iVBORw0KGgoAAAANSUhEUgAAA8gAAAEmCAYAAAC+g7nZAAAACXBIWXMAAAsTAAALEwEAmpwYAAAAGXRFWHRTb2Z0d2FyZQBBZG9iZSBJbWFnZVJlYWR5ccllPAAAUTFJREFUeNrsnQt8XFW1/3f6T2lrm5ZQ+koptElfPAqUpEUe2gdJBRRaHim+uLR6TRQUEPUmV5CHwP+f/PGvghe4Dd4LUr1XEoEWH0gbKqgg0MRaCtIHDe8WeYXSqqDeT/9npXvKzGQms2fmPPY55/v1cwwzTWbOWWefvfdvr7XXKtm7d68KE1PPvmm882OocxyoDwB4n3ed41X9368+e8/F72ISAAAAAAAzSmwVyI4QFvF7rHPM18dk5ziMWwaQNw87xx/08ZAjmp/HJAAAAAAAlgtkRxSLIF6mBfEx3B4AT9jlHKtELMtPRzC/jUkAAAAAACwQyEmieInCQwwQBKu1UL4DUwAAAAAAAtl/UXygFsSXKjzFALaQ8CxfTRg2AAAAACCQ/RHGl+pjFOYHsBbxKn/XEcoPYQoAAAAAQCAjjAFgX4KvqxHKAAAAAIBAdkcciyi+GmEMEGp+oAi9BgAAAAAEcsHCWJJv3aHYYwwQFXZpkfxdTAEAAAAACGRzcXy18+MqzAsQSTY6xzJHKP8BUwAAAAAAAjm7MMZrDBAP8CYDAAAAAAJ5AHG8zPkhk2X2GgPEB9mbfKkjlN/GFAAAAACAQN4njkUYX4I5AWKJhFwvIYEXAAAAAMRaIOvyTXc4x2JMCRBrJOR6PvuSAQAAACDMDCpSHD+EOAYAtW9rxUNOv7AEUwAAAABArARykjgmGRcAJIvke3U+AgAAAACAeAhkh1WIYwDIwu2IZAAAAACIhUB2Jr53OD/mYToAyCGSCbcGAAAAgOgKZGfCe6nz4wLMBgAG3KFrowMAAAAAhALjLNZ6orsBkwFAHkh268nUSQYAAACAMGDkQdZJuVZhLgDIk0R26wMxBQAAAABEQiCrfbWOD8NcAFAAktDvu5gBAAAAAGwnZ4i1TrRzL6YCgCI569l7LiYSBQAAAADCKZB1WOQfFN5jACge2Y98rCOSn8cUAAAAAGAjuUKsr0YcA4BLyH7kOzADAAAAANhKVg/y1LNvmuz8eA4TAYDLLH/2nosRygAAAABgHQN5kEmqAwBe8F2yWgMAAABAaASyM3md7/xYjHkAwAMk1PpSzAAAAAAAoRDITF4BwGOu0ts4AAAAAADsFch60or3GAC85mpMAAAAAABWC2QmrQDgExfgRQYAAAAAawWyTpyzBLMAgE9cjQkAAAAAwEqBrMXxKMwCAD6xhIzWAAAAAGCrQCY5FwD4iSzILcMMAAAAAGCVQNZ7AY/BJADgMyzMAQAAAIBdAlmx9xgAguGwqWffdCxmAAAAAACbBPIyzAEAAUH/AwAAAAB2CGSdJIfwagAICiJYAAAAAMAOgewwH1MAQIAQZg0AAAAACGQAAA1eZAAAAACwQiDjuQGAoJmPCQAAAADABoE8D1MAQMDQDwEAAABAsAKZfX8AYAtOfzQfKwAAAABAYALZOQ7EDABgCSzYAQAAAECgAnk+ZgAAS5iMCQAAAAAgSIGMBxkAbAEPMgAAAAAEKpCZkAIAAhkAAAAAEMiYAAAsYhQmAAAAAAAEMgCA6stkPRQrAAAAAEBQAnkyZgAAi0AgAwAAAEBgAvkwzAAAAAAAAAAIZAAAAAAAAABAIAMAAAAAAAAgkAEAAAAAAAAQyAAAAAAAAADvU4oJAAAA7GXCvKua9H/W6iMTHc7RLf+x8+FrWrEaAABYPK5VJ41nA41tQo9ztCX+2xnjOrw+v5Kqs27cy20CAIsof/aei9+2XKy05Pi1OqcD7wypEGvJ40+avRJjzrmszTFgClXO9/dEcOJQ7vxo0EdlgR8jYrkjTGLZ8J4HRbOttoxCn8S9L9huuebwIiaqPPru7bn6J+e7S2hz0WpzRdpcxrRqPbYVS98YJ8LZsVWv2+eKBxkAAAqlyRnwOqIoUgMUxk36KBaZhFQ7nynCqU1PuHqxMgAA+DiuVWpB3OTyR1fro0XmIVoou7YIyB5kAAAoFBF0LZjBlUlEvfNjuweTCKUnJ2/p1XsAAACvx7Ry51jh4biWjIyfayUqQIduI5ABACBQ6rW4g8InErLI0K72LTh4yQo9gSjH6gAA4NGYlljw9XtRVkLmu7QwRyADAECgtCC6ihLHTT5+ZSIsDQAAwO0xTRZ7/VjwHYgG5zy6ivEmI5ABAKBYEnuMIL+JhFv7jU2RPcihTCAHAABWj2cSUt2l9oU724CIYxHJBSViI0kXAAC4QQsJu/KaTMiiQj77txNlnPpl7NRCu9pgYrLU+dturA8AAC6PZ5IVvJCqC536yFi+SX+2jG2JJJb5ItuK8l4YRiADAIBbyL6fOsxgbCvTyUPjQAsPiXIgOsxdRHdDFnFstefYOb+C206Uy6/FAe490OZCK45l3GkvQBzLuNWWa1Fd/3ui5FWzTjbZlOf35S2SCbEGAAC3qCVTstGEQgZ2k7AvmTzUmXrlxbPsHI3Of9Y4R/LfNGZamQcAACgSWezNZ6+viNQqZ0xqLiTizPmbNl3buznPP23XYy8CGQAAfIeEXbkx2aPVrcVu3ugw6jotkmUS0obJAQDATbQnPZ89x835LPrmGOfEq5y+GDwQCU83AhkAAHyH2sjuCOTmYr5AT0BqEuHXAAAALopj8cbmsye4zu3xSC8Gi0g2za1RrUU9AhkAAFzFZCBqKDRzZEzIFebV68betfRkXgAAAC4hC+Gm0WKNXu3H1uNcXR4iuckk1BqBDAAA+SCeTZOQJrzI2ck1qUDYAgCAlegFcNPQ6lavt/lokbzUcOw0yoaNQAYAgEJEci6MQ5liNrGoxAoAABBiTJNxSummZj9OSG8rMv2uhly5UhDIAACQ70AkGZFNsiI3IQj7YbLCXUmiMwAAsI2kusQmNPp5btpTbRpq3YBABgAAt2k2EHsk7Oo/gJuGT1MuCwAAbMNUHHcGVAfa2IuMQAYAALeFnoQzmWSkrJ8w76p6LJaCyR5u8b5XYyoAAAihQA6kgoIW5SZjbOVAYywCGQAACh2IWg0HImojp2ISAib2Wks2cAAAsAE9jpss3PYG5D1OYJoUrBaBDAAAXmCyx0j2LBEy/D6mE4eESF7BXm4AAAgY0wXbtoDPs8Pw9/AgAwCA++hVYpPBsAWRlzJ451PKSRYXtjv2W0tmcAAACAjTMbw7yJPUW8BMzgGBDAAAntFqKPhWYKr9iboK2Z8lq/ey0LAXsQwAAD5jmhej04JzNd2HXI5ABgAALwSfacKuWmcwItRa7d+/XcwqO2IZAAD8xCSXSG8e1Rq8pLuYa0IgAwCAn4KPhF3vs1TlF2ptIpZXkP0aAAA8wCTEuseSc+0t5poQyAAA4BYmCbuojazRnvc6l0RyAvHQdzkiuZ093wAAYKkw9ZqihDoCGQAA3BJ84kE2SdjVQPmiFJvVKPeTmkityu2EtAMAgEtUxuWaEMgAAOAmzcpsBRkv8vsiucc5arTt3EZCrtuxMgAAgBkIZAAAcFPs9RoKvWoSS/WzXatzlGj7ubmPqx6RDAAARdITl2tCIAMAgNtCT8KsTco8NLFPNqtQrlL7Qq/d8irXsyABAAAeY0sSzqLmFghkAADwAhNhR8KugYVyd5JXuc4FsdzCggQAABSIUW3hkAl1PMgAAOCfuFNmtZHFs1mPxXLaszNNLLcW+FErsCYAAHgkkMstKeVoVO5QV5NAIAMAgG+0Gg6o1EbOXyw3J+1XzodavMgAAOCRQO4bZyw4V5NxLmv1CAQyAAB4JeR6lZmnUwYyyhEVZmOx70HKbM93Ajz2AOA1vZggcpiOM9VBnqReBK4u5noQyAAA4KWAM03Yxf7Ywm3c6xwSdt1h+Cd46wEQoQhkyHes6Ta8r0Evwpp+Px5kAAAIjEbD32N/bPF2NgmBq8ZUALEQyF4uhrGgGU9MFrwrJ8y7Ksgw6/pirwWBDAAAnqKTYJjslZX9sYRaF25nmSy3YQkABHJCIHuR38Ew2qeH2xNJTCOVAikrqIW5ySJwhx4zEcgAABCYeCNhlz90YgKA2NBt8DteRIxUu3RuEL6xXASySZh1bUBeZFNhPqDQRyADAIBfUBvZe9j3BxAfgtpSYfKZ9EXRxbTMoK9juY5AMxHlPVroI5ABACBY9IBkEp7VoNgnWygm3ndCHwGigUnEiBcJk0w+s4PbE1lkK4/JAki1I1p9Eck67N/0u3IKfAQyAAD4SbPhwBqLMGsJJ3c5ezd7AwFigs4qnOt5rnYz1FV/Vq5+plvnnoBotjvTEo5Ck9NmPM1qrbdltRvOG7p1dQ0EMgAAWDOw9uQxsEZdHMsks0sP7G5hMhFh4goQHUwS87npxTOpNoD3OPpjuYzjpvvM273aj6zF8VplHnVmVFUDgQwAAEEMrLEWac6gXq0HdRHJ4uFZW2xyMr1Kn0sg9+baewUAoRPIuaJyXAl1dT5jhcrtPSabfnxozON3ZYxzNbO1XmTORxy36qgLBDIAAIR+YI2yOE4gq+tdha6y68/EswMQM/IId20qRiTrvzUpw9c6UPkciFTb685zLJcqFe1ubCvSCbm25yGOO53zbTb9fAQyAAAEMbBKcpnYeRm0AJaw6kze4r7VcD2BqM7jMxsG+Mx+k1daH0DkkL7UJCqnSUer5NO/iPdZ+hcT71+PjhCC+IzlbXmOKxLltF0WXAqJmpLxzjlEGK/I489EyC/N53tKubUAABAQrXqwjEtCLhHHaw0nEPXO78ugLh7fbr2gkPxZ9VpQNyizxFx99iZxDkAkRUqv0yc0GvYviWiVDi0c2tI9vtrDV69/N5+olqXcjVi2v2Ytdhvy+DNZcJEFGxnb5MhYeimpLZYr8xrHyciYtzTfqAYEMgAABDWo9jiDn4jkyNc91oN8vsm4qvUhf1/sKXTnE14GAKHrTzudfqI5j/40kbOgxYX+RWg03d8JkWx/jU476i1AxO5fhHGpHaaMe85RV0jIPyHWAAAQ5KCaTybMUC8GyECtzEpcuY18J54dgHj0p0EshDWalM6ByLe/ZovGmg7nfGoK3Q+PQAYAgKCJRcIu7V2p8XlBoE+YE1oNgEj2iKWIY0hqfx0BjHPJ9Oo2WZRQH1RSohQHBweHTQfEbkDt2wcXk2uVfVY1Pk1gZV9XDWGPALEUyTXK23J63bp/ITM+9BvT9TjXqPyNmpJ2X+VGm8SDDAAANtCsggk/DnICe5DyJqu02FFCHusotwIQa5FSpdxfjJM+pVmHr7L4BgO1QUkAd5Bug14u1iSEcbNbY17pXu4fAAAEP5D26gQzK+J0zXriIBlAJbGJJOSqL+IjxWPcQbgjACT1MyIeWnUfU6/M68am0637F8o4QaFtMNH+mlz42ESFB0/aY8nUs29CIwOATZRvu/tLb2MGiCtJJZyEllwThKQJCACASR+TECgDCeZE+R36F/CiDSbKNymVe3E4UfJQqQxlDxHIAIBABgAAAADwCPYgAwAAAAAAACCQAQAAAAAAAPZRupeSKgAAAAAAAACqFH0MAAAAAAAAQIg1AAAAAAAAQB+lSuFDBgAAAAAAAMCDDAAAAAAAAKD6PMgAEGdmThylyoYdkPJexegRauKYsoy/f8jYkeqQcSNzfu7IEcPUkTMm5H0+G55+aZbz4zfcGQAAAABAIANA3pQNG+wI3QP3v54zc0JWQXtCdaXd1zJ86CjuKAAAAAAEIpBL2IIMYCUV5cPVrCkHqzGjhqlDx49Sw7WX94ip4/b/zpHTxkfuunv/tmOoUmNoAAAAAADgv0DGBAD5IyHJM5I8tsLMSeVq5PChKe9NzBCOPOSA0r6jYtwoVT7qAxgzjfIDJr6LFQAAAAAAgQwQAOKprRg9fJ+gTdp7my5uTzhuSiSvf8/fe9XmN9anvPfOu2+rza8/lfH3d/9tj9r8p56+/54z6Wg1d9LJaubBc9SIweWunM9f/vren2mVAAAAABCMQCbGGiJI2dDB+z28yZ7d42cd0vdzUkW5OmT8gZG65i1vrnfEa2/ff7+y63n1yjsv9xO0wo5dbzpHb/4LCaPK1ZxDD1czx0xXSw7/hJoxek7R5/zHbTvVS6++rZ7peUNtfvFNtX7ba2r3u3/fsLX9IhoxAAAAAAQgkAFCREX5B1TFQcPVyA8coGYeOrrvvWRP71EzJkiSp8hcb9fONX0/kz26O9551RHAr/X99+Y/vaL2vPdXT757xtgKNXPcZDXnkBo1Z+ICVVE2reDPetkRwS/t6FWPb3q5Twi/8uYetWXHLho0AAAAACCQAXJRUzVmf7izeH2j5vFNCN8nXvpt388tr293RPC+yOKuF58NZvFBe4iLFcTiFX762dfUK6+9o57YvFNteeVt8QrTqAEAAADAfoFMhDXYwIKjJqq5R1SomiMmqqMPnxiZ65L9vU+8vLbP+7v+pScLDm/2ghFDhqm5h013BPFstbBycUGCWDzDIoj/+Nwbav0AYph+BgAAAABCIZAxAQSBhEovOGaSqptbaX1d3nxZ91y7Wv/KY2r9C0+pLa/tsMvuo8rVwulz1ClVp6qaCYvy/nsRw489+ZJ64o87HDHcq3b0/oXGDAAAAAAIZIB8mVFxoPr8ktlq7qzD1MEHDY/Mde3YvU2t61mt1r+8Qa3butE+u4+tUEuOWlSQl/ixDc+pxza9PKB3OE5MmHeVrOZs9/ArWp0jEWLQvfPhazojeI154digJODz7tX3JUGbc069AbfDtc6P2gF+pcc5x6qItJkOeRb0f3c619Xtod1soc6NZz9i7UT6wxofz1XOs9DV+yrnXHvoczM/z87nLw24f0z04430E6HuJ+q8nCM5ApnYR/CGsmGD1ZITKtWSBUeoGVPGqsGD/1dkrk0yRj+4/adq3bbHrPMSCwunH6MWVs1Tp1TV51V+ab+H+Jmd6lebXsnwG/QXHtOUNlD0DU4ymAclmEHJA9SS9LpF35fmIO6JnjzkmrxVOr9X75xbRwTsX6+P5GeiTYvlDppnbNpJtXOu1cUskORhu9oixDHkeJ4j1DfRT0SYUua74JogHjpY1Uwdq079YKX6cE2VOujAD0Tq+kQUr3rmv9W6reut2UdcrCje/ed31QO/2aIe/+MO9asnX071ENM32EJlQqAlCbOOfDwU4AmJeyIT9mYfhXKT4e81qH3e1ygi19bg2F6egVbH9m00x1i0E5nId/vwPfU0H2/7TufZ7Qw6EgcYTwYWyABFMGPCKLVw9mFq4dxKdfTMishdn+2iOBE+veSIzxqLYvESr/nddrVuwwtqy05KLYVUmMkEo0OLg25MEijVzrFW349GLyd9zneU5zF5r/XL4xYgsni0wrnOBm17noVotxO5z60W2Q4Kf25FmDVjCvoJawUyTiLIh7JhB6gFs/ZlnD71QzPViOFDIneNiT3FK7tXWymKJdHW4qMWqCWHn2+8p3jNb7eozid6VNe2P6Uk1uL5DzV9oafOoJV1LxX4fj8kFG2ph959EQjlef5+HNqGLFJ0ObavYxtCpNuJPF+1Ht/j2jxtB4XRJIuKLGrRT1grkGkfkAtJrlUzfZw655Qj1BHTJkT2OldvblOrnv5FYHWIc7F41olqyZHnGmefTohi2Uu8+69/oyFHeJDTe+YaEQdWCDXxJtd45EluKKBtNMcolHEtIjny7UQWojo9/nzwhxXOUYMZ6CcQyBAaaqrGqoXHHaoWnTRdHTL+wMhep4RQr9xwm3pw6wa1572/Wnd+4i0+v3qxcQg1oji2VGpxIINXK+YI/F7IxM/VTK06jLiQxEGeh6VaRrteoIjlHv0YtJN6rybphFf7jiRea2LMop+wUyCXEGQJ+5h/VIWqrZmiPnLydFU2fGikr1W8xSu7f2JlBmohH2+xlGK656HNWhQnJ9ni2Y4hsje53JlwsLcr+El8g8vJowqduMdNIIvIaVfx9UxFvZ0kRKwXidkaFPhNItSapJP0E5YJZEAUx0QUy97iVc+sVCu77rfSWzxiyDB1fs1pRnuLX371bXX32qfV6t9tUzt6/0pDto+8wjylhIJ6fzW3VhVXg1EmHMoHkRzWUFbj8066L9UFTCia3JrE6xD6QttEpQdi3a/noiFJEFXn8T3Vma7ZeV1X5H2Q81mR6/dM68i6TYTaicnkvs2jz43MuBISEmX0ltpyQvQTkeknEMjgvSiWUORX3nlOzTx4tnFiKFvo2rlGrXr6J2r1pketPD8Jo77wxPONyjP95IEn1arfbFVd21+nIUeItPqCrUniTAaxQrwaIpJ7CV1z777o8MsmZV4Ww83akfUu/H1bCO2fOOdWyaCqJ9KmE7uGMF4z7cSIWh0p41qYta4HW60gkHZLbWT6CesEMlGY8WB6xYHq/Loj8xLF655rV+u2d6rd7/1ZnX/cBWrhlKWhumY5/5W//y9rk27VHDpVLTnydLV45sD6R7zFd6zuVvc98dz+EGqe29iIsw7Zb5enMEuQqDVJllB37odMxpvFps7PtYZ/JhPuoiZ9WpgXG/oZ+hId+tzrnOtoMXwWquNUliRC7SQhenMl3XA71NNENEgYcKUCL2hRMauzSz9huUCm0Et0qSgfps48Yao6p/ZIo0Rbe/7eqx7c3uGI4ofVEy9sVTPHTVQXnXihcdZkW5D9xbc8utLKEk0JYWxiV/EWr/7NNtXVk+wt5nmNsTCTFdt2lZ+Xo93DjMpxvR+djk2l1MUKg1+vdeErTSYzJhP3SJTokK0D2ttXb2j/uCwQRaWdSF/VaXA99S4LZBP7tWkhB+5TScIu+gmbGERbiRZlwwarM+dOVndfs0Q9ePMF6pJPnzSgOBZRLILykp9/Sp3wbx9SV9x/k3rn3T+r7511vbr9nFWhEsdyHR/5z33XYKM4FmF8+8e/PaBdd//5XXXjDx9Rp1z0A/WNHzyaJo4h5sKsxzlqVH6hTTLINWE91+9Fm55E5MKNkM1c96/HcKLSoL0HUaA5j/YfF6LUTkw8idU67L5o9J7MSgP7EY3j7fPaohe/gH7CAoEsDimO0B/VVWPUtRecqJ74j8+q1ktPVUdMGz/gjZfw4ys6G/aL4nVbNxoJOIRx/swYW5HTrhJGfV3bOnXKxT9S/37/JrXj7b/Gu03DQOKsMU+R3MSkI7BJvCrG9klJqgaiTSfuMRHsDRF5BkzFSizafdTaSR7n6VZSLZPPidt+djfpVubh0yswF/2EDZCkK8RUHJhfCHViT3F6zd9Ekqhce2FtFMY2h1Kb2FWE8fd+/Ji6b/3zNGjISyRr4WUawiurxo1YzlVMy5IUs8pu0il3JE3gWwzaQVRCGGXSncuDGJeFoSi2E5PzlOt2I1u/qUAmiVfhNOvxKld/WBuXLMn0E3YzqETxv7D9b/5RE9VNFy4wCqGW7NOtv72sz8N6yapv9mVyTohjKSvUtHCZeuAzvwmVOJas1MvvXmKtx1js+oWTzh7Qri//aZdquvEBtegrd6mfrn+BVp32PzBCBK/pAxD5cCiLKcjuOuwz14S8M6l+qImHplx7ESAiRLidmJ5nfZH2qzd4RjvI41Acuv2ZiqkWxiv6icAFMs0mHJQNK1WfP32WWvPtj6tb//UMVXfSjKy/K/uKf7jxW+rcHy1S5965XP1w/Zp+QvLTcxaptZ9boz59zFdDYwOpYyzCePmPL7M2M/XiWSf22fXCud8cWBhf9mP10yeep2FDsROOfLwnCKNghG9PgZ+fz2p/oj2Y1Eitj5n9o04k24mP51mfj/2gqHsqArnb8NkmGRr9BAIZsnNc1cHq2gtOUI9//7Pq4k+dqA4ZNyrr70oIdSLZVuu6O9SW13b0+x3ZZ/zAP9+rmk7+ds6au7Yggr/PC/79s6wVxrLP+Cf/dLu6rrYto10RxuDRhMM0WVSkB7KoCTTDLM29GSbuJhP5Wu1NCDsm4dM9UW6AMWgnpudZaJRGuYn9qM/rKqZbfRoi0k/RT4SUUqIZ7eSMOZPVBacfkzPZlnhVVz2zUq1+6lcDhhvLftimBV8KXS1j8YTf/MhdKXumbULCqS866bysnnjJSn37qt/3Jd7qg+cN3Me09IhkfS0nVNCVCYdpLcnepJC1fDBa7c9wLzt0W8glGGSy1Bli+5uECwpRzzoc9XZicp4Jkdvmkf3YC+siUjvXeX7Fk2xSXUESdlVhNfqJIBhECmh7jpFDB6vPnzZLPb5imWq95CMDiuOEt1i8qrc+cs+A4lj2w959/n2hEseyz1hCxMUTbqs4Xjj9GMeu/5VVHN+9dpOqu+S/HHH8FO2bNNZeC2RTWJF3hyZl5kHOWxznIb7bMkw+M3kBMk6YQp7Z3DT8MrKLQXFoJ3mcZ6HRMSb9Id5j92k1fDb7aiNjLvqJYAQyc/HAj4qDhvWFUT/2/c/0hVGXDR+S8WZJqPEtT1y5P+GWlGYaiEQ4teyHDVs4tewzzhQibgPiNb5xyZXqxo/+SFWUTev3749vfEEt+Ze71Dfu/J16571/0MbRx35MIk09ZZR7Kn7C0aTMa0sXMrk2KcXRLZ6YIr+zPqT2X6vMswlHWdzEpZ2YhnlW5tmOTKoADGQ/KG7MojYy/YTlAhkCo7ryYHXjF+arzpvOV+fUzcr6e+JNTdQszuUtTgi46067uK/ubiYBZyviFa+7bVFfUjFbkUUHScKVyRu/+8/vqeabHlDLv/WA2rpzFw0c/MQ0vIkyJYULs1otzvJJHlOoQC74c/OoYdkUMvvXO8d2ZR4F0VlgeHuYJr6Rbyce1kQmOVew97Utj3GL2sj0E75DHeSAhPEXz65Wxx9z2IC/J3V+V3b/JC9PqoT9Xr/o30LjMRbEa3z5mi/m9IgHjZTEyhZOvfbRreqK2x9Ru9/9Ow0cgsA0lNTNlfi1jmDx8prapN5zgIIsObGJaUh1+vn35Pmd9Yb3qM3g33MJ+XKb642m2b+QjLaRrc8Zw3ZiWhM5n3sexv3HUetz5bu2G/wetZHpJ/wXyCUlxDP6xfwjK9QFp81Sc48+dECxeOeG7+RMupWOeI2vP+1roUvCJV7jy++/wdp9xoJkqL7+1OvVjNFz+v2bZKf++q3rVHfPG32veZ4gIEyFGKVxvJ9kJhYsChFohSZT6fc7hqKywWcR4IftEzbqjHAbjno7KeQ8Zb9qrcl910neKl2wHxSBLCA696LZsA1KqDX3hH7CNwix9oEz5hymHrhhqbq56aNZxbFko5YwagkxNgmjTka8xtnCfm1FFgIkyZjspbZZHEtd4zuW3pVRHIvXuP4b9+4XxwABYtphIJD9obkA77GEv5uED+ecgOjvNgkPrY5giQ659saoNqw4thMParKSnMsekdyqzBZ4qY1MP+ErlHnykAVHVqjmC04esHaxCONbHr9Brd70aN6fL17j5oWfU4tnNoTKLrKn+kv3Xm61MBayhVTLXuN/vblT/eppHfrOMwR2iAIEsj3i2KuSMz15eEY7DAVDg4pOiQ55Duoi7mWKazvpMJjwy3U0umBDah/7i9yztSb3TXuROzEZ/YTX4EH2ANljfPtXP6L+7V8+mlUci0hcfveSvjJNhYhjCfuVEkNhE8eJDNU2i2NZeLj949/OKI6f2PSiOuvrHe+LYwCAVHGcd2h1MaU4sqEn+CZCsT4iWWK7tTiObGKumLcTk/Ms1/suB7Kh/Hu5W/aD4tEizXRBgoRd9BN+CWRqyrh11FSO6RPGd151lpo769ABhbGIxK4Xny3opkld4598ak2oMlSLp1zqGtucoTp54aFmwqJ+//a9//6dWv6tNWrn2+/S3qnzBJBMwnNZaGIo05XOfL1aphOgsJfokORCNRHPWh3rduJiTWSyV9tJs6I2Mv2EVQKZuXjRx4QDhznCeJH6wVVLPBXGCc+m1DUOE5KI65yVn7S2rnECKeEk+43TFx4kpPqLN/xC/fsDT9Pe0ce2Yho6TYITd+mr5+lM3quKDPszmdAUUrbIdALUpL0OoRPG0nUHme3cwolvlNuJkUDOdo76/VyTd2ofB7MAIm3WdIGR2sj0E94LZObihR8jhw5W157/QdV546c8FcYJ8SaJuDJ5Nm1GQqptT8QlSDIuqRudXh7rmZ7X1AXX3qceenoHbR59bDOmkwUEsnvCbKkzwTioCK9xYtLeYHj/8vZq6Ym+yWTfRDjYQodelCgRYRwXMUM7yasmazaBUG/4bEMw97fVsB0KhFrTT3hKqaIsTd6UDS1Vn5w3Qy07Y7YqGz4kqzC++dFbihLFCT49Z5FqOvnbobKRZKn+0n3LXbl+r8lm37W/26auvPNRtfvdfyieE4iIQHYzBLUuJslSWpMWFjo8COM1mUj0FlFfUiZC1Qa/1xQCcZDw2PfE8BmnnbwvYFsMbNVagA1Nw7iDIg59rkSDdBn8ntRGrieZGv2EdwIZ8uKMmsPURefOyZp8q5is1OmEtbbxljfXq4tXX5ZXqaqguO60izMmOrvnwafUlT98nAYPYcE0nKkHU9kzydQlMVwpxVGkoBCM68h6YXu9r7DFoJ3L7yyNU4ONYTvJNUHPdZ5SbqY6ObpAh+TmsiF1dgNG7plzr1q1wMqFhFp3cs/oJ7yALNaGTB8/Uv3nZXXq/1xUm1Eci8dU6hgXmpU6HUkWdcd5t4ROHMt+42V3XRhqcSwlnBDHEDJMaw8ikO3CNAytYC9JHsmNhCDLIsjEyzRLaj3tJJ7tpIiayCTnCg+thn1BpaGQpp+I33hSNKUEjg5M2bDBqvHUo9QFZx6X8d9FGN+54TtqZdf9ru2zlf3G3zvz9n77YW1n9eY2dcX9N4XiXLOJ46874vhnXS+wDxZCg/aMVBv+OvUj7bpvphOILuf3fZlgyXkFEcIsEy/nuyWTrcnewth4jmgnWSf4JjWRm/OYrPdQX9cO8uwLmnRt5FgnVqOfcB88yAMg4dQP3HBeVnEsgvCclWeqWx+5xzVxnC1ZlO1IMq4wi2PJVP2lb92vfuqIY4CQYbpq3Et21lDeN78J0jsoXmSTyVScPEe0k8wCOdfiSKUOORXxUK1y52kgOZddIlnuh+mCBQm76Cc8EMiSfIgj5ZheMUr9x2WL1P++qDZjEq5EZmoRhG6GEotwu642fH20hJbbXt84lzhe9r9/qh76407avy0HGKFLKZgKBcIHw3nffJ/QBFyiw7RkU1PUS73QTrKKp3xrIhNeHU5M+4LqONdGpp/wSiDDfiQ7deNHjlR3X3+umjtrUr9/T+wzLrZkUzqSjOvGJVdmDPm1mYQ93Nhz7QdfOOnsrOJ46853eAAgjMigaDr4MAG0h/o87pvfyHkF6UUWrxGeI9qJG/1ZoiZyrvPsjGlmdKvR96TZdCyMcW1k+gkvBDLOqn1HddUY1XH1YvXF847PaKgfbvyWqrttketiUMRxGJNxiThe1n5eaMSxhK5fOPeb/cTx8v/zU7Xt1Xd4BnAghw4dNmi6asz+OvsWNmwm6AmN6aS4Vtf9pJ3ErJ0Y1kSWyXm7gXhg8dBekdyqzLZdJDLcM57QT7gjkOP+8InX+CtLjlV3XH6Gmji2f3ZqKVl07o8WqdZ1d7i2zzhBxajyPnE8Y/ScUIrjLa/tCMX5Lpx+TMbQdRHHeI4hpOI4MfEzpRWrWXPvZF+k7Z6O/fs3A5oUy1550/1GLWEN4aOdFI1JG8l1frbXPgbzUOvYZbinn0Age8JxlWNU+1WL1QVnHJdRBEriqXPvXO6JEJQyTneffx/i2GPEztcv+rd+73/9lgcRxxBmcbw2j0GxWyc8ATto4jyNMC31ElXPEe0kN24IW2ofW46OFjC91y0hEIz0E6EQyDGM35TSTV85a3ZWr7HU8pXs1F4lnuqrcbz0rtBlqg6bOJbw9ZvOvLmfnb9+64PqZ79/kThmYqzDKI4rtTiuzuPPGrGcVfcvLCvptUHu6dP7D00jHxrC6KGgnbjSRordOoL3OBw0K/PayLEQyPQT3lIatyfsuCkHq+s/9+GMwlgE4OVrvqjWbd3o2fcjjv3je2ddryrKpqW894OfbVA/636RoQbCOBjKPp58kxK1UtrJKpryuG/NHrUjGXy2K7OkLnK+QS6wSORDg+GEVzxHNbST2LUTk5rI2SA3Q0iQxRCnTbaq+O4zpp/wmUElJSUqDkfZ0MED7jUWr7Ek4UIcZ5l5PNwUKnEsGatrJixKea/z8WfVt1dvVHFp82E+IGUAkpXXtQWI426vBkUoeCJhuj/OM6+WDic1DbmvD3J/rz5XUy9yJEq90E4KEsiFhkiz9SRcIln6AhZ86Sf8EchxaEjTxpWp71/2EXXBx2b3+zfxjF7y80+pS1Z90/UkXFERx2Eq5STUHDq1X8bqZ3peV1etfIxeFUIz+Mlk3zm61L6Q6nw9JBJ6WIclrUI8oSYDQKcPXn/TCVPgJTr0/nlTe0Sh1AvtJP8JeqfH1wf2wJYh+gkEsht84uSp6ifXnaMOrxzT79/88BqHXRxLorIwiWPZd/y9M29PeU/KOX3j9t+oPe/9gy4VbBXETUnHXuett9S+ULLqAj6uTxyTeMbKCY0Vk3Y9Yep0+by9xDQSIgoJu2gn/ghdah+HEN0mqcpAP+E5kd2DPGJoqfru5+erOUce0u/f/NhrHAVxvHpzm2eJyrzi+tO+1s/WLSsf6at1DOAjax2hG8T3JsRxT8SusTHMmbh16RETz6afJWdM925KiY56x/6Bedtkn6hzDp2G51sf9PnSTnxvHx3Od4tN8plohbE/oc/dR6sy96BGDvoJz58HyU1QNSiKCXCrKw9Wv2ypzyiOu3au8cVrHHZxLHa64v6bQnXOUu944ZSlKe/d+6s/qp///kUSQ5PEOg6IgKjBK2IlpqvmbX55/vXkt9fl8/d0wp7H77bQTmLXTvIRc71hXECB/W1S2mOc82vQT/hA5EKsP1d3hPrPf/2YKhs+pP+S028vU8t/fJmne42jII63vLlefeney0N1zhJanV7v+JXXdqn/d+/vGU0gDjQ7AxRh1RYyYd5VEiZvuofc70m7aahirb6OICfFPXmIoMqwJeyinRRNPjYhOVf4RbLcw9hlIKef8FMgR8TlNGLYYHXbJbXqovq5/S5yx+5t6twfLfItXFjEWljFcV/4+S8v92URwU0yhVZ/4z9k3/H/4I7FhRxlEl5j9mTZi+lqeWcAJbk6PLgOTxeClLmXoiVkCbtoJ8UJJrFJtwfXA/YSx4Rd9BO+CeQIMG38SHXX5R/LGFIt+2jPWflJ30oU9Ynj824JpTgWZG92mMo5CZK1Oj20+s6f/0H9/vk3GT4gqsjAt1R7jSl7YSm6pIU1yVQyiIqePL438BIdeZZ9ElbQTmLVTkzOsZs+MxrodhmbUGv6CZ8Fsvhqwnx8rPpQ1XHNWf1qG4snVMoTyT5aP72hIo5njJ4Tyofvlieu9GVvtttcv+iGlNcSWn3bmqdV2Nt2nA/IioSViSiuYQ9dKDCdzPiZTCVTmzLBihIdOlrCdJ+9hPI10E5i005MzpF+M1oiOZ/+gPGEfsJcIIc5DPOqT8xR1zUs6HdRsod2Wft5vpcnuu60i0MrjiUp162P3BO68/7CSWerirJpKe994z9/S2g1IdZRQiYAklG0xDnkZycmCQ2m+2Dbgto/rtuT6QSzwaJnwpQW2z0VtBPXztFEGLD/OHrEJdSafsJXgRxCpITTfzefppbMP6Lfv0lt42V3Xeh7mLAItcUzG0L5xIm3PWxJufrawZBh6p9mfznlvQefeFZtILQawkkiM2ffoQWxHM1hLnEUV3SSKFNhFrRXK5/kVzZ4kfNJ0GN1bWTaiesMZKMOEhlGDy3KIh0ZQD/hPyXHNv5gb5gaiew3/s6FC/qFVAuSpTqIur2LZ52orqsN7/z1kp9/KpSh1bIoceHcb6a8d3pzh9r59l8VhJryDf/+T29jBgAAAADwm9IwRTPOO3yCuvaf56kRHzgg5f0+D+h9y1XXi8/6fk5Szql5XngTyP5w47dCKY4rRpX3E8e33N2lXt31VyJ0AQAAAACgMIEclpQ4Hz1ukrr2c/P7vS/7jS9efZnascv/qBkJ8b3pzJtDm7Fayl/d/MhdoTz3C088P+X1nr/8Tf34N9sUKZ4AAAAAAKAIgWw/V358jloyb2a/92W/8eX33xBYzd7vnXV9vwRRYeLyNV8LXb1jQRYm0vd733n/k861/IMnGgAAAAAAihDIFjvcRgwpVZctmZ1RHEtocOu6OwI7N9n/WjNhUWhvvNgviJB0Nzi/5rSU133e499uw3kMAAAAAADFCWRbNYWI4xWX1KqZk8f0+zepb+x3Cadkag6d2m//a5gIc2h1pszVK3/5pPrze/9AHwMAAAAAQHEC2caMRuMPHKb+X8M8NfOwg1PeDzIZV7JA+96Zt4f6prf++upQhlYLp0yf3W/P9z7vMfIYAAAAAACKFciWIWWcvv+VUzNmql7Wfp7v9Y3TkX3HYU3KJXTtXBPKrNUJLjz+aymvV/16syP2/4cnGQBix4R5V1VKt65S62NKDcxG6r0CAAAUKpAtcrxNG5dZHEum6mV3XRi41zPs+46Fy++/NrTnLiW10pOi3fbA0+w9BoC4siJNHHc6wngpZgEAAChCIJdYoi7Ec3zbZR+xVhyLOAvzvmPhlieuDKQcllucX31uyuuuZ15Rf9r1ripBIQNAzJgw7ypJ5V+b9Fa3cyCOAQAAihXINmgL8RxnEsdBl3FKIPuOrz/1+lDfaAlRX9l1f6iv4ZSq+pTX9z26He8xAMRRHEtodUvSWz0ijgmrBgAAcEMgB8zpx05S3/zsh/u9v3pzm7ri/pusMNJFJ52nZoyeE+obffPj14Y2MZeweNaJKXu/pbTTr5/ZyRMMAHFExHGiQ+zV4rgHswAAAIRcIJ8+2xHHn7FbHEtJp08f89VQ32Qp6/TD9WtCfQ0Lq2pTXj/Y/Zwj+P/BEwwAsUKHVieH04g47sYyAAAA7jAoqC/+aAjEsdA8//LQ3+RbHr8h1OcvIe4Lp6Rurfv1ky/z9AJA3MRxemi1ZKvuxDIAAADuEUgd5Hkzx6trQiCOJWt12EOrxXu8etOjob6GuYdNT3kt4dUPb/kTtY8BIG4kh1Y3O+K4DZMAAAC4LZB9Zuq4keqaZSdbL44rRpWHPmu1EHbvsbCwal7KawmvBgCIIY2UcQIAAPBYIJf46IWbOq5M3Xbpon7Zqm0Tx8L1p30j9Dc3Ct5jYc7EBSmvf/3UDlWC9xgAYgZZqgEAAHwQyIjj/kjG5JoJi0J/c6PgPZb60xVl01Le+/1zb/DkQmBMmHfV3iL+XJIpdWix02rpOeairtB9rzrB1Aqfb1mbc76NLtupUx+e3se0c21SqfuPs16Xy21HRHmN21myM7SF5mJsqfdnS/Iy+dmQ4Vc69PPXVuhCQ5ptOp3PqbO9jRteV3mSzaSdlWf4NbFZ4v502JQ13fY+Oej+2KTdhmTsNWmniee8s9jkhbaNo370cTaOSUGN1b7UQe4Tx5eEQxxLQqjmea0q7Ejd4we3bgj9dcw57KjUkWzzTrXnb/+g/jGElWp9SIffkpic+SWywDVq9ZG4j21a4Hk5KUmfEDU4393qg1Ap14LPykm1Y4NaPVmuzfGr9fpocf6mQ9+vWJfG0hPc+kSfZNAOEpNhsWGPnhCHve+iTw5HO23QwlAZPufyd32LOmG/lxb3cUGNSb6M1Z5nsR4xpFRd86kTQiGOhfNrTkuptxtW7tzwnVDXPd4vkCd+MOX1+i3UPobICWYZzPbqSQCEE5kovOXcw3qPJkj1WSaH9T5dX62N7dM5p3bnx1qDiWMmu2336n6FQXA4x1ta8FYX+DGVEe276JPtbKeVBXxEub6Xb+nIjjDawMo+zoIxyfOxepBs5fTqKBtaqlZctFBNP3R0KMRxVBJz9dn4qV9F4jrmHpLqtNjw3BvKyzbLYccRU2Qg365XiyGctHs0Ecv2mX5O4Jt0iJ8tE8cuFyZj7XESQc61Vmu7JWdDd6vv6pLPp08GC9tpXxSM85lrdZh2WOxgcx9nw5jk6Vhd6mWs6g3LTu4njre8ud5Kcdx3Vxd8KRrieHOb2rEr/LlcZMEi3Zu/4QVZTCS+GqzBeD9X2v6pbOFi8p4M4s0uhoVZs+dMlyXKqzSRTGpU0uq58xklQd7LpPtYnmUyIBOx7mL3vyVPFlWq96AtqR2VyyDvU7knuV7xZtRYMHGU88gkxhL7SVP2yCbds0zhxCKCXNt/amsb1x6T9gF+JbF/sTvT3sikdlidZdIu74tIXur8fQd9sv39saWisNh2muibWzL8ba1uo3UFhAH7et9s7uMsGJN8Gas9S9J1xbnHqeqZE/qJ42V3XWjlQ1lz6FS1cEo0qmesevoXkbiOOYcentorbCa8GsKL3vOSGKBa9SDToDKvxMqAVulVwgtw7T42O/dpRYZ7KJMztyZTyZ/dI21Ce7QSk/n6fAVZHvQkiYQ+ESTeiCD39OkJdLpAk3vSmE2YJd2zVv33K1SqZ6reeb8tqlnCcyQOMxJ+ehLZnfSZTVlESLvLC3z0yfERx26007ak+9mghVFlhgWPOltzEISgjwtyTPJtrPZkD/J5H5yizjxpesp7UnJIxLGt+2IvOvHCSHQwYueuF5+NxLVUjByfusDy0luMIBAlodWtJ1tVSmdRTR+EdFIJsPs+yj1sTnu71o1wU70CnjxRakv7mfgur0JAezJcW0vAodZNGSaONaZeS/17NUniXzwxNTEUx2KHgwoVsvrvDsoyEW4J455P+uRotVMRy85RlaGNVir/M81Hoo+zYEzybaweJPVk3Tw+euwh6ivnHZ/yJZJR+eL7LrJWHIv3OAplnYSVG2+NTIc5d9LJKa+37ehVbrdXDjuPmAksWYGV8JVMISxNJIoJxT1szTChdmOCkAgPG2gyopSHiVH0ZCv9+9oDmkSLLdInM435eoL074vXoFk/e1EVHdVZhICEQS8tdsIsf68nnZlsuCKse5LpkyPXTtOFUZutYe4h6OMCH5P8Gqtd9SBLOaevLJ3b7/1l7eepLa/tsPbhjIr3WFi3dX1krmXmwXNSXm999R1GEoiyyOpQmUN9WmxKjgRZSR903RAHDWmTut6EMEmbkDR4nHxGJpfJE7TqgERC+kSmu9D9rloERb2UT6aFjDq39wgP0He1h9l49MnRaaf6WW/VotvmMHnb+zhbxiTPx+pBffmOXDhGDCtV3/rsh52fqeWcruhssFocL551YmS8x+uea49Eci5B6lGnJ+h69rXdyq32ymH5EV+R3JllQrZCge2kJ4wpanKQoYxGR45BvsHDdtmrModa++0hLM9hc3i//aTvvRQaMyU2crHvSvdUVYbd20qfHJ126nxmc8AJ5ELdx9k0JvkxVrvmQb61cb6acPCIlPdueeJKtXrTo1a3xAuP/1pkOpp126MzV5g5bmJqx/bGHkYSiJNIzrRPhlIjdt+39NXJYj1M6YlQOjO0kx6/JiNZQq2DFgk9tLyME9lMWVvbvM52rttIuseqKUyldeiTo99OQ4ZNfZxVY5LXY7Ure5CvOOe4fuWcxJt56yP3WN3qZO9xRdm0yDxFD27dEJlrGTl0eMrrHW/uZm8ue5DjJLZaMwyM7Huzf7KXTG8RnyUDdnoZjUwkv1+pV/i9JOhQ63SbltPysk5ky9Ps1uzTd7em3adyZa8niT45vu3UVqzs4ywekzwbq4v2IJ92zCHqjBNTRaaUc7r8/husb4WR2nv8XLu1SdAKYcaYqpTXW8lgDfEj3RNTy743q0n3JhWz8t+UNngPNBnpTZtweikSgg617kEgGwuPlL7EryzdaaVVfGmX9Mm00whhax9n5Zjk5Vg9SIm3psBj6viR6ivn1qR8YF/G6tWXWS/WopS5uk8gb4/WVqyRQ0amvN797j9UMW2VI2QHJOo5pnfc9VgmNJO97kI+JEMZjY5sk0b9fkfahL3a43YZWKh1ei1eZXcimEDQ978yw6TVT/qV1QlrRmv65Ei3UxvbmHV9nO1jkldj9aBCc+iUDS1VNyw7uV9Sri/dtzwUiaLOP+6TkXqoohReLcwce3TK622v7iJ3lSJHVwzxIjMyuD+BkNX19FXpQlcts5XRMBUjfqzYZwq19qs+bPL1liuSJaWT3g47/PbKZZgkZzov+mTaaaDt1GJs6+PCMCa5PlYXnMX68nOOy5iUq+vFZ61veRWjytXCKdEpfdi1c02kwqszsefdv6MaUchxpJvJmNXCuNw5ZPKSLg47tSeg0MmI8efof08e4Ou99jhkCbVu8sNToL14HWnXuxZPctY+ojug84hq30WfHK12ah0W9nHWj0lejNWlhcxGl86drOYfe1jKe2FIypXgwhPPj9TD9OD2X0aug6gYMSXtHZQTxJL0lc1C9rtJiNNelwbu2D+Ees9hotxFtpXxxgI/u1YNXEYjG/J7iVXxRFIkT2v8Sqi1c75taTaQeqZVPkwgl8qEMema5edbznsi2tti7omqtER4dEZUSBbbJ9Mf29VOrbxvtvRxYRqT3B6rS/P9wqqxZepzH00Nf92xe1soknIJUl/3lKpobRlZ/8JT0RPIadnF//AiSbogfsgg6HTyvSopvEk6fed9ytvYOwFqLOL+pCRCMS13Ir+nQ5wT7cSvyUizngQlJlCy17RF6o368GzU6WtOtpm8lqRhImI6deZhBHIw9BQpJOmT49VOsZ+dfZyNY5IvY/WgfPLmyL7jq86b02/f8cX3XRSaEN8lR39IjRgcnUgsWZzY8tqOyHcU5K0iR1eMYV9WeGgstIZnhjIa+U4mkn/fl/IaQYZa6++X75ZMoZn2u8okcq9zdMm+sxiFYJdnuEeBCEn6ZMijnSKQLevjwjgmuTlW55XF+jMLZqhpkw5K+QDZdxwmgXb+MV+I1MOz/pVfxaOXQDWikAHsRVbzawoVx5r0ELCOPP++I8fneTWBy5TVut0vQSr7xyQcUYctymQy0x5R8WS8pffxNdBcg4F94gCh6uNCOSa5NVaXmm7rPNYRxh9fcHjKe5IcKiz7jgUp7ZQeuht6gfxyV0wEMp0kxJZiJ5UShlWHGV2nRwvDYhJyJQuH5MlDR74eFfl953NkQpJYpa/1MfSzX6i12hea1+znDdHhhq1J9qxVqR6QWm0XOTfxIHTSjH29P1HxvBbTJ9MfhxMr7ptffVwExqSix+pSE90xYkip+r/LT0p5T+odf+ney0PVupcceXrkntj1Lz4TuWuSfeLoY4D9gxShaAFPgDLsA2t1eZ9tvmU0stGmUutVNvghUvW+TPme9qS3JeSvMwgRqoVYqz4SpT0a0gS8eFpa/dgv7TPp+2PLgxCmUfUW0yd71k7Zx21XH2fzmOTLWG0UYv31s47rt+/48jVfDFVpIRFdi2dGK7JK9h+HoeZ0vswcNzHl9baX3yLkmBDruJJer48JRDC0ptne7X22yYNTT6GiUv9d8nk2+BjqnCnUeoUNQkm8Ls4h2bUbVer+0SYf6zf7hS3JsaKahIk+OVrtNCqC2e0+Lqxjkmtj9aBcv3DS1LFq3jGTUt5bvblNrdu6MVSN55TpsyP3QGx+Y0MsHvzdf/k7vR/EFWpF2jH5yJSMqt2Nz85QRqOtyI9M/nuZiPiZGKU5bXKSCLW25T6KbWoyTKCiVNqiJ4egC0pIRqXvok/2pp1ST9qSPi7MY5KbY/WAdZBHDPlf6spPzE15T7yWLetuC12jOX/25yL3IKx/5bF4PPEl+/8PIG7UMxmzZuLRoUtrJCb+kpWzyYUyG+kCssVlr2aTCxMc48lJllDrbu1htuE+yr64pc5/JifwEHt3RKSpdqf1G0EJj6gKSfpkb9qp9KutmMWKPi7UY5JbY/WAZZ4uP3t2htDqr4UqtFqoGFWuZoyeE7mHYPOf4hHZUzZsMFHHRFjHDp2JMj3srAPLBEpjholDZRH3OL2MhhdUao+AbwsJGSY/LTbtSdWJWtrSbBQVL3J6KGS937bX31eb47zok+NNenuoLaYvBXf6uAiNSUWP1VlDrI+ZVK4+PCs1tPqHG7+lul58NnQNZeH0OZF8AMJ4Lwq5rmmHHERvB3EkfRW3kyQmgU86xP5uhlr7lRjD7wQcmUKtbdvrmz5Br45IG+1W/cNX/b7/6Ql+eorN9E6fHEkBl267eiwTeB8XiTHJjbE6o0CWrNXfWFqT8p6EVt/8yF2hbCFLDv9E5Fr9ljfX8+gDRBSdkTJ9tZPwMzsmdulJQKr1/cr3Hpf7OBmp99M7k2UfWINlXtr0yXmUsi6ne/Cb/PIi6+9pynE+9MmQrZ3iRQ6oj4vamFTsWF1akiGesf74SjX+oBGpvcCvrw5daLUQ2fDq1zfE6ikvIe4W4iOOJfQo3dvWSc1Wq5DwrbVpE7t860TWp01Y2py/b3SxHa1Im+zU+zmh1/vA2tLOoUWXfrKx/EKUJuZtWqSWJ02MW1T/sEMvaEpr171hF8j0yb6306WYJpA+LopjUsFjdT8PctXYEeqzHzky5b11z7WHLmt1gqiGV7/yzss86gDRFMdrs3TyYAl6YpyemXNFAUIifbLo9uRTpU0M/PaSZgq1XmHJbYxqGaLkGqnJeO7B15+f3q5bLV0QoU+2s53WFxKRk08bjWqNbhf6uMiNScWM1f3qIF9y+qyUX9jz9151+f03hLZ1RDG8Wlj/0pPx6knJXEWWruiL4/osE7Fm9rlZiUzskif+tTqJj+mkO3ny0un2Hk39eZ1pEwNfQ5yzhFrXFyvUxM4uhOelJ4npjVLjzBBeKLR7lRxHf276Hr8eF7K80ydHm7YM7bTFi8UcXQ9X2uh225Py+d3HRXxMKmisTslifepRE9TsqeNSfuHmx68NZWi1ENXwamHHrjcj3WPKnvdkJLIB3Yg+jqgwloyO7SpzAonWME8wo4yeILdmmNiZrIinD85eZcLtyPG9ftgpU1brFarAPb/6WVmhikiOpieD6baIYrmeTKGqa90WBwMIyVCGytIn+76IlqmdtLvpSdbieG2SMGv30lNd5LkG0cdFdkwqdKzeH2I9fEip+mxdami1JIL64fo1oX3w5hx6eHQF5K5eFWV27Hku5XXZ0MGMJBA1YVyt9+RsV5lXUWX/TzOWsnpy15o26cgZvqW9Asn3u9eryYhzfm0qdeW82s+ST0mkh1pnSuRk8rwkPyvyem2+IXra/ukTT7FRZwTbp7TNxizio92N8Ebdh2WayDeGLXM1fXKg7TSTXVvcaKd6AadLpS7Kddi20BFUHxeHMamQsXqQEm+Nc9TPnaLGHzQ8tWU+dH2oH7qFVbWR7Exim8G6hCM2RzQFcbmsWOtjux6ws62eNruZHAM8Jf0+5Qohbsgw6fZyxbPfHr8AJsCZQq3L8/yMTGVhZJDvMp1gZZko99kozPtkDSakmfoSscVbhXrRdD+2N0sf1qy/lz4Z8hEwzQO10wKEYm2WSIBsC0c2LBQE0cfFZUzKa6wuldnouJFD1dKTp6b8w+rNbaGvszv3kLpIdiS7/xZt77Hwzrtvp7yuGjdSbXz5bUYRsI1aPUl0CxkcG13Ojur6OTrnV8Wtf39SY5qtOUsZDa+FhHgCkjPwyt62Zr8Foc5qLROjYsIaJRRTwiST63mK90O8LPLMdKZP7pK8I/Uqcx3Q7qiHzIpYdezQqzJ7eqWttuh20rdHMJPnV4eo1mobDjShXarD6umT7eyP3fr+OrezeMtz6JybUplrprfotppop92Zvl/vLU30s5n28HbqNtpr6X3ztY+L05iUz1i9TyCXKLV83nQ1YtgB+9+UxFwt624L9YBQc+hUNWJwNBPVPfHSbyM/6dz8+lNq4ZT3t6WMlPZJpSeINs3sbQvvvVOpJTIqVeayOullNDq9TvYjn68nlcmiRiYIQbS1Vn0elQVei0xiaiTsUPVPQFOrjxY9yTZBJtp1cWigeoGiRu0LK8w0iU5MsFUe9ku3ZejCqumTrWunIpK7dTutdLmdttoeIh9AHxe3Mcl0rFaDjjmkXJ1eMznlzTs3fCe0ibkSzJl0ND1NhBhf/gGMAFGkW0/CSpiIhXpSlymEuCFDWJzfK/UJ0j16TQHaqdGFz6lTmcMx80E8MXVRDa3OYjfxJNVo27l53dKH1UREHNMnB99OO7V31S0x26Of9eYQ2cCvPi5WY1IeY7Ua9JkFM1LekOzBK7vuD/0DNnfSyZHtPOJQ4in9Gif0CWQ257IJORqTr6QJWA2TsMhM6tpU/yQoKxKlOvRep2TPXa9foaj6e1KSZAWVwVWHRba68DnyGVUFTOjkGZQQy1iJ43TbOcdBui8qVNT2RERI0ifb3U5LVP8kf6b06vta5XY4uF/X72UfF9cxKddYnaBkr0PyG1d0NqjVmx4N/YO16ctPRbbTWH73ktDvD8+FhMjffs6q/a9ffesv6rzvPciIEQ/KH77qDDacA4AxenKVLTt2otZqZ8RCgN2yXfI+xIQdM4mNhHDsoA4wBNBOk7MtZ2uniX263WEUxfRx9pAikCU78rl3Lo+cuIoaJ9wyJ/Qh8CakL3LMu+ZnPLGxEcgfQyADAAAAgO+UJr8Ie1mnBFHffxwHcdx3nX/vTUm0VjV2hNr++h6eWgAAAAAA8IRBif/o2rkmMmG7Ud5/HCc2v5Fa73n4AaUYBQAAAAAAPGO/4rj50Vsic1E1ExZF9obJQkZceGXX8869fP/1cZNHq007iLwFAAAAAABvGJQQXVHxHs8YW8FdjYpAfufllNfjDxyGUQAAAAAAwDP6PMhR8h7PHDeZuxoR+ko9zX3/9YTy4UqVlGAYAAAAAADwRiBHyXvcJ5DHTI/0DXvn3fiEGO/Y9WbK62MrxyjkMQAAAAAAeCaQo+Q97hPIY6OdwXrz60/FpnHu2NXbP5P1mDK1/Q0yWQMAAAAAgPsMipL3WIhygq44kp7JunJsGUYBAAAAAABvBHKULoYEXREUyK89mfJ6+viRfduQOaJ9AAAAAAAEQaQKy048cAx3NGoC+fWtKa+njh/l/D8KCgAAAAAA3CdaHuQxVdzRiLH+xWdSXh875WCMAgAAAAAAnhApD/LcSSdzRyNGpkRdRx9Srja98jbGAQAAAAAAV4mUB7nsgHLuaAR54uW1Ka+njhmBUaLNPzABAAAAACCQi2TG6Dnc0QiSXtrq2Cmj921D5ojk8eC/nkodLwAAAAAIhMiEWJPBOrqsf+lJpea+/3r25IPJ0xVddmECAAAAAEAgF0nZ0A9wNyNKeq3u4UMHq6rRI1TPmzgaI8gfMAEAAAAAIJCLZM6ko7mbURbJO9eomgmL9r8+elK56nnrzxgmejyPCQAAAAAgKAZhAggDT7z025TXsw8bjVGiCR5kAAAAAAiMyHiQKfEUbdL3IR87+WBVUsJGZAQyAAAAAIB74EGGUNB/H3KpmjXxQAwTMdZ+bdFDWAEAAAAAEMhFkrw/FaLJuufaU14fewgCOWJsxAQAAAAAgEAGMGD9K4+lvD5pxvi+MGuOyBwP0coBAAAAIGiB/ELYL6JiVHlsbtjEkYfEtrGu27o+5XXVuJFqbNlQnuLosAoTAAAAAEDQAjn0k9KKUfHJaDxx1OTYNtYdu3rVjt3bUt47WsKsJVkXR9iPXWu+WvcQXTIAAAAABC2Q78AMEBbW9axOeX3StLGOuFIc4T/wHgMAAABA8AJ505efkrIqoQ6znjPpaO5kTHjw2dR6yCdNH6dGDCnFMOEHgQwAAAAAwQtk/fMOTBEOKkZMifX1S7mnPX/vTXnvqArCrEN+vLDmsloEMgAAAAAgkCFPgVw2LfY2eHB7R8rrk6vGEKEc7oP+BwAAAADsEcibvvzU886P1WG9iDhndo4j67Y/nPL6pBnj8MKG+0AgAwAAAIA9Alnz3dAK5Jhldo5TWauMAnnrxpQw6+FDStUHp4zGFRvO4wcPXLrwebpiAAAAALBKIG/68lMPOT8exiRhEMijY2+D9DDrjxwxAa0ZzuO7PNEAAAAAYJ1A1lyNSSAMpIdZnzhtrBoxZDDhyuE6Hv7lJQv/QGsGAAAAACsFcli9yGUHxCvkeOa4SgRyWpi1cPzkg3iiw8WlmAAAAAAArBXImqvDdhEzRs+J1U0rO2AELVdlCLM+skKVlJRwhOP4wS8vXoD3GAAAAADsFsjai7wa09gLWbv3sbL7Jymvj55UrsaWDSV02f5jl3NcTQsGAAAAAOsFskZCH3dhHksFcsyydmdjy2s71I7d21Leq5OST2A7373/i/OexwwAAAAAEAqBrOsiX4157CRue64HYuXGW1MF8pHjSQ1t97HREcf0LQAAAAAQHoGsRbKUX6Hsk4XEbc/1QKzbuj7l9biRw9SsCaMcHcb/LP3fMlotAAAAAIROIGtkMkuotYVUjMKLLOzY1avWPdee8l5fmDWeWhuPa35x0YdJzAUAAAAA4RTIOtR6GWayUSCPxgiadds7UwXykRPUiCGlJMOyrObxLy788NW0VgAAAAAIrUDWInmV8+NGTGUXE0eNxQia1Zse7VcTuXbaWBy29hwvOMcSWioAAAAAhF4ga5EsWa3Zj2wRFSPHY4QkVv3xP1JeLzn2EJSpHccu51jy8y986G1aKQAAAABEQiAnNIdzbMRkdjBzzFEYIYmV3amlu8eOHKo+eOhBKNTgj0t//vkPse8YAAAAAKIlkDd9+am3tUgmaZcFTBw5BSMkkSlZV+2McWz9DfZY/vPPn3wHrRMAAAAAIieQtUh+3vkxH5EcPJR66s/qP6Z6kU+oOliNHTFE4cUN5Fj+s0bEMQAAAABEWCBrkfwHRLIlInlsBUZIYt3WjWrH7m0p7y0+ChsFgCOOT0IcAwAAAED0BTIi2R4mHjgGI6SxcuOtKa9rZ45Tw4eUqhKnpXN4fuxyjtmIYwAAAACIlUBOEsmTFYm7AmPGmCqMkMaqJ3+TUvJJxHHtNFlIIOzZ48PpB0qO/ennTiIhFwAAAADETyBrkSyJu+Y7x2pM6T9ksu7Pnvf+qh7c3pHy3uKjJ2IYb7nxp5870RHHJz6PKQAAAAAgtgI5IZKdQ7JbX4M5/YVM1pm55dGVKa/Hlg1Rp0wbo0pKSjjcPV5wjgWOML6UVgcAAAAACORUoXy18+Msxb5k3yCTdWak5NPqzW0p732y+lCioN09bnSOY+/75xMeosUBAAAAAAI5s0hepfbtS/Y15Lpr55rY3sCaQ6fSijOw6ulfpLwWL/KR40ZimOJ52DkW3PfZEy51jrcxBwAAAAAgkAcWyYmQa7zJPjBzXCVGyEDXi8/2Wzj5VPUkwqKLC6de7oji+c7xEC0MAAAAABDI+QnlhDf5RszsoUA+eCZGyMLNj96S8vqoCSPVkePKMEx+vOAcy1d/5oOTneMOzAEAAAAACOTCRbJ4kyWBj2STItO1FwJ5zGyMkAXxIu/YvS3lvU8eN0ntLSnhyH2sdo6zEMYAAAAAECdK/fgSRyQ/7/xYMus7R813fi5zjgvc/Px33o3vVkgSdQ3MLY/foK6rfT9hl3iRZ40rU0+9thvj9Ee8xSKG71i97PjnMQcAAAAAxI1Bfn6ZI5Qfcg4RyOJR/oFyaY/y5tefivVNJFFXdlZverSfF/nMI8djmPfZqPaVaJvtiOLJznE14hgAAAAA4kppEF+qPcrLZn3nqAOdn0v0sZjbURiSqEvCiSEz6V7k4w87SI0ZPlS9/pf34mYKWZD6g3M8lPi5+oK5ZKIGAAAAANCU7N2714oTSRPL851jlOnffuGks9WFc78Z25u47rl2dcmqb9KaB+CBf75XVZRN2//62df39Hz1/md+FtHL3ZD037Jyskd+rvqnOXtoCQAAAAAA2fn/AgwABpAt2kUjKlcAAAAASUVORK5CYII=;opacity=70;" vertex="1" parent="1">
          <mxGeometry x="41" y="10" width="263.41" height="80" as="geometry" />
        </mxCell>
        <mxCell id="r_zC4A2iQhUERC9B56iK-13" value="" style="shape=image;verticalLabelPosition=bottom;labelBackgroundColor=default;verticalAlign=top;aspect=fixed;imageAspect=0;image=data:image/png,iVBORw0KGgoAAAANSUhEUgAAAlUAAACWCAYAAAD35X2BAAAAGXRFWHRTb2Z0d2FyZQBBZG9iZSBJbWFnZVJlYWR5ccllPAAAAyVpVFh0WE1MOmNvbS5hZG9iZS54bXAAAAAAADw/eHBhY2tldCBiZWdpbj0i77u/IiBpZD0iVzVNME1wQ2VoaUh6cmVTek5UY3prYzlkIj8+IDx4OnhtcG1ldGEgeG1sbnM6eD0iYWRvYmU6bnM6bWV0YS8iIHg6eG1wdGs9IkFkb2JlIFhNUCBDb3JlIDYuMC1jMDAzIDc5LjE2NDUyNywgMjAyMC8xMC8xNS0xNzo0ODozMiAgICAgICAgIj4gPHJkZjpSREYgeG1sbnM6cmRmPSJodHRwOi8vd3d3LnczLm9yZy8xOTk5LzAyLzIyLXJkZi1zeW50YXgtbnMjIj4gPHJkZjpEZXNjcmlwdGlvbiByZGY6YWJvdXQ9IiIgeG1sbnM6eG1wPSJodHRwOi8vbnMuYWRvYmUuY29tL3hhcC8xLjAvIiB4bWxuczp4bXBNTT0iaHR0cDovL25zLmFkb2JlLmNvbS94YXAvMS4wL21tLyIgeG1sbnM6c3RSZWY9Imh0dHA6Ly9ucy5hZG9iZS5jb20veGFwLzEuMC9zVHlwZS9SZXNvdXJjZVJlZiMiIHhtcDpDcmVhdG9yVG9vbD0iQWRvYmUgUGhvdG9zaG9wIDIyLjEgKE1hY2ludG9zaCkiIHhtcE1NOkluc3RhbmNlSUQ9InhtcC5paWQ6MDg3RTYyRjlDRjg2MTFFQkEzRENFODFEMzQ3RjU5QUUiIHhtcE1NOkRvY3VtZW50SUQ9InhtcC5kaWQ6MDg3RTYyRkFDRjg2MTFFQkEzRENFODFEMzQ3RjU5QUUiPiA8eG1wTU06RGVyaXZlZEZyb20gc3RSZWY6aW5zdGFuY2VJRD0ieG1wLmlpZDowODdFNjJGN0NGODYxMUVCQTNEQ0U4MUQzNDdGNTlBRSIgc3RSZWY6ZG9jdW1lbnRJRD0ieG1wLmRpZDowODdFNjJGOENGODYxMUVCQTNEQ0U4MUQzNDdGNTlBRSIvPiA8L3JkZjpEZXNjcmlwdGlvbj4gPC9yZGY6UkRGPiA8L3g6eG1wbWV0YT4gPD94cGFja2V0IGVuZD0iciI/PmGnMbYAAL0CSURBVHja7L0HlGTHdSV4v8nMyixfXdW+0Y028I4ASdCDoBWdKIkiRZGSKInye3Rmd7Va7a7mnN3ZOTO7Myvt7uiMpBlJlEgOtUOKEp3oQQsShnAkXHcDje4G2lWb8lVpv9t4ES/yR/76PzOruhpkA//xBLuQ+fObiPgRN+57cZ8VRRFeZGaLMi7KdlE2ibJPlCtFGRNlWJSKKGVRBvlvKgVRLC6hKA1Rakapc1kUZV6UY6IcFWVOlGlRFpBbbrnllltuub2gzXqBgyoCUHsYRFGZFGWrKFtEGWXApL8bEKXIACpZHF1folCF+aJ4ieIz2GowsJpjoDXPwOq8KLP8OZWTeffLLbfccssttxeOuS8wAFWCYpnKDJiuFeVWUXZwIYC1n4HS82krojzDQEqXH4rytChNxGxXi0FbbrnllltuueV2mdkLiaki5ukaUV7B5WooZmoAnaxT8cdwbxEDJpPZIkbrrCgHRblPlPtFeYpBVm655ZZbbrnlloOq59UoFup6LntE2QYVI0WlfJk8wxIUi3WUQdZxUZ7gMp130dxyyy233HLLQdWlMGKaiJGiIPIrRLlTlLeI8uqsH9DzRS0PliUe1nUB2+74Pggj+GEI8Y8okSz0WSD/5d8nK42KOKFrW3BEsS0q4H8tFBz17zqNWKxvinKXKPeKckaUZQZfQd5lc8stt9xyyy0HVRthxEx9QJQ38t8ErobQhZXymk1UjxxDyXVQ3rldHD3IsEjZ+eU6phcbqHkeVloBlpseFmotzNZbmG8GqIniCdClf0G1VRDAbLDoYHKwgMlKCcOlAoaKLoZKquwYrWC8clFexipUHBbFWh0S5SuifFKUmbzL5pZbbrnllttPpl0OgeokdUBMFMVL3QwVL3Wgb9RYW8Lsx/8MpcBG+Nb34eGrb8azHlCfPo+lFQGeZpaxsFhHyw/QFKCq3vJRE2VF/HfNj9AMQslamaDKsSyUHBvDBQdDogwYpVRyMD4+hE2TQxgfKmGqXJBldKCAHSNl7BKAi9itHjbIRQPJnaLcJMqTUG7Be6BisnLLLbfccssttxxUdTXy0Y1yeZMovyLKa/v5IbnvasQ4eQHOhcDi0VMYvuufMF6z8GTpSvzpwgTuWw4QHnpKwJIAEMAKTU/BJXKuEXNHrjvHUq5CO+NCUlhBXCCI1H9YfNf023IRGB4QsKiIXaLsHRrAVgGwrt8ygpt2TeCKyWFsEv+tAJmNcsFFD5h1ExeSbfg6lL4WBbaTXMNy3o1zyy233HLLLQdVWTYiyi+K8n4oCYTRfn9YFQDp28dm8JUTC/j6UoSp00fwH8a3Y3PFwj1nqzj1oxMIWwLCLDWAYgEYKwswRN5DE9ZYxn9GnZ+bn0VW+jEUjBUIhLZQx/RMFbMCfLnio28VbQyMl1HYNISrdozhLbsn8JJto3jFFZOS5eqzvV7HAIsYq4+I8jkGW7nllltuueWWWw6q2kZuLgo8f5kor4Ry93W1MwK73C/A0uHpOTSXVjBzZh6HTizisfN1zA6N4Hy0DKtUwWDBhe+4MkhJRpW7AsQUqbjqv8NQ/SsD2S3GSb3izUxQxX8T00WgyrMkk+VHkIHwSlRBYJ8LK8B8HcdOzuPkwWlcMT6I/TvGsW3nGK4UAO82AbYOTAx1u+gQF6orchG+SpQHRPkqcuX23HLLLbfccnvRgyqKmyJxzneI8t9BqZ5nWsMPsND0caHu44ELTXzs0DS+9+QJ4LzAFPMCtDQJyQjAdFUF20aKKFiRdM0VBksobh4W4IaYqGq8E5AYJ6fAgEiUKIzxkmWApVWW8ZnD59O/tYzztALlblxq4Mnzy3iSYs8fOw1MDeGazUP4uWu3483XbMX2TYMYLxcxWnIF9svyQUqXKJXDDLRo1yAFs+cuwdxyyy233HJ7kYKq90K5+0hvalOvgx+fXsLfHZzGD07MYFOjiem5GjDXUE6wCQGaCq5iigQwGbTmxUMKkNRswmo2lFuOHjtitBOJH1klAUnEZT3xd3VRHNNkYOSizUJZFvoTOzfciBqImawXsWEDAnCVBOjbVFGAjpitho9jh87jr47M4ZM/eA4Tu8fxjmu34ANXb8VVm0fSL6Xjv4C9ovzvorxTlI9CuQRzyy233HLLLbcXEai6g4HAG6DSyWTa+VoT3zo5jx8dncHTAnzcPdfCcnMGfzz7IH6u6OKxsWvxyfEdmI9soFUXgMiWrr3BwIJDEegBs1BSsMpw8dkuKkULtzkrGBA453jk4ESjiBaxVRIjWQr4WBf5pBqP2Qy8bIfPDQZ6FlpeiBkvwMzZRRybX8Hs8VkceWIae/Zvxm37JvGWneNSukGfsOl7aPzoUVizs8Whl798mz0xQUwfIbCXiPIFUR7Ou3huueWWW265vXBBFV2T2ChKI/MvRPnZrANJymCm7uHUXA33HjmHv3jsFA4fPg9MV4GtW7BvPMAvnvsBDgyX8Oj2nfjaljHMrwiUcnYFCBUKKtsRnEjt0JNKBm1ARXFU4s/KIMbdKn7j/MPYXC7jKyNX4ROFEcyRi86rKxTUBlQXgaySPw010oqUG3KoJODQgDqu4cm4q+NHZ3FcACscOotbr9+G6s078ZI9k9g+XsFYyQXJklbv/T78hx9GecdOCFBFdXsnl+2i/Jkop6FircK8u+eWW2655ZbbCwtUTYnyIaidfXu7HThXb+FPHnoO/3T/MdSPLmCu5UmZAuyeEJBhEwKvhjO1Fg5U65jdsohgIlAMkK30DRwBVkqRLXCKipOyw4DUTjnGCQowlYcx0JrBbU98DntGJlC9ZRKfGduGuWVxLnIrUg2tVx1du/+6/l7HbIGZNPGvI56BgtXHBgFf3IcAlgfvfw7/8xNnMbR/Ar/7xhvw39ywFQOFEgaDBmbPnwFWlpIn/nmoQP+/FuVTUIrsueWWW2655ZbbCwRUkRwAMVNvg2KqUu3wQhVfefIsHjuygM89dQELFIDeagoAJG6XlMoLRflvVLXRJP7FD9HydToZq10KAsyQWIJDJI3nIfI8xjE2M1aOBDCW+L6wNI9BcZ7BahX2OO0OdBkMsesvMsGRsduvq/EPV4GqqBNQmR9LlyRdnzWyfOUmbIjnO70s6uDJc/ibuoXpE4t42f5x3Nj0sHmwhIIEjh3XouD/l6mHlDkR/1mUH16OnfShJ4/e/q2HDr7JD0P7jS+9/q7bb9x/f/7q5pZbbrnl9mIFVcNQQejk7ns3T/QdRrn3FhseLiw38LcPHsdf3nMcK6frKFkOKpuG0BgcQkh36wvQ4ImDvUCCCFuCHygQZDMIilQhSc0ShS9FFFPlwwpCRORqCx0GS7ZksAKBXmZKm3DAKmO+FSGQ52bgZSX0q7oCqLSP+v1N1Hm8Skao/h4cAEYHVSD9bBVPPDqNJ56dxx0v344/XGjiqokxcagNm5gu15L1EgUqTaDlOLeKZyBV9i2i/I0oT0Glv7ls7FsPPvnmP/r3H/vXBIzDP/pVKwdVueWWW265vZhB1ZtF+V9E2ZcGqMiWfB+ffPwMPvrdIzj69AXJ1Lz26mFsHR3AWYElHl7wpFI6LEnlSPBBeQsDy1K8TxDETA0XmxIeI1LuPwGmHLcgcJId4xmbWagwlMDLcsTxReMYfZxktaJYy0qCsSgDSyUFQdMEQu14R6CVwlbJn1kGwAoVkKRnn6gAAxVZiefPLuDsmTk0/RpWai1s4qipqNlAY24BlvhdaesWSiRN4qnvgUrv829F+c7l1EkJKiIMZBuHUWTnr21uueWWW24vRlBF3jdy9/22KLdlHXTP6QV88eET+OqDJ/GjU/NAaQSbJh28vXoIdyxewBPOJI6OvwQ1bxBYWYjBEAegEwslWRwTxwhQ4opSFP9h0xe+B8trxRpUpg6V/FupoNsEzizzc76OXRRPI64feECrio7tfFaW6rqVAaqMz1axWWlxWFF8vgLFgTky+D6wQwyXXXjzAT5133FUh67CS6/fittbK8DdX8PC9HlMfejDcCc2ERAhpopS/hBLRczhP18undSSaYNs6aq1LcvKX9vccsstt9xebKCKYnpIHf1/FeWqtANmGx4Onl3Cn993DJ+95zha5wVYmawAV1+BcrGKA/c8ilc++xDGNl+H8h0Ck5UEFliej0EVB6BLJicMO/EKVOLjgiR4BFASgCqiuKy2sKehni4AlRWqY6xWi7GSdiUqgFMSYGZ0uIhQfL0c2GgJ8BWnWU6b5y2sSn2T/HrV91F6ULv5WaBip6yCg/JIEVNTQ7AWLXz34DS+UzktAJWD33Wmcd33vgvnzEng538BmNhkXoTcr/SBQF54CJeBUKhj2wFKRckQir+j/LXNLbfccsvtxQaqaPfZv4QKkk61vzt4Fn/+9cOYe24eLQIO+ycVsBBYJ6D4qmqIuaqPC40WAgJNBcQq6Iw1JCwSAMh2VdC5ioVS7j9FNukA7kjuBrQcBlKWFZ8rYFBlhYkde5aK4RpwsL/i40Olacy7Lj7vuzi6EqEZsXp6JhtlfB5ZCWxlxUAqC3iZOwPNr211/6FMgROhUHSwb3IId89W8e2vPYWqewa/N+vhZ7ZugeOmNvEtovwplGDo5SEUGkUZqva55ZZbbrnl9sIFVSQ++QFRfkOU3WkHHJ6r4QuPnMZH7zmOZ4/NAEVbxQrRzj5y4xFBJEBUkwQxQ1sAB1v8twF2DPdfRGCI2CUqyZgqURzpOVNgyWp70QzAQzFZjsWC6RqAIWaNShTDZGP78lG8+8mvIBjchrltb8SZyjialNgvqK1Nvior5GoViMBqEKbvS+co9H1EjQZsr4nKgCtdZCtLDRxuLuPMsodwvATHS5WnopQ2JBD634pSEuXTyHWscsstt9xyy+0nClRRQPRPi/KvRNmc/LIZhDgyU8UnHngO/+4bzwBzTWBSYLCxgroTAgAhgxtSFHBtOIUiXLvIgEinjFFsVCRBlS8BlUWuvdBQQRfHUPgNBapH5P4jnSoNVnTMlMz5J8CXQ8dSIDrFVBnnIM2rgbIAfREGzp/D5P2fx/jma3H1+O0oTexQwePLVcM9Z2UjKasXyuoGxBKsl8Vq7DKAvYVIlFB875B4qABXY/MluetxdqmOYwK0Tkxuw54BR2DDVdciRXuiB+dEuQ/KJZhbbrnllltuua3DNnonFQEqiqGaSPvyqfka/t+vH8Jff+mgAiw3XQFcu0vpTmlGRe60Uy46myQT2B0oXXttfSmrHUhuaQBGelOOHf+ed/8RGouYgWp/rV1/tvqgREiOwJnfhEMB7bJm7Djfn/jXc1xUC2UsiKOXAkvROpYRjG4CK50Kp1sxrt/X922AZRu7G8Xf5PYsFuAKAGrzsYWCjclKAfO1Jv71947i/3zgLA4uNrIyF5IA678R5fX565BbbrnllltuPxlM1btE+S0o2YQOozzH9z47h4/d/Qy+8Mh5zIUOXjHSxGuDw2jN2/h4YQfmaaMgJTxus0hKwsAihqntt+PvnILM2Udyn5KpkscYrA6zTEpSgX5Kmk2hdAemAaBhm4RCI6WaEBnn4HuxuIQCsITivJFl6FzRcbRj0CVGa0BdixIyB604v59pSZV1M07IsrKPS36m8wZKlfiQ8R0zdOJ5hisuhuoOFgWYuu+eEwinZ/H7r9+Ll20bTjYP7dAkkdBfg1Jdvzt/LXLLLbfccsvtxwOqaFImYc//QZTXJL9sBCEeOrWAj3zvGP5elKA0jqmrN+HNzUP43458FY1aA/fe9ht4qLIDEeW8s8M43In210UKWLVjnTTLZCmphEh+F3YGMvMxBKJc6SLkmKqOO4tz+g1J+QX1NwGnKLErz5YVFcnKouMKOq4rRPueBlwH5aIjs8o0Iktqk26omWruksVyOJ6sqcCodFvS54q5cx0L4wMurpso476zy/jEc+cwXrLhvmo3btw8DHe1K/BtjH/JFXhElGb+euSWW2655ZZb/7YR7r+bRPkDUW5IfkEQ5+BMFX/1naP4/PeOIygXgT2bEIp/l+cWMXv8CXhnHsMVXg1Fx1VgIeKde44DRwAVCZx8RigaCJDeVOCjRHFEttsGWJaFjkB1izWqwkhJLzgk8ElAhJAQuRM5TyB9LhXIAw9OwO4/w81GzI/jqBgtSwuFmqCkWMKNpRbe78ziDc4StjsC4LilVa5KE/DFjJrh6utoGbvzOPNYR923JePJGjLxs03g01Z6TgQmg5YPnwLZywUMbh2RSvKfuOsI/vb7xzBda6W14wCD4g8jhW3MLbfccsstt9wuLVNF6U9IOuHtULv+2uYLIPPgc/P4q7uP4cuPnMEiAZshlbMvhAdPTPitpoeCAAMVip1i9kX63ywVCyUTIBNYascWOVJzyqqvwK47GA9jCQR7lfyApUgk+p5YHEnwGCBFSaqjIM5bJrV18p8JQGX7nrHDUAtOBlJsU52bv9M6VnYBmJjAbTM/wO+c/AHOheP4jztux3ObrwEW52TOQRnMFfXa7reKmsr4PGLNUAJ7Tts9SakCSTKCdKwikogQoNO1QgyQnpU7gOpgEXMLy/jsA6fgui5+9zVX4qrJweQFt3N7znA5n78iueWWW2655XZpQRVNwKQ/9T6o4PQOQEW46IcX6vjID8/j4/edQigAFHaNKUAg3VQhIgFWotKIjInyLTdOhqzdXFYkEx1LBqYdDK5y9dmNKtxmGcMcT6Vj2WORc1sxOZZiqJQcgwWHkEehoH7j1dklOCxwkaswkhJ+UoX+blGCFHF9AlXiGWwGRjJEi0Q4yVlG4lmDw9hy5Fnc9NiXEVi78cWxq4BR8bzLi+Lg1mqQlJaPWQO2fjAXAzxb624JcOVQoL6sn0A+r2VHEHgKFXFCl44hQDs0htPTi/jL7xzFmABZv/zyXdg7Wk6efScDq3OifFaU2fw1yS233HLLLbdLB6rEDC3TznxQlD3JL5e8AB9/poqPHGmIibwCOJ7K+Cc9byyHQIrkUuG8JVPD2AykZNC3dP+5UtCT4qkidvdJPCEARGC7kr2y2syN+H3I4Mt22gHiZugTnbtIIqG007AhrlFdEL8rwAtG0HAFqLOklgPCQPyg6ilANS+A10oJ0XAIpyWu4VrK9VdtIloRx3iOEgdteJgXjzLfKolzFdCMNPIyXH1diShDgypNSLSD5GJGj2LGRJ0QsxYFolAsGAeqU5JpS+6WpPgvwoXM6JXFZ5sqaNV8/Pl3jsEpufiXr9ub1r7XQKUWejwHVbnllltuueV2aUHVLTzp3pj84qSYsP/soeM4cs9BvHN6Hicnt+B4sYIlYnasIAYYcteaLwXQW8WiADcCpKzMY1AAreqWzYjEZ7algsQtjmtqYyiOL7KITQo9BR4KjsBIDiuXU2yRq8RBPU/iNBlwrqUOSCh0bllcT3w/NglrJJB5AklRnZLPnBsQ5ykPoNwcQHNoEKMlH2NNW7JXluXAHnCxWBAgryFAV02cpzaKZQHUKPSrLu7Lq4k/llrMynECaKfIDFNLMnXtxNAdOMrqnipQC7A7AkCJEooLhuIerBbHVBGQckKluxUGEmyFgarjdozYyIC4TAsXzq3gE/c+i4FKEb/3kh2oOB0oj+KrbhXlN0UR6BNP5a9KbrnllltuuW0sqKLpmQQ+KX/cO5JfXvBCfPrIAv7k7mfwK498Df9TaQ6f3voufLK8F0tVAlWNWAqAQFQoJnzXFqCqBI9cecvzGPEEqCLmpVCQ8VREcFGQuNRjsq12EmUZESW9eyoBMrFaDn1AQqDiHBHlCSQgQcDDZ+eipdK6kHuPYsmHXaXndKUASa1Aef2mRgp46d5RLA6P4qaVAqqj4xgNG7g6HMZcK4It7nXf3km8ausITs0uwpm1UdtWxtajLkIBCO2SLV2b8j5pCyApxJdcDBZdiZma4rMg7Ee83EpntWTuQuUmVYSYD8tvwaVAfIcTD8sE0r5k9zo0twjYlsS9jZRAD/zUs/P4t996BteNl/H6K8ZQKTjJG3g/1E7APxelmoB6ueWWW2655ZbbRYAqCsChOKqfSvvys6ca+Pc/OA3M1rBv/jD2RU/h+v0vw+TIAciEuM0WK6ETpvIECGlJRknGPNk6sJzncxKzJLVz0gonV5rDrj1GGKRdZemkxAKtBAIRlWgn3Eoddm0RwfAkbAHMXC3gGar4qqVQSTBMTA7g3Xsmcf0r92DzvIfZRogZgfNu2zGCv3/JJIKJCQyEk1KXqipA2syFCRwnxYeBAbzlhu142TV70Kouozq/jBO792Dg1DDmV2oYmxLgatsIsKUCnPFkXdjjwKsnHOlmfFxAk6WmLfBNZKTbMSBrGpCCwV7xjkJi3YoFF05B7Zok5Xhbx575gdTwsgs2ygLQFSObBbigkCMZJa4WIKsxvYw//95xDN65H3fsHkuCKnEQ3iTKQVHuEqWRvzK55ZZbbrnldvGgiibZa5m9WCWf8MS5ZXzxwbM4d2gGlpjItw5GKM7X4ArAExJD0ljBeG0BKyNj0rWnhCt9mcO4EAaSYCGNqBaDBosxhi3FNAO0NNXETJfDRepUiY+KroNJO0QlbMGqNVBd9FEbbKAuQFZdAAnPC7GtZOMPbhxHtTCAvect3LZzHJMHtmD+qXOYDiwsimO2DrjYM0q7FN129ZAiuy+eaVpciu5jZNDFyPgQMFoAhgq4fqSII4UQ8/U6psTv3793DLtfOonlrVfjyFkB8qaP4bef/Ty8VhGfqtyCz7tbUStRah5PPWTQVh1FZwAV/226BY3PLBZHlSKoHV9rKQjCphR7ZcWn1dpaxPyNDqCx3MK3f3gG14yWsW+shJ2dget0JAmDfogZq8P5K5NbbrnllltuFw+qroBy+70Ucssb2oDj5EIDn3j4FH74xIwECMXxMkpj48DKOBbdIVQptqg6j63Lszg1tQPh4LDaqSbdeJEMpnbEfweOi6alJA0smQA5kvFTlH5lNPAw7TfVTkICXeIzR+f+sxyUXBsVAlpNH2EzQMFxsLloYdgKsCLuadmLsF0ApT++YRNsAewwK65fKiGslBAUXZy0LXgUFNXyKEkhYAiPzzc81JueFACloHo0WgIgKUDo+rasjFAAqpr4veVY+KmpAfzUlYOIRPkehW/dPY23fOXzcGuDaL5sD+6b2IdnQ1H1dVFfBae9W5EDxrLpKo2zOC6NpBNUwFjE7kD1uUrXoxTp2wyVzZ+xcrxkrIZK0v1af3YRX3vsLK6YquAXb9mOzUMl86rk7n2zKN+F2hE4n782ueWWW2655bba1iL++XKo3X4D5od1ASR+cHIeX3h0GmfrAmhsHZauKDRpZ5+HgtSrVJP9gAAARWJWKJUKySWwOnjkFkQpSnAUaeV0ErEUx/hOCYViGTcETQxXFwWgqSlXIUkI2AwjLAUS5hdbWJ6uotpsYcf143jDy7fhpbvH0BLXWCHARdIJvgpG90kAsxHAI6JIgA+VnFlLPqSRdAqLRKyZFYYBl1BuagwlEIQSEWWxUvrVjQJx3bR5FCcWm6iK3+67Zgo7XroFGBGg6qR4nnN1BeIKHDPW1uQyhUFNAVCr/ZmUVOD8h670jkqxKgFQLanxBb+lNgSYuQT17kibXYL0m61DeEYA448+eBpPnF9BSugUoaz3MqDOLbfccsstt9zWyVRRINMuqNiaK5Nffn96GX/x0GkcPl9FVB6FPVxCqeVIlXJy7zkUQM1MCQGPiFkWpy1HFWGA3H9BSwart3T+OunxCpW3ShyzyWuJmb0h5ntf5f6jHW5QqWkC35MM1rB4mlt3j+DllTJuv30K128egHO0iOORhSVf6WPJ8Crxf54AFG6kwZJyn0UdeQFjo2DwUFw/drGRSnuomLQkBLGsDrZpnEKcSi6eqXsoFSzsnxrEH1wnAN/mQTzqLOGb52qoSukGAe9G2O1oW4pJMoRMOwAey0VQYLrU4uJ6ttWH0iVK4E6ygI5OLC39jJ25FXknIbkBm1UPj51cwsd+OI3Nog1vmBoyn4okNMgN+EZRfgSVyibIX5/ccsstt9xyWxuooujlnxHl1R1AQ0zIKy0fnz80g+8cnKGgJmB4QMoflMRE7VqsH0UuM1sFmXtiwg+k0rly+xFRRoKaI806JrCAmeYKfKuk5BCksmYgz2FJ+YVIbWzToAtqN5snwEejFWBQAJY3XjmKqa1jePewj8krRxCEHh4OQlRDIoO0snpEoe8ceqTlHcJ2KFKaBdUq/Lk56WqT1B6xUasE0nVuwk5dKorBqns+agJorYQWdgiQ87PjBfzs1mHcv+laDD9xFt9/9Dzmp2tYqvvqtyTpwO5RlfPQSL5sJIOWlyNGinb5aZ0uqTrP9UvpdWyWksgyy2oDq0gAq889Oo2bBODbN1aW+Qz5pxYzlK8X5YeifEmUlfz1yS233HLLLbfY+nH/bRblZ0XZb37YEMDiG0dn8dhTF5RY5qAAQ+UibPJkRYFiqugC0k1n88XIRWYpWQDxewpMp31rFa+B3dVF7K4vCzBG0dUFeWeUs492+dHkXio4Kg0LSz9ZMlVfhKYodQFWtgsQ8Ju37cLP37ANE8MViQOWpXxBJIGbbcUsFLn5Ipl/2JKnC0jTiQBLGDBg6nR/BfNz8M6cgUWq6vIeAgnELAYlMuZebzDUACuGWsqtKN10oZI64GzLN0+N4t+9ah/+4meuwztu36IETk8vA/Me9A7ItgRFmwVTwI3ckCEJqPpKVT6KLFkkUha/IxmKiHdasvppnIvQCGZX8haRbL9ouIiVmTruOXQBPzq1gNZqV+hNDLAH8lcnt9xyyy233NbGVE1AJdm9Diqupm3HZmv4+MNn8ASBAApsLjltWYSS+FdGshMI8XyVf8+JEwtb7L7SkggUAD4ogEpduqwQu6dIGoASGFsUzB4JjMGMiwBx9VpLsjT0nc1urk2kv0TgbkGBOF/8XroGIxVQr5AU4gTHlHBYFCntoLmfaLUUU9jyZCA63YuZ0BiG+y/UQeSh4RWjuLJSKQZF+h74GmUBFndQ2T+F0bKL66dG8JnHzuKRkyvAWQGWhsVvRwqGiKgVgyFLsVCWrXL/2W1GigPUCaBFnhJIdSwjLouhXlJolABcyUUo2vGeEwsYe/Qs/tXEIHaNduAn2hpIsXUUW/U9KO2q3HLLLbfccsutD6bqJVA7/jr22c/XPXz76By+dWQOC56YkacqaoJmvSnaiSf1oYjNoRQzBCRsK44/0oAAnAfQVjv/fAqg1qBD4o+QZQNIBDRE2PRlUPdQwcZNUyVcv7mMorhWIPP1CQBVa6JWFYWOixRoCgSwIU0oCao0CyVdXpRepomwWkNAgEmLaqbWkmKGFOukWDaZZsdgqrRZprAngSqJysL4Xz89EP7VOybwx3cewO+8ZS+uvmoUY44Ai9WWCmI3fZPGP66t46Us/lvfg3heASap7p0Ols7qBJUwPgtVG2FqEOfrPj53aAYPnV4Sl191v1OivEeUA/nrk1tuueWWW25rA1V3JEHVE+er+NrTs/ApBqhgK5aDRThJ/oBYKocnbXKX2bDi9DGRmsDJFWYFyt0m8+lpyBVyQDm55iwFFIgEo6TAyzMNYKaOO/aM4A9fewV++eZt0r040wyZcGGldX2pULvH2C8XttM2yx1xoQA9/vKyAGM1hEE2qCIgRYHp5H60idVaWkK4UlWgz3X51JFkqywz15/j8OPS7y11LwS0uiiqv3ffFnzsndfhp1+5FZWCOO7UsvhNuDqHIHtRJVAkVkqDPIpn065S2Q4ci6aZMv1jM04LXDeSZnRl/Fu40MQ3n57BM7O15C2Sb/VtzF7mlltuueWWW25sWe4/2u21T5RXiNLeBkZsT90LcPczc7j36DyaNAEPOAb7oVxRRfKQqW12yv2kkY4VsyQyvoiBlM27/TQrJA8gkMBMSyDQyun5BkZKRbzshgn8zmt2485rtsFrHsfhyEbNC9uaTFJqgcRFoQLMg/l5xXbZsZim1S6WZKgCcgMqGqrTfWc8t4qLshQoWlxEWKvCLg8IUFXswCYWJ3M2aaW2NGfUO8vLWNHF7dvHgFfuwWSxgM8+cg7HFwWYbAqoOl5SQeX0jBYHoxOg8v04EbUAeSXXkQ1L921ZCTkGWQ1WZlC+PG6ogFojwJcOzeCarcO4dnKwLYsBtRt0B5Rb+PuiTIvi5a9SbrnllltuOVOVbiR9+XNQgcltox10j06v4HvH5jC32EQwJADFYDFmOWzlVivYauaFLyZ1n1koh91nks3hRMk8ievEyeqOVCoapffUlCKbvjhPMQoEkBrH777pSrzj+q0YLLg4t1CT7ikJWiRjw4xOUWmTRuTaW1pSoMoCM0QMrOiWC0qaIdCxUWbc1SpQxTsE6Tokr6AZMCt2a3aHTFG2ezHFbt86ht9/3V584NU7cGCiiCK5NOuBqkBX61FFCpySnAIzY+pzSI0vGcDOey1hgivLQJamBhZ9QG0p2tUT5dmzK/ju0Tkcn6/DC1Y93e2i3JlkMXPLLbfccsstB1WdVmEmYrf5YcMP8bXj8zg0U+OdaYgZGRbtJGaEhCgd/szxfDgc4B1wFJXU9qSpXmpZiU8DdgdaUUzwsLbScqMFN2zh7XuH8OHbtuMNV24Wx1uozy2iubgkmSbJxjC4kGpTzAhFOt6JzkeAi3bdaYVxcycgsWKhzJbHO+QSFqqAeXLjRS6xc2XJiNms/K422IVQaQUNFXN2d5IbMmwDRa8vxopsx+AAPnzrLvzenVdg31QJEIBWNEJbVZ1cmBYLgTrifhy52y+SoqSkNE/1S7FotqlNpaUfkrfQDq+y2uCMnuPZc1Xcd1LU9epYsL0MrAr5a5Rbbrnllltu6aCKmAfK7XcNlBuwbc/NN3DX0XmcWSahSnZFdSpfyv/R7j+XJ+n2rjQpmMnK4xTILg7QAqDEquiEwJZmcwIPXqOOludhZLCEV185idt3jmFkoIDID9Cs1eBXqxKw6DgmSttC32lQ02af5PnIRdZKpNaL5PHEOqlkL+lMlWKrwk42ym5zbSYXpdgwfU1DCkHCPWK3KCarT1BVEHV35VgF771pOz50+w5ct7NM2ZiBxZZMRWNpAEluPr4dYgFLBReuo4CmFF9tu107g91XAar2bkDeMThcwjOLDfzj07M4X20lb2+MQdV+rE2ZP7fccsstt9xekJYWU0U5/t4AlfOtbYsND/efXMBTZ1ekLKdANwo1ROjYSUaTesGKFdNtQzohMnbe0W41hyd5G8pdKHGBwwBMgA+PUtIIODJUGYA7XJFurHqtiULJlqyRZJCMXHihZpwMCYN2smGpQeV1UjSRYqlIjT3SYCIIV4Ee6f7TGlR8TMd/Ax3XTHcE6lx84ZobacdgGR+8dYdkw/762yfxXINkIKK2orxCq4EK1Bdgq1RUgep033bEUhFWws2XlWLQitq7ODFRxoIA0vecWMSj51awc7SEotOBn4jJfC3hbVHOXq4vwfxStTy7sDwo+q7FoD4ygCKhyRr/uxFGXZ2Y4AFetDgGpOVdGhLj09bROpeNMovf+TJfX3dWnb+crtvg583qqPTbQb5vrYKm79/j3zbXcD+DfE4bbRW69vka/Pw+ennXey8eqc5LXNrDjVEHfqLOoz7acYDPa977etvFSvQ1Lbg7yG0WIJtfjvh3tR73YPPzV/j+w4xjIr5ejdug32co87kLfM9mHeu+3eTz1i+yTUtcN0W+Xtq1PKMPbVTcp2u8vxbSM0voscPvsw4LXHdFoy+l9bfIqD8v5b3WfTxC57J+PWNUaPRHr896GTSImCixVK8b40rUZ/vq5zHbF8YY6Rnvq7/G9isl3v9eFhnvRZNL1C+oogD1VyEh8Hh4pobvHl9Aq+apCZfcfx3b7a1YD8mY7O1mSyUhdlSaGj0Cyx1/MtULVK46qB10EbvMpMcwUiX0AnjVOvx6E4E4V8lSoqJSeZ0oGulW89vAItLaAibAkXn94v9WIChSDBTn/oMuydrk3X+adVI77zio3bLVGyxzGurdf3a7a9L5JdiTXcxRBdaae/nWwQG854btODVfx98fiVCdqcMajBRhphRMOSjdFtURSgZPQYM4NVAqqFo1THP7WZqNE6dfauK+ZxdwzWQF104NJjs+9ZUfXM6g6lN33Xfjn37ks28dGKoUHYfka+WLU+Gvj0Ilkz7aBWisxUj77XWi3Mzv2pgxydHgQNpf50U5KMqDojy0wRMCbTKgDSg38kDk84A1ApV+6GGoDQhZivm0I/iNvOhq8f0OcF8gcP1NUY6gvzRGAwzKX8b1sMS/c3hwfkyUe7hvXUwdjBnPfBWULMgQD9Z64qU6f5zr/Ad9AEN6/tugMk3Q3wsX0T806Dssyr1cf9RWt3BdT9K61gCXGoDriZju9W4o7bhml0mCjr+e+99UShuHfB8h1wed89E+n2GA25Hqg9KabYOKzXX5fMvcvk9x/7pvDYAtzQ5w3Vwtyk5uT/NaVF+nuA89IMozG/QObeEx7xauq7mUyVdv7qJ++x2o1F5dh3co1v9aPmdyy3XA40bA4wK187HEe72d6/5m7tPeRfTHEe5Huq2O9/GbzdweB7g/N/k91vqWD3J/mu9zbCAPyOv5fd3NdVrk+l3h9j3O49UD3Nb92CYmja4y3p2wx6Qc8rtX5etSvTyJDJ1GN+XlvpkHnw6xz4fPC1B1agl1Ak0lNzEJI5ZMsKwOSGkjageky0wxFrNZjs2fKQQl8Zj4vxbdet0XT9sQLeKLQwLp1gsEOAs8X7FhMkEwuRLNAHPtfIwBQ1tSoc0UBR09X4Ij8b3vtWQ+wA4XWUeVxvFa7TQ57ecOOxirjrbRdFbE42BmwuY+ZkNRZ1dtGsKv334FDhVq+Paj53BuyUO1ETA7qOQsiKkqkDs1DFgcVYuCJkuUQVVFxn8TeHZQ9QN86cQSXrl/IgmqyjzAfJFf9MvSTp2bu/GZRw7/KkaHHPG8epWrV1yP8gD27EWCqiEeJN7MA/IVPBBVEsd5PCmc4UGKBqKv8ku8EaCKJoU38X3oFZ9mGWb530cyQBUdR1Ia7+GJXq/ainzuw1xXx/sYOG2eEN8PFb9Z5kk2NMjr6/nYL60TVI3wRPNGHtd28QQ2jNUua6pzEra9kyf8b/BgnQVQxvn4n+eBuhdL1IvlKTKAPMUAvsL95D0MUOoGW2UZfVTn9CryYH+my6qdAPVboTJkTKUAx5DHffr9CVHO9QGqCgym3s6A+wADgDFuQ/PcdQYaBCAo3dWXGcCu5b26mt8jKjdw3Ywn2lMzd/MMII8x2Kf3aPoi36Gtxns8nDKxRgYhscjP9kwP9pcAxC/y85RTWPGQWaAGg5xnUkDVVuO9DjKYzX5tgO/3Pn6X+wFVNB68jecDGIs111iAP24snLq17x1cx9dx+25K9CXNfF3gseMYt+3Xuc272TjX0x3cd/0+QVVoMNnTPB5/n9/Z5SxQ5fCLdg13ljYuaIpJ9QkBqs4siHOWxX0UnTgni4UOCCWhTRuEmOxIJEFVxD5BKVZp6Y2DIfxIJTkuCXBWHnLxCtdFxQ7QoiDv9q48lgjgIHjJMrXz4Vnt+KIOhknv0jNAjplKhgK6Q49V11MjuNV5FJsVk4CWlksw3H8Ra3C1oYkGVLxzMGpLNqyf9b5t2zjefcsQDq7U4D8ZoFbzVaA6y1mAcy86UO5Ol1TtVXDb6le/F9lJlTLgounZODhTE6WOd+6NZLyWFfeZLcy4FHnii3CZ2WC5NI7Jsb3lkUHxbMl3Vw4ClYt8LmIy3iLK7zMz02uSmuByA09AVMcf48G0eRH3YfHgtotBXdp97kC21IrFx+zmSTNpTR78+6p2Bjqvz7gXDUQJzH47OXD1uSL9KVF+nVemvWyYmYJreSLex/37h0h3wQ7weLlnDc/cy3bxuTTIovPvZXDYy27he5npAqr28GRyU8okleYCGuvRlzQ79WFRPtjjnDY/2z4u1DZXcn/8EQOQqMd7cS2D8A8gsYkq5d4GuRCL9UpRbuX//kIP4NnLygxgdqF3uq6dfN0vM4sbZtzrfh4Xpnqcz2dGajDjvd7O19wI8/ndq/R5fIHHjt1dmCynx+8JRP0CA8w9fbTDFVxehzjry13MsgZdFpbbuA9ejL0DKrNIhQH7ku6/bsKVs58RZzxKBiEOnq/i3IUqoSu53V66/oxYpna7OmonWtjylXuMYnoCX+beM6UHlLyBL91/lKNuwC1guRZiUQCErRMW3nXtBN5ZbiEs0O6/UMwuAoCRq4/O7YdSqDMkTSoO/ZFaWOI6lJKG8vjZGtgYaWRi957JInG8lcXPI+USVuf+CyWwU2CWdirSDj65k49/q8U/5bOFQcyI0TOLewkI3Gm3pONcdG9/+xZRFy+bxPfPOuJW6Z6V2zRiUBU6jnoGr6l0tQZDyTiZbGL38cicOqjexe8XGjg6vYLTiw3sGB2QaYEMu4JfgmexcbFHz6dpOnk05bsl/j5Y57mpoigrwb/A+lToJ3mgoZf3r9idsV4LeQW60qMegi6/rzLAGU4ZJOe4vvphlcZ4cBvoAbymsL4dprRq/qMek2+3676N//0PUC65NAC5skYg2cvMeC6f/+4XRI/yRP+jHqv0XX0sEFrcD5Z7sJ7ETP0Os1RrHdjo+Hdx+/4JlJvM63ItmrB/TZRfynhPexlNor/H1/2Hi2Csqgxcm+gvB+oI36+T8nwaDG3psw/pWJ4kIAz4vVvcwDGxwe/zSp/H1xjMNDLqZYnrLitejNr3Vy+ifWmh8AfcVz6H1W7ZJMO11OdipRsIfA0vfmhs/ie9+EqCqpfzyqgDVN19ehmHZusxcKISJGLhtPgnwLFSCsDYHkkIUExVsT2hK/efxenzIhQFOppebmFOgLYP7RvDb14zhj21Kr4jwNliNZRaV2rXnFYWZ0CkQZFmiBjIWYZaeOhzPFPIIEPcj6X7s69ci5EOHm+76lYzVUFguP/4YIuf19xlaFkpwpqa4sqI2VqrHXAtvGd7GaOirraMlrF4IYTPWlwU00W7BimhdRR4qh0sZqpCU5E9y+WXoKtYWoHS6xw8u4IHzyxjUgDrQic43M8D7NnLFFSFBg1spwxY6w1C1i/e+3jFuh5zGLSSG+gcDwgXLmKlHXYBTUEf4DE0inMRdbWDB8JuK+ESA9FreCLrJwaHxrRXMBC9YZ11ZDMbQWzKUWYZziXqPDKed8NIU+4zVqKe+wXfezNYRs187WEmw+nzfejWFw4wC/hT65wENeC4wwBw93cBg++F0k6cXOe1isx0/RpPuJ/E+jZAmGNFv+1C7+/TKf23wG2yv0+AFnV5v8KLWPhlscQ6jmkt9dJtbMmqM2LlyY3+sxfRvgM8nvwmlAvwc13qyd+guhrk8Z3mPPIiUHyX5yYq8fYkFT/X8PHdU8s4viLAUbnIgegwdI+MiGe940+yNar+bJmGJkrk/uO8deIc5PZrCjBVFXhnrOLgZ27YjBvGiqiLV2yp0UK5RefwEDYbUv5AKqZL3KJAlXLbsaxAFAuKajAUadZIVqWn2Kg2WFKgKwz8jvtP68pqV2GkyJ5EypiIz6Vdm5qVs0wwpS6oAuo3wEG2XVzmFTtGMTBWwbyndKnkpV1HglSXL2ILUGSooWeTKcm0NUnWqujg+FIL3zy9hNfsGcNQsWNc3s1957u8ArjczO4y0djrWIXryiM6ntwVr+xCsS8wSGrxJKPjrJKNtpUZLwpi/hLW7g4zQZrV5Z7tPurKzjiHg3hnXa9BiyaTG/sYtHcyYKcA3TN91Pkunuxf02XwX+I6X2E3wmaDTUhO+m9k9uerib7dra70Lq1lnkh71bkuZxAHmttY246WCX72cka7bOfJu9Jn37W7PB+BnNeL8jP8NzKYifNcBxVkx7KVuF9TjMqjXF9R4t6v5kn3ioz2pGvM8jWLiN3naX3rZr7vHzHQaa7j/XHX0DaTXO/fzQB6B3j8tFP6kLWGscbp0l4h1+sSjzlOH+93lcGnv8Z6sdc4jhZ48fO+Lqxyne9lls8z2aV9aUFFrjmKCz2dcv86ziurDugapxBvFqjwOzXJ7Lqdcv+v4nHiJF3TTbwoB5KI+cxiE4cu1NCkVDCVonKVhSmTLsftRORJk+4xXyX6dV01qTOzJH9KAeYC7LjiX8rHfK7qYbxQwtXbh3Bgh1r0LPlee2e/BnARi4jaUvDSlu4uhQUUSxXpOC6OH1LsEYuK2vy5Y4AHdt3FaWTS09SoLsPK5KFK3hzqAHXda2mXH3RcltXBcqncfwp4maruF2M+kUdSpgKyHl1ZVxxEz89kSVFQm3XCkoHqKa9slPJhyPVWLmDWD3HfXAPLrUD6bQyb4hdjALmZkwWBhpd2WcmTC+KzUD55mlApLuYXkbL71mAEKX7gGxcBqn4SzGIgM9UHYKVBaxsPaL1A1QADsFd3ofaJFfky1/thrtOfRuyKStoubsO1LBiaDBK+yWBwyGCgsiYkmiCO8Yo3yGCcTAmL5OBe4YlmlCeT5OS9h4EVUtg2a40LB2IOX9sDEH9HlI/yRLOLgcy7MkBYgd+VmwxgpW0Tf7c9oz5o8v86MxPPcb29lt+jrPykNzHDdgYXF6NojpJZQHgC2XGKDn9fyWB21touWUb1SbGBd/Ezl3uct2KwL89e4rFgJ+Ido1lGIQ//FWpTA9UJbbb41S4g7FpeyH4R/bsvtdFu679mhto3Flzv5jKKdKVHGruvNEHVEN/IFvNlpTx/z83VMbfYUnHilOev7W9DhyvM/G9b7jxjpopEPSOtOY52fkA7UsKVtPuv0fSwd3gQr9syjMkx5Vqut1oqQF122aCd2w8MXJQnjSUYpGtPHF9vqN1+LGnQsftPDh+eYorawCuU4K8dHxVxLr2smYDuneO3YOTVi++K47vMwHgJqBSj1s59uAEmwWAQxnWAOL8fyU1Ix6RoP7vlqfqXLlsGV6YIaIJshJXCVMm9YQUEKy2cW2gKoN3A/rEBkwFzuUPRSvLEBrtELlejl/FWfvGdFIaKVkT/KMrf8eTu8aR6jv9+a8o5Rxlw0XnvQcaW3p9w0xti9C4xJ6N7WwZQuorr82Af7NedPEDbKRMfAapP82T/CE+oTzMIWWE2ZHNiApxiFvZKZrf66dt6QvoGTwSlHmyVXsXXEQe8Zm0WmOdV+xADlHIKcHoqwRS6/N3mBJOkY4OmsDa3y3U8EVYyWIXvcx1/ieviMb7viMHMlpRJ6UY+51MJUEWT7m1ID5qnZ6BYlv+P61lPoCcYzP0W4t1oZttoBmajNtXQ/Z/l+5ni91S33xi3ySgzd0kwuS9RH7Pczwp8rpENuL869/PPcd0UezDSRcTxkyuXeDzQXo6xjPeIQPbHeBGkZXsWuH5/OYO9pP5JO/zuXcf901jwINeTWR96A8jPpSwM9CYKepbvu4ZrYZWMwlkxiR6hWKpWwJjZMmKp0vuW5HOCII5volgfFp0K2sBLHdcQoMAX/7l9yMHkVAW3TBZETalxJzDinCixcuR5bTCkY5giZoA0GIqaTSXkWeAkx9K9F8brO3EeeH4bAMrdg0lQFaWIf8L8KHY1xp9Ebe+hDGQPo454+A7Bz43BVEqPS4qfcn6/yGp7Y21HsVXyWZus4E6B6iZJZmUMDVlDRkEF89uiTzw1U8PNW4YwXumIHx7iVf8PL3MWZaNsD7saShkrxwd4gn/c+JwG+3/mgeIWnuiclEGIXFvkBjx+GdZLiQeg/YgD0JsGvT+eYCXoZb6a68TuAWpu4LqxMyYWWoV+AmqruDaPPwdf9y2JiczliY8G6kPoLxg4Qhzou153eNYbeoFZsBG+p53Gd8ToUVzVw+jcWj7A/XGT8dlJflctBun9gCrbuO6ujOemyehvRfka4vhK+vdu7stbMxYMOxg8fZYnTW1b+JnS2pT6y2eYETRNywBMcl8rcXucYrB7Hy9KNkpY12KW7CCzeNcYda135W3Haq27cT7WBLvHGITuYtC6EaAqZHBxEr0lB57vBdY+bqO0xdUMLzw/w4tNbfQefpzr6AMpC5Ax7tN7GCQFa6wrLV7rG/33e3yPtzJAthNjxFYuRdto3O3Jm5uueXhqoSkTKSudXXNGthKoA7EwJqV9ISBBjBQxJzbDgMhgsMX3C60Qgfj+5TvLeNWeEWwbLcNtBTHpZTEjRQHmrZbKEUgsjGMbLJEOxHbaO+vabkBDLFXFWjltZknm8QsTqZCzdKr0rjoZU6Vy40WWKVtrGUseA23ZjhL/JHeoBEGc+HkDRQekV1OrvHP4pB2pvH/qJpPMUzJoPuqiKWvWjWr/Zj3AoQt1nF6dtkYPmOM5nmpPEldnuEgaPJGfzvjt0zwx1jMG8O3M8lyOplfnmxOTIw1a/4knPCsxYO1kEDbcY4W9mxmwtDpf4Ws812WFSkC3lrFy350AJb0mizHEIpAbaVqo9NmUCbLAdZXsG0MpdX6K2Z3ja2A8Swyosraje8w0ZfXdJ/j7tNGmzP16a0rdlzPafaUHE0Gg8fNQAfB/L8ofivI/Mjv8OC5OfDRpc/x8h1PaZTtW73S1ua12Jj4/yaBhIxkirf7/kxSeoQH6fl4wuRnv5OMMrpL2LDNKsxmgaZIZ7tF1jE9ZsWEalDdS6neIrzVqgqpdSGxdfma5hXvn6krwsyMwOWNrPoMqywxUj3jSj2LgIt1o4sotATIoEfBNW0dw9dQQygVXHq8Cvztz7VmJ11AroUPHORGTRUwUSS20Y6rinX2KMTIC1WUyZCgwonf20bEp4pw67ipOUxPEOQXp8iTlQIxXW1HdqJcw4PPzwdEGIiqp7aUut6tiYaRswRP/4XFaHfrCKXCgepS1wOqVCND4XIDZujjxQ6JPnFjxsgbcHS9yMKV3WukB082YGI8je9vvKZ58Wn2Cko20fhTMLqYTD3I/2Z6oD1qhf4tZmORKQDMtW5Adm7KNB+jBDJZnmoFs1lb6WR4w05ilCp978xrq0No4XnrVSnqOWZHpFACyM7GwcXls13Wj7SiDyBn0764vct/blvH9EoPWCyl9JGS2QYPBMGWS3cntXE7cfymjLgk8vo0XL2lGweh/Kcr/BRUncxc/9ywuPk1O2rM/zddMZpfQ4GEy8R5oMVoz1dDTDMwC9L/zrp8x6VL1x/WaZnd2Iz3e0Od6PJkBmlr8XXJXrrmQ0NkT1sxTZHy3wH3Xy1hwyMwSehfDFKPFNqgiVoZ2ez23KO69IMasQlYyXmM3oAQUSslbCYAyoJIKnx2ZjKXsAoEYklYYq4h7cQtYDBUTZGlQ1QYght9KSynQ9xog0bVaTTE0NxVo0vdE5/PDmJTxG2oHoKw6vUMwivMFkqvQ81Pcf5GK77L4WjIlThizXgLMBTp/oGV3xFmp84cbiqX0sE3nXfYCFMX19m0uYf+2Iu6uW6iLKmh4Os1iLAqKZGLlVblqeuhXie7SFHV0mPrFSisLVG3PQZV8oScR54VLmtZ6ygqSrfHEGWQMRjux/q3HvSbsXjIBFyMxYfFAem2CTfF5ZX4WsdZNOWW1TxP6mRSwqXdR7egCcqZ5EPa6sCyLCZZBBwsHzJKV11CPVWxMEHQaqKb6OpLCdGqmalMCEF6JzrgdXR+nDBajX8ZjEtmaSosM0twu55hnUJO2XX/UAIV1o10aGX2SwN0HuX0+wefVOy4jfoceeJ7ee70LMW2x5HAbECjXsTqbGECOGO/AOQZ9ZxDnNtyoe/OxcemuNgpUbUG2Z0PvVuzGora6jJM2jwdrZfS7LRoriPOepo2LVL++TrC5nRvY1SCi0Qoxt9wioapYmwpWGzQgmU+uDaosFTQumRtKWRPC5vfB0u45EupsNqUMgLwbShVDxzMbZCUBmwBDEYEmAjJSUsGOFc3BLjlLJVmWQp0MtuLsmpaKvQo5PyDHPIUM0Ky2NEQUK8F3EkLt1DRaGMLqAGZhLKnAMVlaXkGDPxViFnVJuLx2VEXnXWr5WBH1Pjo1hOv3lLF7KkKzFaBaE/VOLBzl/QmjtjBrDKyMdrRs47/NdY35XSTjqkLXxsKKh1NLzST41Eq1I3hxWzIRbtaKZxnZ25V9rN5abg4Wg5eons1EzugC+NY7OBd58XYgwYo3eELWwqS1lIFyKzMShYwBehOMTBAJ0/IGSz0G02Rg7gL/Rgsr9qvBFvZxvfWaTjB7Hp1xJroediQYtQrXzUCinRvcV0fQv2q2mZg6ayJc7gHKG8jOT0jnH0uAiSqy88XpkANSdP+/RfldqN2fxR/De6+TddeR7h4aTzyXzkRRMN758wyUlxnAlzbwvd7o5OwXaza/r8Uu99zqsTDRuUejLucfWEddZfXfMWOxnBw7dOLumssHbTUfjrQ2p5ebmKG0NASqKDWNY6coZ6zOI6f2+mqggg79I6tNsahgdosBjGalooQUQRwbHrZTvcRAJ+qMnYqYuSJXm2UeE3SKv+s/goBZr1h5PXO0Nb1nKUyPDI7X9yfvIXYxKgFSXymqs+two2ZukkogF2qDFOeHKdDfwatDAlVNLDV9daskmspgNP0suk9ksVbG546S0whqHmYFsKqKvlEuuRpbOjx4b3mRgyrHAD1Z1F8V3XPFNZCt4m4boM3Bxgr+aTfba5lx0G4XvcqNmI3sFduUZeM8kYwn6maeV/AtxLvSkortm3m1X8bqmBUdw1TpUp+LfTBHxNx8Csq1FvAE1+K2ovs7tgY2iVw7r+D7LaBzu72F2K1F7NyzPJH2m4Ta5Xs9yfdWNs5JoHW30TfofbzKYNkCrr9p7odjXcBoWt8b6cLYNbtMcuYxWaBKs7zmREj1TrFKr+nBeLyVn5OC3R/lNjzMzM/zoZ03yPd+KuV6BW4TkzXZZBIZ3C4XmG3zke3yXC/go2u9gds9GTMU8bsTGAzm8vMwTnZ7ZzVgCnr0pWoXwD2yBnZZW50XU8kFFLUd5VXcj3SB6Dluv5pe2XQEc3lBhOcEqJqjuBk/0jP46p1/yZgqJmG0yykOLFBAKoxYy1wqrisGRWKvIIp3yOl0NkHQSYQwqxRLSin9J/mfUvG7pVx7UurAiYEZgycVqM7XYL0oLc7ZEb2V5qez4piqiJMit2O1KIDd8yU71o65iuIYKqnG7vttMKllITYEWFlKO8sX9RqENq4STf3WwQj3F2kDQCh3BDokaYE4P2JvTcEkmDKQJVVrqPrBougbzy23sM91UHItc/DYxi9xC5dhHsANWoFVugwWIQOUbqyH14Wp0vVcNlbGG1XPwzwpFRnUDXFH0BMh3fuNyJZC6GUENG5I+e05BiwRTyrHeVwqJu5Nu7GmE8+s67zYBVT1E4w9zaDqM9wGK1ifPAiBgpt58noVt5MpGGnzvdJETHFetOPtsT6ZBC3PsMCAbBFxYmWb22wnTyjz/D5eZ9SNTpZ8kutleA1MlV4wlLowrM0e/THownTa3K+LCaBLW+MpFc61Xfod1e1eLiT++CT/jjY+PM7AdQnrz0TQy7QC+QXuz+ZKtcBgd1sCVJlxzBpUVY3+slFWYQbP5cm/mKjHiDFAg+uLdiAfeh7GyaEuTJKH3hsJuo2Tvfpqlo1wWzmIhVJdBlTvQfquV7qPp7mP+W4anUXwYLYZYMXnrB1t916X+mm7ixRo0uyTEwYyZQqBskC7EIm5ke6/iMkcBikEtmy7IzBcgSZfMTxh2N6FpkGKxDCBDlRXoKqdPNjwtin3X02lqqF7S2hsWTIRdNBmsDqnQUNmoSWuUa+rtDny0R0lbaBFQ1mYVAM0CfwiDmzfwFBBic8CJUJKbkxPtNcmcZu3izquTg1gZLCIelXUf8GVAqByCjfdfMlY4DZBZScYK6ONZfNFElSdX/ZwfKmJK8ZKotd2jHM6LcNzuDxT1mwEiVhGdr66fuKW9DFZtHaJ39kBnsQ2iq0q8aS0HXHKntiLHh9TWOf5dzLYSA6kM4iDrs/zgH57yr3pnWeHEwBEu1yLXQbfXpO9rveVlGdezypciwZ6KStb08leQLxrrN5n/7KNVfUKVu9KHOXrzzNo2mpM0h6/m3pyXcsE7hpMWRZg8vvo22GXvj2A1a5hCv6+G/3verWZtaL+9jZ+XgLKn0b2jtuLtTLXyxm+ns6BpwU8x9GZ7FgnPzaZqrMMqkaxMaKfZrvt4LE5QHY2hBVuv/ufB1Cl+77TpS8FfQD0oAvrObCOsYrGp19DvKtwgt+fG3hRV8jo049xu7c1WDqCxUhC4fBiC9ONgOS602UGkq5ADaiIO6FA9ShaxXe0HYChSqsC7XrzFGiyLbutQxUGYTv/cRQ1pFYVnVPLKZBsQ6i1qzTQaquVc5g4qbL7xjFUR1EsIooOQKeHubTcf1FbaLMDhHC9EBMV+MxU2U6Hy5OYMvouiB9mw3qldDtqtq3eguuF2OHa2D9exlDZxbIftRNPdwq1ZgWqpzFWSG37+YaP0ysevNXM2wizCafw4rVuQo/tgMY+Bh2rC1N1MeCm2zWL2PiYFA0E9vNkVzQGoyozJ1qbaJ4Hp2bKOWiA06Khp1MmDvsiGBRzgNyI53X7BCvDa5xAbYP1mud6SLJ6Yzxhn2B2ZJtxLz7/Zha9U4ukTc6lHvfbq/665a9DBotCY8lHub+/D/1tk9cxTuO8yJvguY7AFUlJ1Da4jxd5EveYcZpD525Vh9t6mO9rZ+L9pffgKV5gbN9gUKUBTKGPOhu+BONKt77c7Z1toL/dyOgyTq61HvfxIkWPF0M8pw10uT5Jd3yJ2d+2D76jk1KcztNLHs6SZlTBikFEP9mIIqWgbhkHOxHiGCsNfiJD3FO76AyFcpUIOYrrl5kgLZcQCCDmt1SYhyJeFMvUllmAYnIi7ZazEvMUgxHpRpTHRKtSzMS1pmKz2kyUZRninpECVcQa8bEd8V/0t+e3Y7dkzFe0QYHqOvCdTkcAk3Y6Fi2MFF0UXAcN8d9Bi3czOiYDFXXBUF2SK+vgMtvCSqDYzBQt2PIlWGldbtZt0ug1qfQCVGs55ifF9PbpA+gM1iUm8xjT5pptW+FJfx6rNYssBmbb1sg4RNjY2LONNB0c3y+YswwwRKwexQzdgk5vw7DBFu9M1HmD624Ja483WUv8wHonwrR+TW33oAHqXsuApbKGe7+ey2Y+3719MCFrXUjpSXyZmddNCWBd5PseSWEX5xhUrfAE/uMYP3WM0k/CLsGwj/a5FGNgpc9+pYPTKXbvH6DcpjWNFFdtbSWIMecFqBMAMHeM2eZOP6tz558xKdNuv8hSef5sAdAqBLQo3x8DIulmI+ZJpvJTrkPpxgqDzhQv7ZpzFODi/HkSBIW+Knq4bNVl0mVIgVC7AwDFCuhRW+1c4oN2gDxYXyvkQPLOdgw5mbLc/UcpalpNyYLpa0QMlNS9BMq9yeydkn8IOgHlRi0/bN4FyUBH/xkEkbwMcX6OuE+L7sax47iqDokFJNrRSlc1MXd42kqvatEPZd2krHaGsL5A5heKdZt4eiU/7Qd46e8vl3RANL6Q6y6Zq0un5jmbmPQppupMyvPTpLUH6XIS1jon8R+3aTeuvYa+pdPa6OSvSdaTzjfFDFZyy/oyg6064gD6jVww9KrrXppJ3X5PbsD/Q5T/h0HWeoAypcn5afSXd3K9zMsK4rQmyQXnOI+PyWvPG++B82Psi+Xn8fpWj7p0+nivox/Te6/TL1H2gE/DiP9ymVXoCOYi99+ZlmJepEaVZTI9WdVjdehDxVROCDcK1JvLx6jUNX48JXAAd2RM0Cr9ipZYUN9bhhKojCfy/Rh76bgrIylwvKvP6iRijMtGRtA5ByqtZpIiow9Q0DnFg8l0N6y07nmxTpUpdEpwhuQiKI9hGGUrtq+Xq+I0NXH98+cGOHIork22nwGqoI/t1A6L0SWzVVHU6TbUAMy1JVM10wzkPoaUF3PkRcxURegeV2L3Aap6mXZneRs8cIS82lricxcR7/7TzzSG1bv3+mGqrkFnTIkGUOSKeTJxD0/zpEmBydsTgP0GZquSgYHdcrk52NjA337a5zwDxmnEgeTmZOIyqHmEQeRa4g91H5pnli/Z1wh0vpTb6qrEdxREfZh/M7DGdtQbLIIeTFY/bFfWu9PNNV7ne1/gur2b2aerGGz3o2BPY9NbeEL8J2x84LrDbU9t+orEdxST81bEgesmW3kCsZzHRo+dLe6HJG67aLzXycVwk9/H88/TexL0eGf7cUNaPcbh4CLurVs7UP8jYdkvIaH47iL28cYjnZgpFzx2o7l2n0CAJ3IW/CR3XyiTKQtQJf6lC2mmioLXIWUIdCA6K5l3AJ4oxiYsqdAJVgK566492adUsXTtwQwQ70zREkXmDkETaUWr2kcnd26nmjF3K1LsVhB0sD5tKELgT4CuUEtGbFRMFUs1dABCA5DKoH9JLFkxm7VqfWj17qdpSguiT1TFJeZaUVqPHXiRM1VaGbnZZbAo9pjk9YCS4YeV59bX2EhQRZMWBajez8Cqwveg9WKouSmA/HXITh2SZsNIVzf2eUIZ4udweLIfZhZmLgGqqM7IfXM1A7sFgzmpdwEmOtVJPy5Vs20CYzXcjzuivS6FCj7/BwaHFaM9I8S7/+ieTvNkt9ZNHbquTvJEuTkBql7OoHQq0b7PMQsIY3Lttw9peQmvC3guord70Ony7tT7qIuzPJlRzr+bRHklg0iKh9mFWOsq6z4IlL8TKm3RRufPdHiSPZIyBhzgvuCgU6iWAM9TBsDbaJdWncH7f+H2T7JREb9zEffH5yMeNuRFVVZb67hR6yLGyfo63istwEptOMHj1qaUPktjz0GkpNBJDTz0yIVGO//osR3L2BHWhV3jP2kSL9gKVEnvofg9ZRik4jsKVBQpQXKzJsOgLAYeCqSEMacXqcD2eE5n3spQUycR0TZOaH9msNO2+WsYYEqBJEvKgsYkXNTOg9fZRso1qRitkPSeClq3K05Z0xmJFMVSD6pSVHC9p8DkRgKrdmWxPlbkKIV3qhu7DXR1XJyVzZZFBuPYBmkmuNLirwpsE0O1EqQqxTvYWI2VyxVU1bqwDAV0DwYvdAEtejXfvASgioAUKVBTDr4LxvVNmn2J2YHtawBV2xAHmCfHn1czQGoxi6B1jm5AtsDpdl71P4lYbbuK7C3YxT5BoFZm38bnXDAA5QozQ/3s0PN5YjrIk2WaO9gyWMAW1ubKNdmeaWar9hmf6Tx6YWJsn+NJM1zn5B1xPTS79Nte7Fc3t46OU+mXPWoy40Sg9DPcbi+DklR4A7K309M97uU6ew4b50bXz7bCzFOynmhyHjWYyuRE3rpEoKrFQPRH3F/S3K+2wUY+HzFVWiC3sY4xMAm87C6s+1qfhcDnf+Z/KabzV0T5JQbqplHf+QUedw4mB7URpLj/osAAJpkecNNthLbLSYIqSz0VufpcYk3E/1pQQGRYoCnXCoxNdFbMIJmAwTwtx0Ypd5cj469oV10Y01nMIAUGu6LuzWqTWUHMeLUTNkcx2yPdjORG9BPYRe2ia4t7yqBwv30evQOvjVXCKGbYtG6VZso2Ml9Nh8s1ZqyIwdPsm3S1ap0qM5ohVe/TjI2z4npqH8MHOirR9QXRR7woNaaq8gIDVdYaVvR6W/4SYlmCNBeEZvPSBvRSl5V2yBN7v2KRa6W8tWsla7A7j7W5HQd5tbc3ZbVHq2MKOr6Vz1fmicjn32UlMN4DtfX5GWMSnkO2FtUA+ttlR+7JD/L96EFfr/TpWl+E2unTL2PRxKVJVWNOvPN8b7cZoDVrVxVNqIexfqmTkPt11oJB99tu9TzQBXhFfP5ewNVFHFPY4DLHrN2zzD4dZ3C1O6PutJjsCOKdpxsFrDSDSPV9ReK+0xjqmQRbaV2CvhIwo9m4RP2xVxxoMpYu5PupdwFMlR6MvvaKWBljWbe+mmW0GNLJ7k/ygu+OFFC1ifvXQ2mgahSJ7YJNKca5zuaVGpHkemL2JghlsDqdxgstVMTrtktcbXDAlaxKEBqimFGM0VS8UGR4neI4KTnfS6kCn91qiEGM2aYcYN6BDDTQYRYnCo0AeaXl0N5paIIqOk4CO3I5NuqIBLDSKXIiMw6rHezOjJXW7EK8u/GSDK1JEKjxD8lbSJ9s8thEvawKTE/+YYBXR322mA6q+lmtvpAtQJxaQ+ewS9bFKOJYxrRBpVtcmlbEnr8E9+7wtUe7DL6DWFt8ErEH1yI9xxf1k/Uk4N7OTNaXeGD2eBCc6zLZT3Cdnu4yGdLq813MxKWtYJ/oE1TZ/Lyjz0N/ayFOYtxLw+ksshN199u3Z7uA1yF+7m7swmgXgNtk0L5oDD6a1aV/J7k/0e/JvfZ0Buj/MoMUavdfRrqLqMD1NbTBoMoygBKxTzei+26yEHF6mkslTOryOFTp8o5sBPMU9QBVaX1ppQtrPNij7rrtNA+4DdaqDB8hlp/wGDA9wQz2QGKspMUiuZ8/D0P+weUb7wgI82XQeOc8mnSJtZkgy9Y+PCY7IgGilBYUTeyUSoUS/rqsnL6tZOG6YQfDBUeekhggFRsUtBmfdl6+top5KBkXpWPlSBZNuvrEb2wjlloKORiC5hHl3rNT0sxwF1DPGMXEWDtQOzEmSCAWdKjDd/QmzXZFDKp0MUBO+yLhxpALWspBAkJyL9qGqCc9r60C1m3eqNkOUo/S+ngCUbVTDNnp04Wl6s8OozTizdTRebGxVPptqTHoqSFd12fAeO/qGWBjJGNy0tnb5y/hs/YCDPYa2ncTswUbGSg+hk7tJY9XlRe6TCo6hdLhjLYs8ySbpkdT5wG6uoZ6tJ+nd6DX5GTaIrMn643d0ek4al1A1aYu74pOc5OVwmmF72/eaJMdPKFdwYzBjfzdXzKwyroWMVb3MBO6B+nu9ugSvUPgOtLSIN2yK1T5uAWjji4Fi3SpLUR30aUo8a/P79RiD9azm+xHAdkps0IeD9YKqrS+mWW8+wSqXsr9MNmfr2Zg9aheiOoJsOOmwjBj7k2SeElCj/GIa0V63mVAwvUtENBkycEVZRclu51mWQV/S4aHhEN1Pr4YlFACZdtx2swSaUYFtOPOa8ab/SjtDbnkTMmCKEpscItiwKOBmAR1QQyqUgLVI613pc/XsWPQUvFcUbSa2eHrSVAIlpLwN3AxEqakvaGPmi0Vv0X1xaWjPycZM8vYDWilMVpIlc8gcOutFqpyXkCgSruALqzjd1pZ2c+YwA+kUMraJpktGcgYnM5cwhXnRg/iNCleg40VFKV60UKiJa7vWWYGVlImEYvZrRu71Pkon284A8ieREpQapf2X1oDCLuYyVuLeS72aI86P8NZrN9t3GRQeqoLqCIAsznj+ykG2FkTIcUWnWCQTG1Mu+d+W5T/XpTfMlhEKq9mZrEbg3ce2ZsLPH63a5eofRoM7Lr1GY+f96jBDF8KUKUTpTcuYX/0GSx3S5DspywOjyNdp43qYRePH1YGk0UhBTszFmxNZjKn1/Fe2Yl2/CGyGW7qi680iSm3K4rtmESj1SgrbWKWMVWK0ZEq4oGOUYpgu7ZkqIZcR+XECzoxiGWIWUYGCyL1oWyHAZ8KjialdOmCi4z4Jc/vAEx6h18cUxW1Y6p0Ehwd8N5+viDh/otYiDQIY8RJ1/ViOYc24ELMCLWD6gM/ZrGiKLGLcQPnMI6hkq4/Car8OBYtuZsvK3dyR7B61Lm40O0bo1j5HP5qUHU5iVL2Aw50rM9Ql9W9ZQySOkceDRaP8+RfSgEFNGE8zAN/wzjPCK+KbkR6oO0KT2znf8LrTY8vVyI9vUMVcSB42o6wALHCcyVlsqHBlmKfnmKQGTBV/xh/PpACVN/Ax38XnbFO1L4v48ExbVv+ErdlvwN0mHiufgUzQ3SXhkhOOho8nMDqfHPJCU/vMqxfRLu2GAAc4r+TbrUC9/c7GUycTzCWlBT55oxJcJEnwbMGY0CT6puZCUjaDQyyPoPVrjMd1nIzt3va9ebQKWNwKYDMiR6LH4/r81RKX9jo91Gnz+pHQd8yniEJSm107o4N+bxX8TvpZrwPOvbNZKyq3JeoX16bMt7t4j5zjPuGBl4VblvKqzmeUfen+NxL66irKNHnD/E9vAarN1ns5Pv4ol7Qud3HxBSdtigBpjr0jdQuNxcqOFpKMwmwQ1pJBfF5yXJQdhyZ5JdcfiqmPJY4kOiHZRdUHJLRtpoZIl+Wr/YFKndf2G7ryCBb2nykFXVmZbGZvdGMGAeYx2SO33ZlqpMo0EU7AAskTxCIOm7UEFHuPwZwIUs+xCn1DKDXQZp120m5jjdF4zipyMFgULRo5FgIbVX3Bcq9qMU/zf7QbjPjHbIyALO5GUHvKOTPXuAZkx1mOO5AHDRd5IElMgYZXbnHeNJeZFYgKyiYJvzbGQzQavYR43OaKEicMCtpMU3sD+LS5TDbKCBqMTOxh9mh5LPQM/8j1xP4mNAAAVVmIt7Cg9ZQCk2/i+tJSwSQO+h7POEOpLCDb2TwcYYpfW0Ewj7Ag2YaO3iCQdWFNfQbna5pE+LUH1YXgORyvznP7EnYY9JLMlUnEWuLpYGhY7j4rfJ6d94zfL69Kdcjt+yHGFR9yvicJsH3879ppttkxWAIHuF3KA1U0ST+K3xPn0oAXtq19Ut8vbT3KGTwdhSXbqebx9dY6sHunFvHxL9W0yBzD9dXBd03E5QQu5XnEizaCOKdpfP8ntImifditQ6d2WeqDOiT/foUj5kHUkAVuf9+jvvSWcQuUmrT92G1DpgJ0B83xpaLZeBOc9+8wCyskxhXbuIxh46ru/0xC1YK6E38HcX59Ez3n0NxPVITXVxdTOyDroUBWwWQB5pF0sHdlqm1pNmkeJy2mC3R2k+U/89uz/EBl8Q5kjkIdQwVATJy4xG48xOLQ/NPyaj58jgFYAydqig+Rp+37eLzA0MSi4GbChbbQFBliH8agqvmE9viXq1Qi3killfoaDsTYCUqIUpbPFlxW9s9kf7lbrt5wp1BHMRoJVYemon4vij/lRmTWZ7g386rKTcxiQ7yKlz/jiYTiht5G0/yTsZg8QBPNN5PaH1FBmtxNQOjpCZOi5/jU8ZKvmL8VrsrdA602zJA1TUMXDRAokH0m1yvt6YAFwI37+DfPsCT2QSD5jszWKrz3D5Po/9A4gEGD7/O91JGdkyZKQRKcRn/zM/Tb/vqXVQneJKbTOk7dN/PbRC7GTHD+g1RPpzyfYXb6ze5/c5xHd/J9TyccV56Z75jgCrN4nyfGcSdiYGI2vAWbtcrue5qfP2XiPIm7n9pcxtN5Hcb7N6lAlUnELsz00IiNPN37hK/k7pNfp/ft1IXtkozWtrt9WUeb3TbU13/MoPnGa5zArgv78IaLRmMfLK+CVB9m9t4MPGdHkM+wH1Iy5O8hBee2zKegbwEX+UxeCP6u8cLieO8+CsnxpWtfP/03j7jGhRefBS52yyrEzdZGRNsIoxXCm6j7QCTLJXklCISZ7dQFl8qUBXGF9UaU3YUJ1nWpU2cWAo8UQxUSAmMPRmo3layitjNaIIqed6wk3D0gzbDJGOzfE/GZ7VT2YToCMqPOCmyBFXm80eGplbA4Cbiz/0YhFFiaAJtkkMNxXW8RgeDtX5AFUk9Kt8nVfOIGTnVEBJwcg7EdhzYqiiTNbLMup11OCKxdgIgFxwr7SXycfkBq6z7Hemyuk4bSL/Bq/cqv2Rf5cllf8rxBAg+yBNOgweOsS6TJ23f/coGDRZrrYd+J/jAmPSuw+rdfQGvOg8lJpPFLgzRIlbLK2hNqZ3GCER1+BjX+RQzWUmj438VStl6hVfwm7u4cO5fxwBdYDC5b431t4uf9yDWthMs4knrbAYr2GIgMb9B7X2UJ9vXcRu7KQD2jcwknOI63trl3okBuJffF9/oSzRhk6uW4lZ+HukSGzdxmWYmY6zLZKvrggLYv471u0KjPj7Xu8+Oc/8dT2mXRZ6sL3V8ZInBydVr/N1Wfp9MUEVj1ruZpezHtBv0VAb7OsPt8QC/h2lM8W3cz07x990STlOb3sdgvLXOMS7KAOJP8H2UU8aiV/E1n7H5JjpWRQ5NmLahpG7GVtlWdrA67zZz+L4o/oly5VnEltDnjg2XjhGgImBFdcsyQVQod+y1Ex1HGtOJ39Cuv1AlSW4nXyb5TjMjThR2ALFQyhkoOiyyGfAEPksghO3rKKbJYlDVGexOO/skMKJnIb0tDlRXxyggo4VBYeyyC7X0g7hWq+WhLkOxxBjRWtwQUEV14DWbqHs+GhLPKaZPMoAyjU5LAU4K8Cc6Kblny/R5yi2C3JesqIMxbG8ftBJEFLlRRXs6q8HZWpSnf1IswMZoPq0kXDcNnnwe6PG7zTyhjnQ5ZoFX8t/CxQWcBsh2LfWTTzBAth5NiDhWyeFBeTwFeJ5G/660lYyVvMP1thOdu3UWmAG7v8d5tWtyU5dj5pjR+EFKnV+K3Iv1BJgKMwb8tPpfZuCXBsYaGaAq7PIcUZfn8xn8fakHy1JhZmOqR3+6iydWP4PJ+CJ6u7unGMRO9TjuWb7eE1ifhliQMb6l1WPIfWg2Y3w5y/XXSKn3tfStaAPHMG1awDjZn5pYWxxaxMCxWz+htv0sL7S6sb+7GTB3U+T/ETNfFzLqI+xRV1nj46kuDLJmpmmRJwOYVgmClYh9cAwV7g66IkFfRJ3IqiLzzbHGlPyIkimHHM1j8S44dAZrt0GOyTD5xhUNKQKOuYr1phAH0gfMeEUxAybTtSTu3GoHjfPOPz+IybakThW79ix2P0r3XrOB1soyQtp9KL6rrjSwtFxFvSoOr4oFY6smalksVqOC+LeIycDCgdoydkSi7iti4V4cuugeX3EGMOoMYlurha3VJRQ9AkOuZMWWL8xgcXYWjWZV3otNTBxnHVLgyupMlJ2KzTOEq9qeQwtDBJJtK42taVxmoErrnVxswJuLzkBGWimR6vcnRPkCsncaafdP1vXphf4IVK6y5YuYzC0GIOUuk+BQD9eAFm9Mc2cNGu1Og99reGWbNpn0uzqnY4+lsAo6GTzFMpi7C5s84f8Xnjz9HnWeNUBTfNZfQ7njqin9uYje4oRrNce4H4fruZBy3VLKdWeYEUgzmmCeS5kMC1yH5ZTPBzNYAz1aUAzU30O5u8926S/FLnVMcw8Fmv8dT1hpY0aTmYf/3GNxolPkdGsPAsf/kfvFescoLSRbSHl30nY1LnJJ02m6gNUuSN3ulTU8o9XlN7iIsSItqN1aY58/yGPfMz0WjMTwfwydsY5pfcntsiCkcIv/xIxRlrekxIvXwYzzaBkHK2WBdTADHFrc9rTB6NU6OLJDNK7kOrAc9Fbn6Qx54p5F+f60cKclXYkus1f034HEPqGhDxW1JQsomFqnrQk60rlwILhmWAwXYZzWT+cP7IyN0qlnTKLFioyEy6ERU2UlHkbeiw+vVkWrWlX3aIt5UgCZYuSgIECMLf5XtAoYGZrC6PYJFLaLOWS0IgPSAwHAwmIBlS2TGLh2L1rOVsxfuVeAuBWETRnK3w6Wz9yIB+X2tKFcshbXaeg3Udg0jq3XX4epTYOwt2yT6XNKvofR4XGUx7fDra1guFAS9ynei9DlBARhzExZDK6imGnsePxk6Jyh8UUNusm1JPOYAqrqlxmo0ju0TNeDtcYBSKccsVNW9XchVtd+Hb+AvSYAnR7lPK/U/xIXn6dMD4gROvPa6ToI+gCWDuJkpbbxG60krT8nFuhafs6WccwyT/79Ci7OsvuBVrP7ESd21sKQ9NktXDdNo8d+DXHKjdt4sCwhO0mrzqlY5/v7PAPZLKBiG20eXSQ7q5c7rZS3r2UwF7qN0nZL0gT9NI/nZeMcNf78dMrq3E20oT63h9UpbtImMVowfJTr9a3MTOr4MasLy6UDl2ki/RsoF1/Uow98jJ+lwW2uRau73aNvtOlBBoCfwMXt+NNgPDDaXY8faZsRZpgdu4rvWderDpRfSOlXToKR1L/xM/qZZVw7RHdl837HQ6/L4q0XI6bb+Aizxnf1WERp9/Wn+fk/yAznYI/FZmC0L7kpP87nqPcBvsMEK2Ub72ExAwTTWPAIM2ZDibZoiwe7/PAdlVTQTFXbJYTOHXQZwwLNr3LpF8WpXUgItCD+ps1nxAc1BdDw/JZ0w+mNedoFF8dcRwlFdQEkCq6a8/9/9t4DzI7rOhP86+Xcr3NuoAF0NzIRCDAHMAeJorIoWbIsJ8n2yLNez9r7zXyz3t1vxpO843VYjyU5aGzZEilZokRRDCLFTDCAIJGI3OgGOne/fv1yrr2n6tx+9V7X6wQwog6/y0a/rld166bz33PO/c98EmEdEJTz9ZXY4lVmA5X0CxXJkvM5cVmBKyzJRjn5sHZN2e2pvYMAUNGxcUydHYIvIa73p7T7tDeKdhVAiqb1QFsnOvfeikBrH3zbxcZ5207E7Tnk1QSmfQWMXzmAyfbfRlrct9jkQHbqAFIzKjICGOUEqMsR+OJMh+WTi/rvToFu3TYHvHYHPKIQkAu6fGhw+BDo9KH5135LtKsDhTUbYRdLm9vtw013fASuqNBdx8/A3zkAV7BJDD2x1iXF3eeyOpByi+IVveVx6H1tVxYG0Rv7fP7Upx59bxdALeBQsNBQNZ/L7IMEqmJsDXKinAZmuVYruZi6eQE1y8dX4F02KTYKXL+PTcWdiwCqQd61/YSVz6UKMs6hfKonh/LR/3qu/9Qi1h0jsakES3HD7m6c15MAK9gUt+04yuzI51AjEekiC/Rp7p8erl+Mn9fN9e4yAUukFF7inSXFrN3Gbb6uRt9mGSTsZ7fW61icYDXDf5eJp6dRTt+z0mPx0mIUMWxIsvz7LLddnJVyjEvOZCd9hi1Sfl7T6ed5dqtEarTtFNfdw9d4UI5zWg7PFvXNn7KyIWBFp1pbFrEE0H0PsIvm5/z95awVKXYRkTvwZuj0GNtROx5O8lS9zX1JMVRv4eK5w9Iop0SycV80cT9FTADHMD9/O68RKd5UUb1ew0K3sszIIJnrU9z3DfxOUZi7//NchyiPnRx/tpr8jo0oU55kTMb9UhuiMXbDEaB6DItzqBmF+uu73DZ3cB8TgAkvYuE6yu1Ic/Yglg6NyPN4n+CxnmCg5eE1bXYR/SUPHxFA3sn3SXMb+6Qb0AGTBJkeoSwDLruufGXQkon2rOIu0K1S2u+F+fQwSqEIJ7Gh89MTlOXFpsKrluaNJCr/T+Fgbwoup7x+FefYtJgnA8+UPNmnGs1S1euZyq676pAgdT4+LJtMIRaJopRKI0fdkRBrfk7vF7IMud0hbF63Fb4b7kV7No62+noUdl+NSG8TZnJTSKQTSAVTmLttK6ayazEmlvpY4U3EjjyHYjaDVEHcX8kh1q4gVcognzyB/PEYcmQBE+9bUCnQvDT/ptWWKoeix6G5xE+njegobPCIfwcFeCLrWLCxB35fA9yJ5xA45ESdpwFbGrvQ+anb4J7YA1uwGfvcKsJZ8a71HcglWxDLFTEiyqFkFum0mLPZlD6XnaLPPZQw2sEWrFIlL5XsDXGpV/y90WE32yZKn/uljjd5J4UAzx+jnFMst4LFSO4snbwzG4K53z2BMt3CSV4sZLyJ27A7jBtcXudYEcxdoveUJ5Ie5EWvwJ9JV1qcAU9yibb6f1lp5njR9/KCdIHdQiV+x//On0cN14yzkomsQInt53s+wW2R4ns18SJ61GQxlXnkDvIzDzMI62fXpNuw+09yuxzjPjyyjN04LahP8SIc5HqtltnXzu1zlp8veX1e5n/X8Tv7uT1OmCi2JPfNXzCgVfkdJ3gMRWsov++yUnJye8n4tFne/S8lWa73LNf9Sd4sdKHsUpeJmGd4TB9nxTm2QmU/x20yyv3az33aaqi3JF6dRGUuwJOXaA5dMIA7F/dLCOWExdUu/glW+PJkZpaVrwRVaROgS+3zDR6nGQMQA7f14CLz+pDBQrvaGKsgf3+Q288o9Ps3eazJDAROw7o5yePgFM/zlaxdBR4Tsu9eYYv3WlQewMjwWBri50gqm+XoHGkRk2M+zfeVnoNjPL7M5vIcj+85tkrFDdhJWrcUBw/AClBFMVUtbocWrK5mi1WEjyagyrAyODj+SR7117iSyLJBtRd/msurSCkleBWmTpIWJAMgkqftKjgy52ObdFoDzZIlqQJq5KlT55MZqxWEoJTaRUuNk8lCSWXgEkPB4W2Ar1G0Y3NYqxjVPk+AR9Q1sGMrWuqcSGYyOOhXEGl2Y9B5GhfOvo5oOo68W8FkQwgnnCWcmxb9PCTm78ykHjymMEeUV8z5ghinSdEP6bT+vjZ7Jalmrfgm1ZBWSaOfyOnfDYhNelSsny4BkhOinxPic18Trl+/E31rNqKu04+G6CC6chdwa6AVrpZW+BwNSOcCOBOz4bHxFA6PKyjOKchl80iK5yf1F5+34pVdhYamFe0estvR5HKYBaqneNBd6mS/76Qc5vJuyDgvsmCl02hwY+RY+UzjnUnEKxetMd5Brkbe5LIUSKBF68VLBATPmSzu1c8rLbFzlgo8xEBWKoMsA5JxrCwnXozB3v53aJyUGAy9tYLrl2ons533o5eovrPc3y8ywGnmtpYblQRfcyk2CENcHmPFLpW7dOEnGLS/E8Sek2xh+/kyr8+yoj62gn4cxMpc/ZKd/Gdc3kkhwEHxij/idvcxoCgy2Jm6BH1c5I3SUZ7bzQyqpIszxZuE6VWO08cuol5y7NW0OktLVcViQoqyyWGHR4CrNNQl3X4yWoLy/klPkmZUovgq8QsZvRxazyuI5wtIqjnUk6WKD6VpDOUUMO7iVDTQA9XncxxLHx6Ri9rt8+BIYbfdPPAgigW1xKSgkpFdj0lSOU1NKZ9BKZNGIZZEYSqCcFHB1rZeNGU96G8UG6w7bgJausSoKGE4PYXx6BQGvZM4sFHBfoFBE6lRFGfOIDd0Hvl4RANoqniRgsuJnMMFPUs0JR1260H1Wm5E8VnBrjeKR6wzbmOQvTwQoFaBKnUheK1mYqfrCalmEvozKcFiZgwHjo7gyMnHRNs7tITKTrcfwXAXdoY6cV39BmwJrsU1oVbsbqtDNNmEeNqLM1EVz0yl8PiEWIumxFqbE2uBX9TZ79KHyTzm1QGwz6GgzmXTToqamIc/aJaq90pkmgwjMUnpAwZIaymGd7P/V9JeCVS6d2WbF6zheMkkx0p+ssqf8U6M6yjPo+r+tNafd1aSvNYr73Afy4D+SNVz3q/9m3ewObOC0dUlFGVfwIkWpx1DZF1RF1qBKoyyrOC1oyvFvHacX9Xp0rXgcVtRZ1UXEAuJgoJYUadPsEvEwBYlVWpu5nZSTTLjqIYA93nqAz5lqMd16cmFyXWXTqUxMz0D11wKORoC8agWZx4OtiDsrRNDQoUnEIZn1w4k4nN4pN6PMy1+TE3+ApHhcczEJjCXnUPEnsd5jx2TAmiCTtTFBOhIzuqcU9o7KroVyiaK3aMDKgFodEDFGZ1LXFGbsjyOKKMnU7FJ7gmUEz6rOv2DaG+dONWpUyeIOqWzCaTTCQa8Nr3O4j1mZs9gaPwAerxhNHga4fe3wutfgyvC63BT6xrsXNuAOyLdmJ5owdtTSbyeyuLCnBgaMXEvp6oDLLt+giEgwHKDAMELaao0hRX9EACDDyP4eLdEtdr8shb1XQSpVn9++OfRpaaLeEeFQNVZVPnb3UIPD9Q50e4mULXY+mhk/bRTvmQBqopaChedmFNnGHeQtUSnAkW+ZEOmoLvvFEMQuSqDzVE+/VcOU9fMXpWEoGTRqqB7YBoGLamyTvDpyJfgUzzwN7Wjroleaj3ydWGkvU6kXCqiSReiShBDIRUnVBueLM3ipenDKJ08IPZZZwRASfEhZ7KguXSw5PTrlAjuNqKIR2VWDunGNHOTGj5XFRNSeqWKrF6tpI2A8XcZ5wZDjBib4+xeAX6Mh38UHXxlkpiOz2A6cwYvFzO6S9IXBJo6cW/DWtzTshlbwptwa3snCq2tODHrR/OUG68Pie3mRBHxkopEXrc+knswLABVh9+p5Xk0sb5MWqDKEkssscSSy00IVFEgXYXvmdx/zR4Hgk7W2jZD3M88T5RaecSeWdjtFLAOmVfPBrtDgcuhx0ArQpFr5KCcK0/HUMwtJQk4tZyBqk7yyScPdatUUQ+aZ5caJVi2ORzlE3PFLIrJGNREXPxMo2BzoNMXws3brxPKP4jWLZuB3QMYag5if+IInksMYX9kEInYBYGdJpHNTgvQkBHVIvoBUdlgG1uI2FI0z9NkM1iKynUsu/AWmPCqwFUV95ORymCe4oBjmggk5tPiORndElaifINZPaZK6wt72YolT/XapCVr3ifLQIwxDsVfqW69fpS/8Pxx/PTMm/iF+iP4/GG4GtqxpXMn7mq7Dp/u3YKvrluPE5F2/Ph8EY+eHkdsfFwAtCya3Qp6690CVC1AVQTQ6ZRb3ppellhiiSWWXG6gaqwaVFHi4J6AEw1+J8z8O+YWK2ZCl+4/iokCOJmyqnFVKfOM6yUdIEmsprGcF8rMB+T+K1a5/4ys7Q67ZsmKJxKYSaaQIudlMoKwuwGull7YGlq168KbBjAVcuKtOg/Otvgx5Ijh/MjTODNzBieyc5i1EZFnWj/9VsjqPFc24iUIikYQ4MNWRSM0fxrOwJ9ltNjVSJFXBlBKGaBpQDFfLgIUanUg4KSqDJao/V2iHuKn26tRKzTYyS3rR72on8vuFoCVrEVOOGz00yXAq1PgTof43SXaWgBPTnINTkBd0kBrQePQyufpxOMcEmlRMnHMCPA2puTwzNQgziZnsaXuLVzbOIC1wbXY21OPgMOHN3x1eGNc1MfvQZvHVp37r8iAKmFNLUssscQSSy5HUEUnQKZgSPpIirIjIBR4yEVMoEwNJ0mljOSaagVgoFN5SkEHVZSfjywlRARKwdJ2Q7y7XXciGdgQSoYTbgq7//KGZMjKvMVFS4As7o90Bg5R40CwCX6v+O7mdfBs24Xk2i7MubKIxKZxNhTFa8EiDtin8IvEW8icPQoMHwFik+JNBWjyNQCuOlGadM6meWsTu9lkXNg8jqpOJi0tVFUASjUmTJTXqmW2dunGUzk+tqQXt/jdKwCRSwApm90Dp6cBjkAr7O4w6twhrHP40SV+bvA3o9MThk+AKq/DBa+4ngCXW/zuEf92CDDmshPQcmh8UjaDQZHi2cmjmxf1yIpnZooFjSsrI4DdRHoWx2Oj+PnEYRyZO439s1FES0dxe0MEawJt+PTmTdjZ1QFl0Ie+Fi/8imJ8bRols1jZMWlL3huRSVOpyKPo8vROEiuzMkqOFjruL1nNJQGsWZqL6u+6UWYINzHv6gdxuW6FRe7jQZkJmZ6dRaULWjIySzb4ktnWB2USU0kqaIwbkd83UiNXM/jJo+UL+P9M6iKJMvPc7gWT65x8nZ3rk8PirnU794dke5ekoil+Rukix42d+8tV9d7G9y9gYcqdWnV1ocy6bsbxpRjWlwwqqTOM/W4z/P2diueiegZQPmko65RC7dO6xj40jvFa22857oo19LUflQSredROKYMlxp/PMP7SWPrEsSTGdNfoL/nvgmEOqJfb4ipP/0l+mQ7dUKUg6LYjGHLqvEVFJtt0m5HXygR9No31W5/FpTLNqAAPDi0oXXfdKUwLQKzqpVIlAJHeMY2JnE4EqqUyYwIZtyh5cDKFdDQCVyqNgfp2NG0NYWD7LuCOGzDX24FnvNN4dPAoXh49gmjkbaSzk8gIIJalE3g2MRc8bXo8lARq8oSeZB41xHbN/y5pD7BYyh5UnuiTLjiNOaWou/Io719W4I5cQv+bK6RbxbSfYWz0NWFPsBPrBIAhgs+eQAs6g60IOv2iUxwaMzqRgbpsdo2ziixRdq3Y9NyKK+p6u2F95FUr3IRbWvvwpd4bBMjKajFtswLAjiTnMJmNwOm04Z41Wexp9qBRgFKX015OvK0vApOWleoDIdTpe6Bnlt/Eiz4BYqJKoFx3p1dwL1rkKUP7TdC5WxQG1sQx8wKvLYvVg55PqWZaUWZedxgWcbk+HUDt/G+k5IhV/Sq+Jz2b+HoiVQpRsq8Th1JcGubLu555QELgg3iEXqoaz8QtRqko6gzfk8BFAo4kt98bqJ3fUNaF6kucTnR8/mleg41CzyDCU0pM3MBtQMfMFyNfJIqOG6AneO3kuhGXD/EKPYOLO+5u53oQkWW/4f2dKB93j3M/UV3PL3E/aseNfK8AK2MXytGiJe5Ple/7Go9R1TB+tnE7ErfSQW73iXdo3hBx7M2iCIWjkc5G+Xkvcr+YASFql16uYzMDl+odt8sAkg7ye0ZNADDp5308Blv5+lHDXBtegd7fyPO2he/xMr/DYhLkvtqIMju8kX1c8lVN8Zi7FGSrH0hQVeJBOMQNrDETE7DqDTjRJsp0JKtZN+BRKgk2jXsUO+f10+KAdPcfBXfbbIp2mtDJrrv5/AolQ4R6Ngsll9cBF3NRaWlexNzKUiLixBwcczPi8Xa4m9vhUAJo3OnBdN9GTBUz+E5nGCeaVEzNPonjJw7hUGQYEc2ll9LdaVR5AlRuUZxEdcAs9aqRZV41B9XKgojySmuUBFs2e7kxKBCcABQdOSzKOSSa2iGeH+jCgNOH9f4WtIW6US9++n2N8LqC2OAOodfbgGZ3Hbx2JxrcfjMeqCopIF+IIV+i5MpzSOVnkS+mUChlRMmhqOY1q6GAsfqJTJS4H3SyVv0ngTI7pxTSGdxdZOUS7e9Q/QJL+9HpUxAW/d/uLmKtV9+oqmqFpYpe9AiWTnxqyXsrpITu4cV5Ky/UEhSfYmX8LwyulgLIxCr8Cf7OTlY0kpOI0vHcBT01yBM1dqxe/u5HGbA4DcVmAFW06BMf1MOswEomwO5WUT5jAFljVaDKze/7cf6pGqwcJcMEd/Ezib/pcFUbEAD8EivHQJWlTwIMUv7noPMS/YTbMWVSX0rA+ksMmi4wGHqoCli5WIF9mq8L8FodrbGW7+FrKefiFm5HBwPmfQyif8ZKOL9KfUGElHdze6v8Ln4DGKZ3HWdQSkDxp+wNWQwA3s1gzYlyXr2iAeiW+B5/yX1SMLQjjbMHGAy388buUoOqNn7f2xiIrEOZrPcm/hvxNj1i0jc+BqFfZJCroJx+xQjmJTD/PoMjI9WRg5/xeQZ06wzjLsVtcCf37fPc/otZM6ken+X5WYcyMSm18fQiFq8wA/z7eQ64+F0chnoW+T6DvCl5FEvz2n3oQBV48RniiT6fXHNjwIE9YTd+MZNFoqjWzgU4b8VRtYBqNZ/VKREUt/axS1G1rCg6rlI0TyKKBu+hAFSQuf40LikBFDJZDZzZnU4ojWuh1DXAXh9GpiGEWTqJJpbv004P9hfG8HeJ4xg8J9awQQHyp8/pnKYBMb+8TcTqWT4xV+JToKVcGSgZLVBqFZCqyiO44EifMQicgsclxQPRHBRycAvQ5ne44HGGBJ6qhyu0Bn0NG3BTsBNXh9dgINiONl/9ktzdZLErCNCkASRxTz0mKoO5NFE+jCCRnUaumEY8O45YdhS5wpwAWUkBrrLadUXxvgSqNE4tXqvoniWNxkKfywpbGm02m24VEyDUbfOiw78e6+t3YH1wHRz2LuRyom1dTi3uroqiKsOg6oKFW96XYmfF/Mtcmtjkf5YX5ibehW5ioEUD4xcmLjAJUMjS8huifJnByRRbQ0psCdrFpYEX2aNYyB5Ni3If7+LDrKRmeCxJi0Ur7/R380I+wXUuVNVngAFjkXf6fpO1rpUB1QB/luBnVedsc/M7Vc/MFgYujfx73NA+0h1EdVzLFo0eruf+KnDmZsVG7xRiC1+Q3+1fUE53Y+d+2cLXmL2XdC/RvX5dlF/hz8dYsdkYsF7D1/Sysn4LKyeYVRjYbWZdAb6XJKstcj/2MIDby3V7GOZEjT6uz9XcJpINPW8ADRLwe0z6SVr8ruC2GkLtlCarEekmp5Qpv8fPKbElcpL7ZgOP4R6eR09XASsn9/Ve7ms5brKopFU2vpOtCoATKPtt3nzIHHRy89rF1tcdXD8fA7zIIuvAJr7XVsPn0hK4fxFQ5eWxfY1hMyLTusjsBE5eRzYbLGF/xnW+LLjgJKiKMrqteOkOnxNb61142UbH6U2y7BrjjDSwpGon/8BpVzTKA6JTUCk7XQmKPEVIaWhKjEEIl9j51Bopd7sdibkYZi+chy0yi6a2tfDe9DWB0+9GaW0XXhIg4vHYUTw3eRhjs8eRig0hSmllyBJF4695G1MWMOlmyZj+qFTluVPMXXdGK5U85TgPoPh7Gg8V35+oF1JijmXZYusU8zrUi40CON3c2I9d9b1o9zWhPdCCkCsAv/iu1+aE2+5cVjKUdG4O08lTmEmdQSofQSI3KQoBqlEBpGYEiCLARXkO9XybilLSky9reQxV3UVIKW4cehhEUYC+XCmNVIHS6Ohgi6x2ZFH0UQJoVx0ctoBoQp/QOC5MZrPI2mbQGmxBvdunBcWbVLvEC00UlrwfhYDA7dDzDjaxkv8W767nGEh9ni05N6GcF/BFExM+AaXf5N2umxX0t9gq4eTv/xLvoPexAvgvWMgSrRpASZ6VL5UTrLzDBuvLBr7vG7ybH6kaewm+R44X+rTJ+EwadvAvsSXpkMFyINMNZdnaVD2WJZNzI7/zP7LlJMsKM82Wt0+ywrqZwcTpKlAlE8FmDIp2M1sjXudny8TRcZTj3MxysTlYoX+RrYZgxf43XMcM3/e3WOnuY7dcnK1JKxHZzsa2JRD4D4b3o/f+CPS8bQQ2/jdeaP/WBJznDP3mYovmQ1y/MMrJb6Vb8VCVjpIgLMFgwqzfL0Y8PP7uZyACni9/Dj3PIoGHr/D4lJbH01XjRsaXyZ08vQMlhz7J485uGHv0Psd5nuQNVqVf4X7L8Zj9J54HYLD2K2x1uoLHwCuLgKpGtnQ1mnzez+OvluQMFjQCVU+yJXqI2z/LVr3beG1oYKs4zecfMsa4bEDVGO8kKwZ9p8+BgXo3bMSJUCgYgIaZ1cauc01SLFROKPmCiqJDv84hFLuTrVQ6a4A6zyRAyKqQiiM7bdfdVDMRtPnCuH7vrcgqLoQ2b8frd92DZ0NpjJz8Z7w9vB+H01MYSZN7LcUuNjKHibnncekuNg3RFat4npa7MTFx9c2f3ONxTyAqI/BDPsn7SYrVasT2hj50euuxvl78bBzABn8LNgbbsdbbhIDTtawaFIoZxDJjyBRimtVpNjWI2cyoAFTnBYCaFmA0iUIpIUpKAKms+Flivi7djWdXONZKAB/KzEdEqEUB/DKFlABSeXH/nHYG0CFAVsDViCZ/mwBTQXgcIYTcDWggd6SrAS57SHP7eZz1AmTVw+sIis8C4llOcb+CFgxfRWKaYQtC3MIv70vZysq+jxX9j1gZvmHYwaZYkXyMC/3tYBWoCrJl6S5295Fy+R+i/ADlGCJpuQiyW5BcEy+wspk1AVYysfshVMYWOVDOsUYWsW4GH41VoEo1gJDq7PPVoEC6bd5kd8lbBusA++nnQV7epK5yQSHF/3ODa0MGuJ/i7/0Ou6NuYEvTRJXCV6tcNB4GP8cYEMUMdV7svTxsEbiDXTlvsdL9kcHtmGQFV88A7FPcriexcj45Y8xEjt/fmOrmKAODOIONfh5LR3gsZU3aU2Fg/wbfa9wApmSskVmidtnvxSX6fbVSx+P8Jq7Pmwz6ZIqac/yziUHknQxoZgzjU8aGyXoPMTA7abDG2Q3WqeoA/y4GVAFeXx9iIAuD7o5xfzZyOy+2BlP/X8lg/ih7Fvbx57t4TtSKu5PvoqCcc/MJVB5O8rJVysmAqo/b5s3LDVTFeDLP8ADRtKXfZceasBt1ITcmteAmUYhVXPP0VYMOmw6qyO0nQJV20I2ng5YTULJ7a8tEUSh3FVrOZHG9LZOBu84LxV+HUjoD/5o2tNx5Gy7s7seBZtHLwTP4u1OviuEigPH4SY1eAD7xB1+LHniumbt4rpdyVQzwNYbGgkuqXH6KAUzRF8ilx6lwJP2BX/we8tTDE16HzU3bcFfLFmwNduCqxvXaqbxlrVAEdEpZLQ6KrFCT8VOYiB9HPDeB6dRxzKZPI11IIFvULavEC0Un+1wCyPnsjbDb3cQGZgwY1wLMdfdeUZ8FClmvHBQhBbcARwF3HepFu7X6BwSoGhDgSoA+dzvCnk743U2VWki8clbULSdA2WRyXNSziNZQF+wuhyH9s7aYneeyrEWa7jM2E0Muny+Pi/lltoSGUAANQZ8FhS7dPN/FbhbwblRaMox9+LTBNSUT7FYrqS5WMl28+L/CliOjeyfCynEH7/A72Wp11ARU2Qyus2qFUuAF+jTXJcSKtbTIjkip4VYxPqvAAG/OAA6WIzJ5ttxEJFGZXkgqWmqTLzCoCrEV0GUAVfI+Dv5smtfdXrYUkhXtgMGtqBi+V/1eTWwR62Zl+jBbEIxxXJOsiLdyvdaxBeYRXvNXAqxsVW656rab4XEUYkB1Bbsd72VQMFnVZzaDko4b6i3vm11BfWxYfiL05eywOxkUN/CYJmvLs1Wa5Fl2iXWylYbattUAqpSqOqUNlqzluF/lSU55vcrgWJ5ypM8eY7edC+XTiLVkgPsjwWPiDd6odPP46OY5V2uOGfsraWI5pfd7lV2W13Bd200sYx96UCUn3gkeFC7ZhD11bqyvd+HsTAbFlJhDARsn91vY3NpKoaiwKaUydqHAczr9R9YpOv1HgCqTRVTcKya6pJROoE7xoWGPAMs7t4nhY8dpfx4POyfwz3NHMfHG00hMndDXenEd2neVT+1RcLgk4DS4IRdQPxjdfaaAyuwaGyt7m07AmRXrXmpCD7D3tcMW7sf1TZvwydZt2NkygFZfIwIC4LhtTngczmU1PuU4nMuMYjx+BCNzBzCRPIrJxDCSubRowyLstpLGQVXnboMiT3EzyarCcVA62TyF9Iv/OFieLH6pXBQJUbICZHodfjT71iDsXYPWwGa0hbaiybcOPlcj81lJXqtyvXOFHKZEXcajp3EuchhnIwcEAMpgY+v1uH3Tl/VnVy6kh1GV7mgxGY3E8Ot//j0Mnr4Ae9A/3/5F8gunMvjdz9+J3/nI9RYcunix84LWy7td8Dw/ZKJMaeL+AuXkr7Mmu952XpjdbJk6u4hF4zQDbXLdramxsBqtFU4sjLtoZgDQy/UbRu1Tdct1YdnZCmG/iPtIK4lqouSb2UongWGsStHJY7dett4QCLqdXYcb2eo0xGBLXQIo9DBwkSc4z2BhYLhMtnyK6+NgANDFdSuu4t2BMsWA3eQeJxhc9XJ77GSgNVmj/70MHjLvk3nj4bp3GgwPJ0zGXokBzY95nL+2xPi0rxD4xRnQdfAc+hr/fI6tn5JoOWrQZIu5Z/r4+8e53qfYWtXN79rDYzKxBOCU4MpsQ0LjYj2PsSK3XfpyWXCNoCrGO6yt3CCaNHjsuK7NixOjKQxOi/Hud5SZxissVbqi1+yYqpGHqqSRf7rE38kyNTcdRXpsAj1Ccfbu3IGmT30G2HszJndswvPuKA4NvYwzJ47hYG4Kx+j0XkSsyYm0FhwNH7nZgoYULiWUc90slvG59q+Vf+M4LLqoIJ6ZEWtUJqYDKXcAbfV9uKphAFtat6Mx1INtdT24MtihxRktVwrFLCKpc5hOvY3xxAnMpMYwmx4SAOgCsgU6uUcWMd0bYVdccNi9WtC4na3DqpZwWi1jSD6BSEHsiWwMmXxM27w4xHcaBXAKerrRGdqG9mA/Aq5m1Hk7EXR3iL+7F9RtJjGKicQ5TMQGBaAawmxqHPHMNKYTF3AmchA94S0CmDVpAKxKzvPuZNnHZzO5PN44dQEzh4XebQgZGkj0aSKJ4am9Fhy6dHO8hRc4G+9sR6uUvAQ0Jf58cJH7NfHCa2PlXSsANc9ugRleyLt5B292XYp3tDdyXcb5/kEGDDeyW+OH7G6YvYj2yHGb0AD7VVYqDgYHKiv919k9YwbI5Lt2s4WoE+Vgd/Cu/2P8ucrgVboEYdLmkwxkSSmG+fuf5Tr8DGW3poKFR5Sd3Lcd/Pdp7ttkjfe+wM9pYutLa433XIk1pxZIoL5/m5VpHW/Wu3hsFU3AKS2i10EPyJ5l0CkPL5xg693suzhvPNxOAYN+HDMBfbJ+/8CbhmEsDMo3WjLJFfxV7gsnypxXI6x/q639dL/HuY8beMx1sQUtymD5JIPww6gd02pncLuRwe1Z/t4YW6y3o3woYv8ioEq6rb08VvfxfHVwP9bznL2N+1TiitOX04JrnHSv8AI2D6ooD+C+Nh9eqY9jcCqz6Ok/Db5qlilOeqwp/yLyhbx2ms+byqHJL+B/awt2Xnc9Gq67BaOf/TUkQhk8kjqGvzvxLI4IUIWRw9AQWFCMnYDQBW09Os+TPGW3KHBSF7r/ltrrSeuUytbsEsdNFbII22wIBdvQ0LIdNzdtwWe7r8bVjetW1Mj5Yprde1FMxI9hOHpAlOcxlTyJVEFnkve5fAKvhlAnwJtDgKnSfIJpzZknQFNxoTVZpYB/Os8n/iuRiy4Pm+IXoKkVLf4+AYKuRkdoJ7rCu8yAkB5rJd4zX8xgbO40Tk2+hnOzR3Ahehyx7JRm8bLbdB+uy+7Dprbrsb3rVridC0DkWTYjL/s0kV20a1PIjxkBqOz1wfl3KlJ6IpcdAY/bgkOXRmy8iPoM5vlslfJYy9Ynl0EhF3jHfbJKSXsM90rxTrq0CICREzaEclB2tUJNsYK/jhf1FCuBDsOzvgs9wPfMRbZHnttkB4PDOK+DYa7rMVacJ2tY3+TJPHJt/TIrlCzKfErb+B2onSmO5PsMqswUEwzWmUd43d3I37+Z5xTVr1aMiyRilGbjuSUsPSm+pom/58fFucvUJfo+VfWezSgfuzdaqeSpsau4DVIMqNu4vj9i4PJugipJ7SE1XqaGVUblvx1epI2M7bSRrU1JlAlgnax7owxyjKCKQPJDDJ7vZpC3gYuUk2x5epQB2KhJXWne7ub2TTKQkrGPFO94PYMkChN4psY8M/aXizcmDq63C+VA9S28qZhli9rjDPouO1CV5YasODXgsduwo8mDjgbieEoumptaS4RCoIqP29tUvf0n52IYy0XQnPfio1u34Is37oTjC/difyCPP8u9gcOvPIqp4VcQTcc0Ekw0bNLXVBsXLU7KQCWjVBuiK5ndKw2gkg/LyK2lGkg9bWWiTiLmTIsxnRY/HWJON+/AJ7v2CCB1LdbX98BvdyPkXFmcD8U1jc69KcDKSxiKvoKZ1CCShYx4u4IWAB5wezT3m34w0qYZ4QpqvhzLNd+4is4wL4qd0+dQ0PlsZhbJ/JwATQW0+7egv/lOrG24Cs0CVLkdAc1iZQaoSKbjozg6+gwGZw9hePYo4pkpDRq7HF60BXq1wPecAFxkXatzN4v7bkWDv23ezVi1mzqB5cemmIDay454990GVraqhVEKgRk63fRl3gnLuI0ou2/+YpFdZmkJV0N1WnFl+QNiXpH5DG6Lq9myczGHIVRDm0ilZjOAE8kWXeu7MmCa2uomEyABVlq02/8btjYlTdpNBlZT+7czgDrAiqiRFeC1DMiGWYEZA5rN7O7L6Y9SlQvn3RyD9iWeKd2iJZSZ7yXoUN7lOaNgaVfaasXFfe/k93Ua3lcxGVNk7fxLtkrtZeDeYbimn0HMZgZbf2ECYtwMmNp5E/yswapF3FaSYmG70aiyyLwHW8y6qj7Po3wS/AdswTt6OS22jqpd2Cgrxwx3ghb/7HfbsVkAq8aQUwCfgmYdgc9RJvCctz4ooqgo5rJIin1aIptEYXIa3dva8Kk91+ABux89W4I40BjDy5GzePbC63h85C2kJ84DsYhOyqm4dIZxja6ALd/qYmtF1WEQValKnKCUearmrVZM1knPIBdjJqKznNNzvI24smELrmrbid62Xbi5cQN2h7tX3LBz6fOYTBzH8NxbOD93ULTbWSRzYxrHFBQ37KItXKKQVUqrB1um5H8LQ75sGjkntUcqF0MiHxOvlRDAqQHrg9ehLdiHNeEr0RnaIYDPOig11iA6uTccOYqhyBGcmnxVs0qlxL3odKCdAZXb4YOHWNxF3TL5JPIC5HXVbUJbaJ12qrBqEsk4juyqli3TX5R3fQX9EIs8Bi8tGF6UU4zAACT8BksS/U6DfgLl2CCjpSdruM5bQ+FJ95bDYCVJmVzjYOAk6Rue5+fK75OyuJWtaV/h66tPHK1UoZVQPml4hpV5iFeHiUWUgCS4tPPzKfZkhNuD4lR2oszW/iTXM7oEyJEEpHlWdGRtoKP5dEKL3IiSpiKJMneVsS8Khvb3oeyGrGV98RuU9cWmEVkMKDuqrGhZbou8yfel6+hVBqERfpd6vl4eolrRinKRUuBiM7SdY5Hr/fy+8RrvKO8j6QWGue9liqYLbHEqmIyRNFuyJtjy08vjrIX/LUEWAaqPoEw8a3RDNvCmpJn7YSvKfGxkpa3j69oYnDVzPxQXeZfTbI09z98ncLcH5VjBx3lzcVmJo6rz8rzYnGAz5bwP5opGN65u8+KZ0zEkCXwYKeg4cJwsKaVsBsVIBA7VDk9LJ2xdG7Bmz04ot/ajkD2Pg+n9+OeDb+CRc6+xm0+MobAYF42bdaBDVhq1yEWtPrZfNdyquKVUtcp6ZRKNPn+aL6c/g8BUMYt6ux11devR1nENfq1jLx7ouhI+58pcUOTmyxbjiCSHcXbmeQzNPochAaoShbjAoB4EXfXinmGNvVzn8aITenRSL8+voZhACoW3SyUNEBVLWc1lp4g5Hvb1Ym39HvQ33o2e8FXwuWrz3mUFaEoL8HR26hDeGnkKJyZeEqDvHBx2F+p9HWgN9goQpW8S6T/qy4L4L5WPaxxineGNaPR3VN+WFuVa8ScrMx4oFox6h0SmD5o2uAEkGzIp1jle+Eq8MLax5coP8wBmyWk3gHJcjq2GgmswgJUxmBNAOlHmuCFA9ddVCtTFCugPoR/NtrFyuRhQVWQl9ddY6Jpbar2USpDihf4rA8E8KyniC/oNrmN6EauMEYzIkzbUBhRv9CB0NxgpqH2soPpQPu1VqgJVs6z8Wri9m7mOWRMrUAvK5Jgx7o/ixU3cmtaxJrZ4ePgamQqtUANYp7j///uqNmiVbXkpJM3tKgOsgzzWXVUWeRmrtJf/Tm6146g8tGMEIgTY/xwLUxItBuKd3NfnUKZxcHGdCFAR7cMDvBEil/bN0GMQpw11XMNjysVz/Ms8lz1cegx1JXC2idf2WhuhEvfXf+L1n+5LcV7/lsdt8R229n0gQJUUMg2+zDvDeVSxKezGvk4/Xj6fQjJbrLQI0Sk5lxOpXA6xqRmUzg+h11+PrXf9JnDfR5HYvRY/yr2CB4//GGPnXsJcgtx8Yv7X9+tWGs1SUyyf5KtgNje46iqMUzXIOo3XqFVH/Qi0EdUBAamk0AtpsTbbxVrWuhOf774Wn+m5Ft2hLtQ7vcumRDDK6NxBHJ96FCcjr2I2NQaHkhNAJ4Cwt5VniE0DUQqviyrnGKygQ5BJpDmlj6JxTzk0F99cdlyzUjV412Bry13YLEprcBPc9iCcdm/tlUaAsZPjr+D184/g7Yn94l5xBJwhdNdvht3m0qxg9DQKdi9Hw1Icl364qc7dhN7GK9AY6FqA1VghX1wQota/lYm6LW/gJQVVsyinrpDM6mvZSjPHwECS/t3Kxc/Ko1oJTrLyvxrlE2TFGs9tZUUuKTemF7EuqAaXSLVl7AXeEdOufAsq40lWKpK+YW6VgEIxWN7mDL+Txeo1bjtSdHfzBvWZZd5TWqAOsZWrjq0Pd7HCiqEyRk1aIUcNm+AgK886VJ6ys/Fna1DOmBHjay6G5VomujZrR+qrGxlUJxlozCwCMCUVgGeFoMqouLNYdQgCzDaMFxjAd3P79TFYHK0CVeQy+x0GIuTy+nvUTs1SDYwXEx8/u5sB0AlU0oBE2bo3wmD5AZ637Wzlk1LH/SFd6Y1sCZUJYEtVG4BWfte3FmnzDNclbqjPK4wdyG29m+fCi7z+FC+XBdcMVNGCSeRmHzWYBNHis+OGLj/WNsUQGRVjP030CnY9qDspxvJsEk6vgp1dA7j/l38f3eu78cY1N+IXjVmcGv4OXhp8HoejYizGRPuqRBwpitNfdvNVuPiWslpUWzYWiUSneClyWdH9c6L/Y1M6RYI7jCs7r8VV7buwrm0nbm0cwBWh9hU3YCI7ibH4mzgfPaS5+SaTR8RnM7BpLj6PADw+uATg0bZ0amnhxk4xG7GKAFJ6+qtMIYlYlnL7JVDnaUF/011YV3+N5uojaoTF2ipfyOHsjAB64y/jxOTLmIgPaqDMLdrd4/DDK4AVEYUWRPurGqeVnraHYrwojiqamdROCa6t344eAcCIG6tKLrALZeySjciKBNaWXKIWTbFSO8uLJfHHEB8SsVxTMHqCizF1itytF0zWh5fYzdDM96LF82couxhtvLDezqCKFv8DMGdUN+bds2HhKTk/g6gWw71rvacRnNUi/5QKxANzV5kdtQOwi4b2KFVZRqK8wSBlegWDzqvYXbOYEi0ZdvVghf0gW3nuQmVqk7xJf0yw4rqW++NutqL9tOq6O1A+XTnLCnNsFaDK2LY2E2UZYKvd5wyK+xjXZ3aR/pfxRYoJCMYibVg09KkxxYtkKpexXCsFXCXeCBxkwEpA5D62yhjJNwcYzNxqGFe5qndUqyylbpN3VEzGHYHgT7IFiOYwudO+ZwCnRf58FuW4LDtb2IyWMtpA3cTvQOPrFzxu3Ay0phmQ7+A+W8uWt4drzB+puUpV85XWkDfY+ruVx/8VvCm6rEFVnCfcaRgSLJPlZEO9Gzf2+AWAyGFqTowbpx4/aC/Z0UynBMNuXLVhI3z39uJASxZ/lT6Dfzj+FHBElFnRbw1inagT45N4nDQgVeC4qarcexXgymitMltK1cq9rhGtyKB0okcgws5cAr5CVkti3N11HX5t3W14oPsa+OyOFTUaxUXlCgkBOkYFaHkBJ6Z/iqHZN5EtprVYpAZvm+bmIxBFKWAKpXyFNapsWFv4mc2mB6uTlShfTGixTkXVhkZfPza33Iwd7Z9Dc6B/0fpRAHsiN4dTk6/jtaGf4OjYs1rcVKOvE13hjQLoebU66YmWCwugLAWoU4D9nABVPeFtGGi9DmFvs5l5/CAvmDlY8n4XmtOP8Q52DSu9Sd5AlXjB/QIXFy+WThMQE+EdKQEIOjZNcUS/xrPvNb5mM7sXbmJl9jKXyRpgqMDgaSODtLe5njYGVJ9msFfgZ5yoAYZsWMhQbWalcvKiv483jiHDu8p3v8DPSVd9325Qjl6UGdpVds0QqPoYWw7oNOMjvJZma1hYjPeUloyXWfFdzfVTFnmvGAO3PfxcUsDDbEUY4npRu36JFVyMLWHPYgUUKFVtYDO0QR+3pUwVQ0qZmMXv4fYh0C4TS2dqtEGJlfpWHjNU/wYDUJCWwVP8TqWqexRZl9Gx7OsZLDQZ+sfBfXOEwe9yFTyBF4qL6+d2pbH5CQYmMgn2p9kAQXKU23XE5B2ldPO8eRtlji+XYWyeQZmCw8XXX4/yKd00Wz+zBmuW5Dhz8cblOZTdhDbud9kuBMD/Iz9D5nKMsNX5AbZotaKcJ3LOAJyM7yKTKVdvTM7w+O3n/riL59FlkxO2FpqIccP0ouxrhcem4K5OPw4NJ/H0mJiPOdGvnjqEO9rw7zaFcFePitOOQXw1fgSH9j+B2SGxvlD+OacY3x3dusVIqWI9r/C4mqIjE2uUstC1t2CqOnR3X1a8SlyMr4yYS8FuXL3+Xnx5/e24vnUL6l1+eFcIqDTUmZvCyYmf4ejk4xiNHxMAJAOfK4hGR7s2hul0HIEW/RVVzfJkdOvVtmMrcNpcyIv2iaYnBagZQdDTgiva78P2tvvRFtwEj6NuyfpNxM7hhcEH8cb5x5DOx0XdQlrMlF07ZWgT98/q9ZEHIis8b6oGBDU2dgEKW4I9WNu4TXMTmlgsDlzcDqRGzBufcrTkksoJtoAMsNWCdqX/F++EaSO1hRdwB+9iw6ikNDDKMLs4mljR3MnXHmOFN4ByklsCQX/NljIzBS1jnGjBv5+VcpR/d3E9Wvj3OQYEh0zuI4O0SwySPCaDzWP4943srpkzrINSiafY8vZf+F2NVpjGqmurQc45tmbsRTnY/K+rQJXN4HqRBwRsVcDqJX7Xj3E7OBlgVfv5s9weP+Z2386Amfr3MLfbFgZW4Dm7mHtqKUAVrGrb+/n+WZTT4IS5vjSO/pKtKwkTa5OMp5PA526uv+T9sqN8EIL65H9wMSax9hvA5l5W5knD9+UiQ235F7y5WC4RZcoAqmTw9if4d1r/2nmchxhMfJsBTbxKxxpPlNL1f8R1tBnGpYOVHFGH/H98fwJeD3Gb3sFt838wkJvk69sZjHbyPZ/iOk+jnBB6J2+k8jwfTxuAkjxIMcXjaIxB1RoGa1MGgCb7y2EYu9UK9DzfJ8vrw0e47UdxaVMIfeBAFS00P0SZy0UHVQ4FV7V6saXdi6cvZNHqDuG23lbc2G/H5obz2J98GT8a2Y9HYpMoTYm1KJnST/J5xVrk8hEJkd6u8jSejMuqhaVUtQyOlRpKueK7lBPHqcdnZcUrpKc0AKe4G3Bz93W4pesa7G7dhRtaNiNgW/lp4pgAOcPRV3Fq5llciB7GbHpQPDYPt5Ny5wXhtnu0A5H6+T2T8WMMqOd/E4ixafn69A1bNDONJLkphZ7Z0HgTNrbchd7669BZt2MZ9ZvB0bHn8ebIUzg99Yrm6iNAFdRy9wU05nUdLKkmkFWddzsmc7PIFOICiK1Df/NVGrCSNA4GOcCWj+SlGYrvnb8vmRbzn0hp8wU9DdOHU7LcZ7Rgj7NFgBZOY6DcKyi78fYZdvpm68PTrAxIce7itcI4SCf5ft/ja81oEAq8+I/wAu1iy5RiWMTl815h681P+ZnV95lCOcYpYWI9laeoZlEO+m5kpSTdLsZB3mKyPqbYeuFHObFw9WQ6zPNiDd97F4ONmar6So6vORPAIUlDH+J7XIny6clap8N+zsr7Hu7b6v4Y4n74F1b8q2G4loeZJg3vE2ArmQ3lZNQjKJ+uJCtVLdZ9mS7ogqG916DsgoVh/BW5v+xVrr8IjwcZEF/HyrxaWlDOJ7hspwQbGH7Az72FNxF7uIDH2Ut8zQ+qrFTyHSVxqHT7SSLe6ncEb04kWM+wceNPeFO0jwHdGhOvwWsMXh5mgKfy83rZYgS+1xtYGJcn21Ky4HezpXAbA6xzhndJ8ngt8FyqVnSzXJcXub06GJAexMVlQvjAgyqaGK+iTAaqdTJxKYU9dlzdE8AbSRt6vSHcuyaJDXUn8OT4c/jWycdx9sIpHcwScWfzGnbzFTUizYUgqIoCAatJflxl8aJTfUSTIECVV82jo64LA1378JsDH8F9LRtXsYqUkM3HMJM6hzMzL+DIxL9gJHZQfO5DnbtRlAYoNjtUSgxdKlSCpwo8pXDsvGpKHkBB4rliCsl8Ek57GN11G7G3+4sYaL5zyToSiWciG8WB4Z/hudPfxdDcEXjtfgHE+rV4LgJxZJ1asJyoMK1nIjer/XFn643ob9mrnRA0WWhexKU49Vfzs3cPZHW1NmDDro3wBHyw220f5vme5kX3HC+gu3mXq/BC/A3oRItBVg69qE0JEOVd9Ql2Z9yKcgD5MLsoHuMFtpY1M8OLbZBdJxlekyTtgYyFmWW3yi9gToSZZoUhXT6vY2FQdI5dHk+zEo+gHAMj43rsDBKSvPZVA8HTvNlcz4p0wgTkDDHwa2LX2CkTxZPidvspA1wzjrcYv3MD7/IT3Fa1+oPu8z/ZunGc3VVd/F6Heb4+fJFzVp4kfRZlOgZJCSHJH8fYWvECg/jFFvVZvsbGgClrAPIS6EqOqhxfmzfcM8197WVLTdyg16RL0MPj63mYnz5crpX3L9gSe4ItRi0on5z9BYPaaI2xeYItiT38u4LKAHsZZ+VEOfG4fMc4W56OMFC9msGyBI4T3AYv8HUzJtZZSWj7GBY/7TrD9fQxEKt2W8+xpe+nfO+XYc7BRs/4Dr+HTJZ92bA5L+X7ep3B1V6jG+DeTj/6gw6MpIfw/emn8NKxnyMxMYRZCkCv36YHn5NbjRR5yRCnpyylN5XKPyoGi5VqBqj4c41zyqYHo88NimErxoanCTvXfxR/0H8vNtevQ5svvKoGyhWSODL+QxwcfQhjiTHxuDQafWtgt/ngEO9JcVNKSWVDmVJlaKty+VVRQGiWIZtTgLEM4rlpRNITaA5swpUdn8am1rtR710eP1YkOYonj/8NDlx4AqncHDqDffA6AxyEnqtsWpNDrnpsuN5+uUJGi8mq87VgoO1qtIbW1jKJH7ro0VcRwvneufs+e/s1uG3PVo20Vrk8qB2OM2jyGFw5OVZyKivwn/AiH19iJ3+UQdp3Uea/yht2tMUlQN6LDBYkkKqOQZGB56lFrKJJ3qXvN1iqkiYA7gC/u3Q5mvEs2bgeaSzMZfkWu2Wchr8XTCwTBGL+b1YkaRNlm+T3PmywZGRrKLkHWYmVUJlw2Ezy3JakDL+JMiN41mAZuxgpMDAh4P0439tWtaoUUE49tNSknuK15HkDkKpFzyHHZdZw3xSD91dRdv3CpD9thvfPr/Ld57iuL6EcEF4yjMvkIgaKt9haZ6xjlVVgviS5ntXzhsDs93ksGC3IBR5jZvMjy/PzT/jZiSU8CxneBJ3k6zNVc4DG8VPc3jDMcbO2+gmDTSzRPpcdqKLGe4R3tPNS57JhW30Br0y+hBdPPoTBCQGEnWJT5Bfg2cWpkipy8ym1sRNq/L3aclEBTCSzOoE3sW7lE7qrj0g8HX7sXXMLbuy+Gjd2Xo17WjZr+Z9XDKaKcZydfhFnIq/ibOQpzKROiqd64XeF4HGEtBNyOs/U8kOKyq+gamCKfk0XYgJMnddAYV/Trdja+lFsbL5ZS368pG26VNTcfS+d+wFOTb6CZHYOIQEm/a46jUWdAJWMnZI5As3xrKqd8isUM5hMnoPT4cXGluu0WKoqK5XcXT6EctLd1W15SyVMUUbtSAxFpeIPoEzbiUz2XZsE9SG/Vi4jyWLxY+sl1E6NYrYQZ7A8ckaz51yKBVcCjqUAYGoJULIcS1/6ElwnCVkTy7AMzWJl6VmWW8fVboNk8t7oJbhfYRn9hkvQjpdCSqusq3qJ+qSwinZf6bPVJeZIcZltIClL5nAZylKgSib7pBNBWww7UcTzBUSSeShxscHNi4+be8W+LCj+nayyyCiLd+FSXWy6aeGfBNroedmodsKvxeXDFd034Zc2fw5f6t69upGrkWtGBZh6Dq+d/ycMRt5AUU2hyd+GgKtJC/amQHI6AWgWm7R4nkFlvlnIwkUWqkRuWguq7wnvxQ1rfwv9jfuWJMKk5yZzczg3cwiPH/8m3hx5Ao2+DnSE+uATgErPNZitZQ5c0K4K9NN+WQGqkvkYtjXuxO7uuwVAa66163rpYieMx+XE7r4uDIrqOUKB+bYs0s9kBj0t9bDEEkssscSSDxOoIiE3AfniyS89T7pX7w7hq1s/g1OZKM4e+o7Yq07pFAkOn/5THilTVXMT1LLIPCV4MpwG03in+OBMRmzg5k5qcVmO9qvwrzfeh493X4N2f9OqG2Q6cQqvj3wbb08+p8UWhb31cNvbNctSqVRCSdFPzmnknIqyEFgpqHnSTzcaUSoYN+YyEUSzE+LDNHZ2fg7X9nwN9WSdWob7ifinjo29iCdPfgMj0RPoDG1A0N2o8WJRrr4FNBNqpefPiKuI9tMm3i2Rm0EqF0WDpx3b2m/CuuYdcNgX0PiQWfhnF7nb16SjIYRv/qvPIp8XwJxoJIxjQdS/4fKyHFliiSWWWHKZgCo6nUPxEgNGUGVX7GgWgOPjvbfjxOw5vDb6osBSOSBMlxQrFTvMcdWCz4z0fWZuQzvHLJJ1KjmhWafqAl24rfs63NB7Gz7esRs9nuCqGoJO9p2afl6jSRiJ7ddik7yuRngdfjjtLo0JXXP1VWOopaxKfKpOa2ybQ2M3n0lNChATQdjThs0td2J7xyfRFtyyrHomBYh9bfhneOHMdzEaP6ERcta5WzUARNkDpTtSPnMBY8VCDKiVmADFZH27svt2bG6/AW6Hd+Gr6AGq5NO/aHO7027HGssaZYklllhiyWUGqoxHLYkrQ5LyaXJjUz+m+u7BTOwszsXHUSQqA1LInCR4CcSxEGhVACvM21Mo/5x2PyLyTEfgLWbQVb8W1/Xeja9vvh87g22raoB8MYVo+jxOTP0cr418F+fn3kLIU49mfze8zjoUBVCcP9WH2ql+K9LLGOgS5PuRRYhACxGEJnIx1Hu7sLP9PlzT8zV4XEtzT5G7cC49jaOjz+KZU9/WmNI76gZQ52mGHXauI3Ni0X+qal5XA7AiziqKCyOAR/dvC23A7jV3oyXUu6CZoAf4UjDwkDVtLLHEEksssWR1oEoKnawhi9WXYUinHHb7sK9zN/bP3I7Z4z9EJHoKaNqi59QrpKU5RyKPGqfoDYdHFONnEpEIUEUB04kRvQhstX3dnfj9rZ/F7sY+tPsaVt0Aw9H92D/0NxiOnUSuGENncB1cDj8c2qm8rKiGAZys8LS/nr9Pv5jch9PpcQFgEmjytuHatV/B1tb7NY6r5Ug6G8ehC0/jyZPfwkzqArrrt2hpZqDl7CuAzx+y5YmBFYOseRxVcfpP1YLZs8UkxuKnBYhciyu770N3eJNmUasSiqWikydvWFPGEkssscQSSy4eVBH3BB3vJSK6vRJa2BUbNoQ68OsbP4bh1BSeEsBKO4nnbRJgyFtmT6/l9lug7VEm/ZTJlikBMoG1QhZ19QP4VM+1+Gjvrbiz40p4VnkCnqxTp6afwuHxh3Fh7qDAaXb4BcDxO+t03il296motE4Z3XkV7A9G65Q8bacSmLIjX8pjMjWGbCGD7tA27O78BDa33gO/a3mxX8lsDK8M/RjPnPoOIgJQ+QWYohgqsEVKhVmqnkqQqhgsgFRXh92tnTyMZ2fgUFzY1nEzdvfchbqF6Wgofoo4UOgU6Ig1ZSyxxBJLLLHk4kFVli0VxBpLpqE+o/q+pqkPHx/4KI7GRjEROaol6EWgB5Xa3uB7UmrQqM+zjRtO92Xm4C+kUd+4GbcPfBr/Yct9aHV6V/XC+VIaUQFMjkz8BK+e/6ZGZxDydKPJ06yliJE58ebfzBAbpq6QS4mAFQGqdCGFVD6N7uAWXN39AK7o+JzOC7WEEGCKZ6ZxZOxFPH/mezg3+ybWhLcg6GrQY7xQXEABVon1FNM6kZArci49iYKax7a2m3Flz71oCnSaVYNO+/0jdFJBK3eMJZZYYoklllwCUCWtFn8HPWC9r/qPn23fheKWT+N/f2UYqfgo4AqKQvFCNp1ZfdHExyhzUGl55lSddypyWovRun7DffjVTffjupbNaHJ4Vv3CY7HD2H/+H/H21JOwC5zY7F8Hr1MPmNbz9VXiBmMg+oKgdAPvlPx7+RoFdrsTkeSYAFQptAfW4aqeL2Bj6z3LAlQaihXfe3v8ZTx54puYTJxDV90meJxBLSC9SKSjRso9tapaNTArpZshCxzlFoxnZ9FZ14cb+h/AmsattapBlBpkpcpY08USSyyxxBJLLh2ooshzOg1I+aMon8/1xj82uXz4RM91OCcA1UNvP4QLxG5OpwEp9kcyntfM8wf9GiLzLCQEfJvWmNE76tfjk+tux93r78AtbVfAvUp3XzI3iZNTT+HI5NMYnH0RxeIcAp4W+Jx1AvI5tDQxJaZKWErUJa6j+CmKc5pJjyNXzKKnbjv2dH0OAy23a8ShyxF6xuHRZ/D0yW9jInZWfM+PkKeR/1aqzIKMag/rwuAvRXNR2jVAlqK0O8nzAlAN4MYNX0Bfyx7tFKFJj/yQy5w1VSyxxBJLLLHk0oIqKZTzhzKvUwDOeuN9Ov2N+N2tDyCbT+Ifj34HsXRET1Xj4kTsCxjIZfwUAwDiWSJAlUuiva4HD2x5AP/rls+g3bU6dx9ZZVL5GRwd/zFeGf4HjCUGBUBxapYjm82tgRcCVKZEnjXAzmIAi6xQ5FrLFOiUXxzdoe2ay297x6c1ULMcoVQx5yPH8NLgD3Bi8mW0BddrRJyKdoKwyHFdqOmMq4BUhhOUVM94ZhbJfBR13hbsXXMfru39pBl9AqUsIXcfZYQ/YE0TSyyxxBJLLHnnQBXxFFHwMnEWfR561u15Rd7hDeJzffcgmo3hwbe/h0JuDmjargMntYbFyubWEyHHTgHZNFxte/BHu76Mj3VdhUbn6t19yew0Xhj6UxwafwLx7Bya/C3w2D0CDNm12Kl5ALLMnG/G66oBFoEeisuKpKeQEM9qFMBlV+cnMKC5/OzLrjO55p46+bc4O30ADb4OBDz1utuO6jtPqmoCoOZ/V8qGLDo8qdFbKCgW8phKnNPIPm/r/wp29dwNl7kr9Zwo/wQ9iacVR2WJJZZYYokl7yCoKrHi/bYoZIL6svFeTsWGvU0bkd30CaRzcfx86GnEZ4R+rusTf/TzicCSDrLo+D4p/eQIkJ4Wd/Hgzv7bcU/fvfjUmuvR4HCt+uWGo6/izdHv4djk49opt6C7FT6HTwMohVJxPn5KvRi3H5uM7AJMqaUS5rIR8axJhD2duKbnK9jUcteyXX4kM8kLePHsQzg+8ZJG6dAU6NGoD4hHqrSYhaoKpEp3oA12DVSl83GMx8/A6wphV9dd2Lv2o2hbyEdFEoHu8qP8fmPWFLHEEkssscSSdxZUSTnEFg3SzleJEpB/cNsU7Gu7AkXlVzUA8/SZR5GkwHMS4pxSOLk5pbTJJ2DLzKDJ6cPWtbfj93d8Cbc19a26UtlCHJOJ09g//A28Nf6QACV1aPJ3I+iqR76YqSDzXBQwLQGs5n8yfUJOgKA5AahC7ibsaP8Iruz6Ipz25aZbUZHJp3Dw/BMCVH1fA1EN/k54nAEUilkt3gtVgKoWtjIyVpEQsE3kIxoSvqLzdtw+8KtoD68zxXTQrY8EqAat6WGJJZZYYokl7x6oInlFlP8kyv8jyjbjH+xCp1/ftAHpbV9ASij4p88+CjUzDTRuFn/06vFVFD8VOYFwuA+f2vw5/Hr/negLday+NgJ8nI++hufO/aVmqfI5GwXIaYXT5kG+lNHASgUIqTixZw6iFruOAJXdxpxPlBxZTWNz6+dx1ZrfgoMIUJcphWIBR0dewIHzjyGaHkNnaCO8zqCWGFkHcvOvV5ONovxOemyXoiqatYssVBTOdvWa+3Hj+s+hOWSkuqiQw6L8mShHralhiSWWWGKJJe8+qCKaBcoJ96ei/J4oFUns/A43bunYpbmu/DYFTw2/gGTkOOBrBXJxLTB9c+tufHzgY/jUhruxo6591RVJ5yI4NvFzvDH6IEbjr2i84kFXC1x2PRCbEiJXUmUpNQGUGbiq/lyjRhBfKapZzGWIF9OGba0fx472zyLgWn5SZ8oHeG7mMF4Y/B6GZ49pQeluh09z2xVL+VoAqCoQHcz1SQmSHVp9E9lZTCWH4XOFsKPzNly/7jPobbxC/N2U0uF5Uf4EVmC6JZZYYokllrxnoIqENP/fQs8L+G9EaTX+MWR34OPdV2nKXbF78PTpnyCeuACnUPz9LVvxpa1fxpfW34Y292pP+BUEgJjEqeln8OLw3+Pc7KtoDbYh5GqGw+ZBoZTj+CmZskU1BVOmwEUAqVp/p7sVQc+OaNFOPaFduKr7N9BZt3NF9R+PDeL1oUdxaupVDai1BtdpYKogwFo1gWfNmCpVvp2eYzCZnUMiH4VTgNpd3XdrgentYdMYKjqOeV6Ub0Lno7LEEkssscQSS95DUCXlO6zy/1gUVzUYuKFxPVzbPg+n3Y3vH/0nrGnejD/Y/TXsa9+JZtfqT/ilctM4NPYjvHrh+4hmzqGjbg28jqAAKA4dUBlZ0Q0ASVqfalmmJKiq5fZTFFWL0ZpJTaInvAe7O7+I5sCGFdf/1OQreGvkCbjtPnhdwUoQZ0LuWYvry2F36cSemXEB1M4i5G0WYOpXNOqE5lBXrccT79i/swCVJZZYYokllry/QNW4KN8ThUxOvyTKRuMf/Q4Xbmjdpp2+2xBowfpwDz7Scx3qV5lyhiSSOoM3xx7GwdEfIZY5D4/TpeXvA2T+vlKFtUcDSAxaJFapFVG1mBuQCD7juVmk8gk0etdiW+tH0dd0C7zO8LLrTolmjo/tx8ELT2A6dR5toQ3wOUN6ip+a36lO/KPApti0HIPxbEQAqgnk8kmsa9yJPWvvw66uO9ASXFvrdm+K8g1RHoZOk2GJJZZYYokllrxPQBUJBRf9B1HoiN2/hk4QOk/S5BSI4KaWTVq5GCH3WFSAqLdGf4DXR78vQMkw2gOdmoWqpCoMTEwS41WBJhW14qVqxTHpJ/3yxRwSuRictiB2dtyPra13wOtaPqAii9JkfBjPnf4uzs68hYC7QQCyAOxsXePHGHMiVyIrQx2pLbKlNGK5iPa37vrNuLX/V3D1uo/Xejy5aycYUP2VNQ0sscQSSyyx5P0JqqT8PXTrxx+J0nSpbx5ND+H1C9/BmxOPawHqncTnpJF6apCFT8iZB6KXAZIM9tatV9VEoAsC11U9BQ1RMpCLDWoePeEtuKL9Ewh7e1ZU/0RmFsfGXsCp6dc0gNUc6NVjtMQ9y8H0JulmDP9zaAmgc4hnIhpTfIO3HVev/QT2rvkIOuv7F3v8OVH+rSg/t6aAJZZYYokllrz/QRVZQh6EdpgfvyrKFZfqxtOJE3ht5CEcGPkRCsUY/E6/lhuvqLn71Jqgaj7oXFGq8uQZMxObAzCOohJ3LiJfSiCVn8Ta+mtxZecDaA1uRG0norkMzryFA8OPIltIwu8KaScUKU8guQQVKAtyTsuqEjO7Tl6aw2x6DHPpSc261dd0JXZ03o4dXbehq35gsUcTEz6ln/mxKFlrClhiiSWWWGLJ+x9UkUyJ8ufQT5j9AXRX4KoDqMjNNZsewsHRh/QYquwEOgNd8ApQVVBLeqLheVCEeZBUmZuvynrFF+uB5yYB6YbPKHaJkhFnikmEPK0aW3p/850rAlTEix5PR3B0/HkMRt5EvbcdPleZjwoVdVAqIB3VlRI15ws5AcZSGks6pZlZ23gFru/9DLZ33lIr7QwJJUU+B52H6iFr6FtiiSWWWGLJBwtUSflnUU6J8n+Kcs1qbzKXGcJr57+NNyeeQK4YQ1dwDRw2J1un1GWTeMrftZN9GlhROUlxbfClpXyx2ZDIzSFfsmFH213orb9Oz6u3AikIQHRs5AWcmT6IvJrX+KjoNGS+mK8k+KzAVDbYFZeAYwWkxPMnE4MCXJXQHdqCa9Z9HDt7bkfI3ajRJ9TEcsAvRPnPohyzhr0lllhiiSWWfHBB1awoT0K3Un1KlLugW62WJbliCmdnnsOhicdxavoFASjiqHMH4XP5BcApLGBJX1Sq3XoLw5YWiE1xaM+IZSMolopoD2zE9vZPoCWwsmB7An9jsbM4cOFnmEoMI+xpgcPu1HmzlMrqEV+VBhjFf5S+ZiYzgkwhIcCVHR2hAaxr3oW+pj3Y1HYtwr6WxR57VpRHRfmBKPs/iINU1bNfE3sr/Vuxpq0lllhiiSWXLaiajcwilUqipbX1x06nkyxWFMB+qygU3b0kQVUmP4djE4/gjdFHBLDIoDvUqbn8csUc4yFl3o1XzUc1b3EyUCkYlPX8vxXUZlenrxbFs6KZSTT61uKK9nvQU78HTvvKPJlz4vvHxp7H4CwxGZTEvTo1ok5iVNeiuhgvEMiiz3QC0AJyAlQRsHQ5vOgM9WNP973Y2XMXQt6GxR5HbUz5+/4FOjHr8Ad1kJZULd8O+X8XJWq1xBJLLLHEkg89qHrwu99Vnn/uOfU//7f/hs6uzjPio/9aKpWeFYDlfxHlqqW+XyzlEHC1osXbiKnUIKZTY0gKgBFyheC2B7UTeRRATqfoqt14ZTcfKuOVTFLSmBF+2sR/lNA4V4yjVEqiu24HNrbcC4fNveJ2GIueFKDqOXGfHLyUhkb8R3hBZdelzWanM31avr5kLoqZzKgWP1XnatSsUls7b0F/8240+DvgcS6ZqJnSzlA+RnL3TX6QB2m+UBDIOgvkCGCWbNa0tcQSSyyx5LIFVf0btdNois/nI9RC5qVBm81GpwMzotwryu2irK31fSLU3NR6N1qDGzCROIHR+CnMJE8I4DGFaCkKpwBVHqdH/PTCafdocU7kNtMDvxdaNqqpE2D4nb4jwZVOqulALBNBpphBR2gH+ptuQYNvZfQJ5DpMZeZwfGK/FpwecDUg4A4Tbec8IKTA80whjnQuqV3vtLnQ4luD1tA6rGvcjt7Gneiq34ygp36pxx0R5WlRfoL3GWXC7OysANjfU/oHBrDvln3LNjndunfrY8U//Iqqlkq47artT1rT1hJLLLHEkvejKO+FO6WQz2NyfAICZCHc2EAcVl8X5WOidEPPH1jbalFM4fzsazgbeRbnYwcxmRxHrjArQAgEoHJpFiRFcWrQiSxBZP3hV52HU4slTqZLZJ5AG4EsAcqmk6NwO+pxTc+Xsb3tYwh7u1b0vtl8Cm+PvognTn4Lp6dfQ1fdZrhsHo2wU39kUSMTpZipQimPoLtRc/Otb9yN/ta9WNO4ddEgfOiB6BEBWk6mUqkHW1ta/srhdObeb4NtZGQEf/j7/0a5/sYb8Ztf+6rlx7PEEkssscQCVRcro+cv4N//9u/j2ltvxFd+97cI9VBwEJE9fUaUr2IRCxoBnkIxrcUYJfNTuBA9jKHZlzAqAFY8ewGJfAIl1QGPwwGfMwivs07jcYLmalPnQ6u08378uxnQouB0imlK5Ge0/H7r6q/BbX3/Hk3+9drfViKJzDQeOfxnODT2jBYHVidAE1mmZrMT4mdaq1/Y04qwr0MAqR3oa9mDznA//K46LY6KTgcuIVFR/vxb3/jmwy+88Pzgf/zjP450dHa+7wZbnsD0hADTfj/q6+ut2WeJJZZYYsmHShzvxUO9fh+uveVGZcMmLTUgcVhNcSEupdOi7BXlJlEWIAOKjnLafVrxu5oEQOlEa6APM6kbMZc5j8nkWfHvIaTzk8jkpxFNX0BJy5JjJ2cbHDab5lojoGJTnFrSZQ1EgWlA2QVIrr8C9BN/bYGNGGi6A42+3hUDqnh6GgcuPIWnzz6BiKhbR7AFUbWgkX22BHrFO4TRGuxFR12fxlnVFlqHFqKKsDuXc/vj0Mk8D4jyZF9/3xmb3Yb3I6AicTqd6OzqsmadJZZYYoklH0pR3qenqSjHyq9Dj7UihEAZkpeFMmbT5zASewvTidOYiB/BTHoQyXwS2WJGvGxRgCKBJImuwO7QABVRF0hGdYVhm2bHUhXkKAVMdgq7Oj+HG9f+Nuq8HbArzhW9yOnJ1/HTo3+LZ889A7c9j03N6+BxhNAcWIuu8GYNRFGuvrBv2QwTxIJOlqkL0JNXfxtVgeijIyPweL1oaGh41zqMrFAT4+OaFerdfK4lllhiiSWWvF/E8T6t1zlR/kSU74hCWYG/hEUC2Y0S8nTC52zEuvrrkS3EBcg6j6nUGQGyzgiANCbAVUwLcE+JkilEtFimkgBWJVU/6UeWLLtG8lkQ0MqDdn83eut2oc7TwW7ElUksMwObmsc13XvQGlyL/pZdAlB1CxDVJsCVT4A713Lce0Y5AT2v4k9FiUDnAJuXsdFR/O6/+rpy08034Xe+/vV3DTEToPq9r/+uctO+m/Hb7+JzLbHEEkssscQCVYsLBVmPc4lBJ7BcJ8qVolwrSrjWF8mSZHfo1iSfqxH1vrUCzGxCIjyFdH4W+VJagKkY4plxzKVHkMxHtJx7+VJWC4LPF5MoqikUSuNw2eow0HwbOut2a6f0ViJazFappAGoa9fdD587iDpvm6hPB7yuwErbg9rhRVHegM5MTy6/MbML3R4Pbr75ZgzortV3TchCddO+fdj4Lj/XEkssscQSS94vonzAyBQpzuqLouyBfkowKEpgteCQAsjT+RmNyiBfTCNViCKdm0G6MIdo+hzcjgA2ttyHjtD2lVqTNFBVKhZ07illxdRKBCoTXCYYUP1PUQ5aQ9YSSyyxxBJLLFB1KcQHPb6KqMy3QadhuAMmAe3LEY0sVCslgkAaPxQxnNPvRTWvgSEiF3UIQKVgNdlRdGqGVQi5+J4Q5RHolqkU9CD+jDVkLbHEEkssscQCVZda6EjfLlG2irJBlDXQea6IabT1A/Yu5xlIUfD5MP/7MBdLLLHEEkssscQCVe+qELDaLsqNouwWpV0UyuVCfjtyD7q4vFcJeYmgM8eFaCSI+TPBIOp16GllDjGwssQSSyyxxBJLLFD1nglFknsYSAUYVJGLkCxZzQy6iKrB9x7Vj2gQTopCuQ9noMdHkSVqWpQkdBcfufcK1rC0xBJLLLHEEgtUvd+EUuAQ2yQFtLcy0Grn38Nc6hmIESiT1iwHFzuXautWiQtZnPIMhMgCleXfCSTNMpCiQicYR6Gf2CNOKbJQDUGPk7LEEkssscQSSyxQ9YEGW0TRsIFLGwOrEHQrF1m8yKLlZrBlN3xXNYApAlHSwjTH4CnJ4ImY4ckqdZaBlSWWWGKJJZZY8iGW/1+AAQDEsIJ+HeCJbwAAAABJRU5ErkJggg==;opacity=70;" vertex="1" parent="1">
          <mxGeometry x="741" y="10" width="318.48" height="80" as="geometry" />
        </mxCell>
        <mxCell id="r_zC4A2iQhUERC9B56iK-20" value="Documento de identidad original&lt;div style=&quot;font-size: 16px;&quot;&gt;Inscripción al RUNT&amp;nbsp;&lt;/div&gt;&lt;div style=&quot;font-size: 16px;&quot;&gt;Examen de aptitud física, mental y de coordinación motriz&amp;nbsp;&lt;/div&gt;&lt;div style=&quot;font-size: 16px;&quot;&gt;Certificado de aptitud de conducción&amp;nbsp;&lt;/div&gt;&lt;div style=&quot;font-size: 16px;&quot;&gt;Examen teórico práctico de conducción&amp;nbsp;&lt;/div&gt;&lt;div style=&quot;font-size: 16px;&quot;&gt;Paz y salvo de infracciones&amp;nbsp;&lt;/div&gt;&lt;div style=&quot;font-size: 16px;&quot;&gt;Pago de derechos de trámite.&amp;nbsp;&amp;nbsp;&lt;/div&gt;" style="rounded=0;whiteSpace=wrap;html=1;labelBackgroundColor=default;align=left;fontSize=16;labelBorderColor=none;spacingLeft=18;" vertex="1" parent="1">
          <mxGeometry x="30" y="342.5" width="310" height="180" as="geometry" />
        </mxCell>
        <mxCell id="r_zC4A2iQhUERC9B56iK-21" value="&lt;font face=&quot;Verdana&quot; style=&quot;font-size: 18px;&quot;&gt;&lt;b&gt;Entradas&lt;/b&gt;&lt;/font&gt;" style="rounded=1;whiteSpace=wrap;html=1;align=center;" vertex="1" parent="1">
          <mxGeometry x="45" y="300" width="280" height="30" as="geometry" />
        </mxCell>
        <mxCell id="r_zC4A2iQhUERC9B56iK-24" value="" style="group" vertex="1" connectable="0" parent="1">
          <mxGeometry x="250" y="600" width="189.99999999999997" height="120" as="geometry" />
        </mxCell>
        <mxCell id="r_zC4A2iQhUERC9B56iK-18" value="Personal operativo de planta." style="rounded=0;whiteSpace=wrap;html=1;labelBackgroundColor=default;align=center;fontSize=19;" vertex="1" parent="r_zC4A2iQhUERC9B56iK-24">
          <mxGeometry y="40" width="190" height="80" as="geometry" />
        </mxCell>
        <mxCell id="r_zC4A2iQhUERC9B56iK-19" value="&lt;font face=&quot;Verdana&quot; style=&quot;font-size: 18px;&quot;&gt;&lt;b&gt;¿Con quién?&lt;/b&gt;&lt;/font&gt;" style="rounded=1;whiteSpace=wrap;html=1;align=center;" vertex="1" parent="r_zC4A2iQhUERC9B56iK-24">
          <mxGeometry width="190" height="30" as="geometry" />
        </mxCell>
        <mxCell id="r_zC4A2iQhUERC9B56iK-25" value="" style="group" vertex="1" connectable="0" parent="1">
          <mxGeometry x="670" y="600" width="190" height="120" as="geometry" />
        </mxCell>
        <mxCell id="r_zC4A2iQhUERC9B56iK-16" value="&lt;font style=&quot;font-size: 19px;&quot;&gt;Revisión y validación de datos suministrados.&lt;/font&gt;" style="rounded=0;whiteSpace=wrap;html=1;labelBackgroundColor=default;align=center;fontSize=19;" vertex="1" parent="r_zC4A2iQhUERC9B56iK-25">
          <mxGeometry y="40" width="190" height="80" as="geometry" />
        </mxCell>
        <mxCell id="r_zC4A2iQhUERC9B56iK-17" value="&lt;font face=&quot;Verdana&quot; style=&quot;font-size: 18px;&quot;&gt;&lt;b&gt;¿Cómo?&lt;/b&gt;&lt;/font&gt;" style="rounded=1;whiteSpace=wrap;html=1;align=center;" vertex="1" parent="r_zC4A2iQhUERC9B56iK-25">
          <mxGeometry width="190" height="30" as="geometry" />
        </mxCell>
        <mxCell id="r_zC4A2iQhUERC9B56iK-27" value="" style="group" vertex="1" connectable="0" parent="1">
          <mxGeometry x="670" y="130" width="190" height="120" as="geometry" />
        </mxCell>
        <mxCell id="r_zC4A2iQhUERC9B56iK-14" value="Equipo operativo de trámites" style="rounded=0;whiteSpace=wrap;html=1;labelBackgroundColor=default;align=center;fontSize=19;" vertex="1" parent="r_zC4A2iQhUERC9B56iK-27">
          <mxGeometry y="40" width="190" height="80" as="geometry" />
        </mxCell>
        <mxCell id="r_zC4A2iQhUERC9B56iK-15" value="&lt;font face=&quot;Verdana&quot; style=&quot;font-size: 18px;&quot;&gt;&lt;b&gt;¿Con quién?&lt;/b&gt;&lt;/font&gt;" style="rounded=1;whiteSpace=wrap;html=1;align=center;" vertex="1" parent="r_zC4A2iQhUERC9B56iK-27">
          <mxGeometry width="190" height="30" as="geometry" />
        </mxCell>
        <mxCell id="r_zC4A2iQhUERC9B56iK-28" value="" style="group" vertex="1" connectable="0" parent="1">
          <mxGeometry x="250" y="130" width="190" height="120" as="geometry" />
        </mxCell>
        <mxCell id="r_zC4A2iQhUERC9B56iK-8" value="&lt;font face=&quot;Verdana&quot; style=&quot;font-size: 19px;&quot;&gt;Recursos Informáticos y materiales&lt;/font&gt;" style="rounded=0;whiteSpace=wrap;html=1;labelBackgroundColor=default;align=center;fontSize=19;" vertex="1" parent="r_zC4A2iQhUERC9B56iK-28">
          <mxGeometry y="40" width="190" height="80" as="geometry" />
        </mxCell>
        <mxCell id="r_zC4A2iQhUERC9B56iK-9" value="&lt;font face=&quot;Verdana&quot; style=&quot;font-size: 18px;&quot;&gt;&lt;b&gt;¿Con qué?&lt;/b&gt;&lt;/font&gt;" style="rounded=1;whiteSpace=wrap;html=1;align=center;" vertex="1" parent="r_zC4A2iQhUERC9B56iK-28">
          <mxGeometry width="190" height="30" as="geometry" />
        </mxCell>
        <mxCell id="r_zC4A2iQhUERC9B56iK-29" value="" style="endArrow=classic;html=1;rounded=0;exitX=1.01;exitY=0.446;exitDx=0;exitDy=0;entryX=0.5;entryY=1;entryDx=0;entryDy=0;exitPerimeter=0;" edge="1" parent="1" source="r_zC4A2iQhUERC9B56iK-20" target="r_zC4A2iQhUERC9B56iK-1">
          <mxGeometry width="50" height="50" relative="1" as="geometry">
            <mxPoint x="550" y="230" as="sourcePoint" />
            <mxPoint x="705" y="340" as="targetPoint" />
          </mxGeometry>
        </mxCell>
        <mxCell id="r_zC4A2iQhUERC9B56iK-30" value="" style="endArrow=classic;html=1;rounded=0;exitX=0.75;exitY=0;exitDx=0;exitDy=0;entryX=1.012;entryY=0.237;entryDx=0;entryDy=0;entryPerimeter=0;" edge="1" parent="1" source="r_zC4A2iQhUERC9B56iK-19" target="r_zC4A2iQhUERC9B56iK-4">
          <mxGeometry width="50" height="50" relative="1" as="geometry">
            <mxPoint x="560" y="240" as="sourcePoint" />
            <mxPoint x="480" y="500" as="targetPoint" />
          </mxGeometry>
        </mxCell>
        <mxCell id="r_zC4A2iQhUERC9B56iK-31" value="" style="endArrow=classic;html=1;rounded=0;exitX=0.25;exitY=1;exitDx=0;exitDy=0;entryX=0.87;entryY=0.616;entryDx=0;entryDy=0;entryPerimeter=0;" edge="1" parent="1" source="r_zC4A2iQhUERC9B56iK-14" target="r_zC4A2iQhUERC9B56iK-2">
          <mxGeometry width="50" height="50" relative="1" as="geometry">
            <mxPoint x="570" y="250" as="sourcePoint" />
            <mxPoint x="640" y="390" as="targetPoint" />
          </mxGeometry>
        </mxCell>
        <mxCell id="r_zC4A2iQhUERC9B56iK-32" value="" style="endArrow=classic;html=1;rounded=0;entryX=0.5;entryY=1;entryDx=0;entryDy=0;" edge="1" parent="1" source="r_zC4A2iQhUERC9B56iK-37" target="r_zC4A2iQhUERC9B56iK-2">
          <mxGeometry width="50" height="50" relative="1" as="geometry">
            <mxPoint x="804.2399999999998" y="425" as="sourcePoint" />
            <mxPoint x="735" y="370" as="targetPoint" />
          </mxGeometry>
        </mxCell>
        <mxCell id="r_zC4A2iQhUERC9B56iK-33" value="" style="endArrow=classic;html=1;rounded=0;exitX=0.5;exitY=0;exitDx=0;exitDy=0;entryX=0.208;entryY=0.714;entryDx=0;entryDy=0;entryPerimeter=0;" edge="1" parent="1" source="r_zC4A2iQhUERC9B56iK-17" target="r_zC4A2iQhUERC9B56iK-2">
          <mxGeometry width="50" height="50" relative="1" as="geometry">
            <mxPoint x="590" y="270" as="sourcePoint" />
            <mxPoint x="620" y="500" as="targetPoint" />
          </mxGeometry>
        </mxCell>
        <mxCell id="r_zC4A2iQhUERC9B56iK-38" value="" style="group" vertex="1" connectable="0" parent="1">
          <mxGeometry x="760" y="300" width="310" height="222.5" as="geometry" />
        </mxCell>
        <mxCell id="r_zC4A2iQhUERC9B56iK-37" value="&lt;font style=&quot;font-size: 22px;&quot;&gt;Licencia de conducción autorizada&lt;/font&gt;" style="rounded=0;whiteSpace=wrap;html=1;labelBackgroundColor=default;align=left;fontSize=16;labelBorderColor=none;spacingLeft=18;" vertex="1" parent="r_zC4A2iQhUERC9B56iK-38">
          <mxGeometry y="42.5" width="310" height="180" as="geometry" />
        </mxCell>
        <mxCell id="r_zC4A2iQhUERC9B56iK-23" value="&lt;font face=&quot;Verdana&quot;&gt;&lt;span style=&quot;font-size: 18px;&quot;&gt;&lt;b&gt;Salidas&lt;/b&gt;&lt;/span&gt;&lt;/font&gt;" style="rounded=1;whiteSpace=wrap;html=1;align=center;" vertex="1" parent="r_zC4A2iQhUERC9B56iK-38">
          <mxGeometry x="10" width="280" height="30" as="geometry" />
        </mxCell>
      </root>
    </mxGraphModel>
  </diagram>
</mxfile>
